;TYPE=PLATED
;Layer: PTH_Through
;EasyEDA Pro Client v3.2.149.88089769, 2026-07-31 13:50:33
;Gerber Generator version 0.3
M48
METRIC,LZ,0000.00000
;Hole size 1 = 0.70002 METRIC
T01C0.70002
;Hole size 2 = 0.90002 METRIC
T02C0.90002
;Hole size 3 = 0.91440 METRIC
T03C0.91440
;Hole size 4 = 1.00000 METRIC
T04C1.00000
;Hole size 5 = 1.40000 METRIC
T05C1.40000
%
G05
G90
T01
X8.636Y-9.636
X8.636Y-7.636
X8.636Y-16.621
X8.636Y-14.621
X28.194Y-21.066
X28.194Y-19.066
X18.018Y-25.654
X16.018Y-25.654
X11.557Y-41.132
X11.557Y-39.132
T02
X44.577Y-24.638
X42.037Y-24.638
X34.417Y-24.638
X31.877Y-24.638
X39.497Y-24.638
X36.957Y-24.638
X29.337Y-24.638
X29.337Y-32.258
X31.877Y-32.258
X34.417Y-32.258
X36.957Y-32.258
X39.497Y-32.258
X42.037Y-32.258
X44.577Y-32.258
T03
X20.955Y-22.75591
X20.955Y-9.75599
X16.637Y-20.34291
X16.637Y-7.34299
X42.545Y-35.79109
X42.545Y-48.79101
X36.322Y-7.59709
X36.322Y-20.59701
X18.923Y-35.91809
X18.923Y-48.91801
X41.148Y-20.59691
X41.148Y-7.59699
X45.339Y-20.46991
X45.339Y-7.46999
X47.498Y-35.79109
X47.498Y-48.79101
X35.433Y-35.79109
X35.433Y-48.79101
X6.35005Y-32.04408
X6.35005Y-34.54408
X6.35005Y-37.04407
T04
X32.512Y-15.875
X32.512Y-13.335
X32.512Y-10.795
X32.512Y-8.255
X24.892Y-8.255
X24.892Y-13.335
X24.892Y-15.875
X24.892Y-10.795
T05
X8.636Y-22.646
X8.636Y-27.64599
X24.29701Y-48.006
X29.297Y-48.006
M30