G04 Layer: TopLayer*
G04 EasyEDA Pro v3.2.149.88089769, 2026-07-31 13:50:33*
G04 Gerber Generator version 0.3*
G04 Scale: 100 percent, Rotated: No, Reflected: No*
G04 Dimensions in millimeters*
G04 Leading zeros omitted, absolute positions, 4 integers and 5 decimals*
G04 Generated by one-click*
G04 Object Configs: Pad,Via,Track,Text,Image,Dimension,BoardOutline,BoardCutout,CopperFilled,SolidRegion,FPCStiffener,Line,PlaneZone,ComponentProperty,ComponentSilkscreen,TearDrop*
G04 Layer Configs: 1,2,3,4,5,6,7,8,9,10,11,13,14,56*
G04 Copper Areas: 0*
%FSLAX45Y45*%
%MOMM*%
%ADD10C,0.2032*%
%ADD11C,3.4036*%
%ADD12C,1.524*%
%ADD13C,1.8*%
%ADD14C,1.905*%
%ADD15R,1.6002X1.6002*%
%ADD16C,1.6002*%
%ADD17C,2.2*%
%ADD18C,1.1010*%
%ADD19C,1.1*%
%ADD20R,1.524X1.524*%
%ADD21C,0.5*%
G75*


G04 Text Start*
G36*
G01X2392911Y-3789372D02*
G01X2386446Y-3789064D01*
G01X2379056Y-3787833D01*
G01X2376286Y-3787217D01*
G01X2372591Y-3786293D01*
G01X2368896Y-3785062D01*
G01X2365510Y-3783830D01*
G01X2357505Y-3779828D01*
G01X2355042Y-3778288D01*
G01X2353194Y-3777057D01*
G01X2351655Y-3775825D01*
G01X2350116Y-3774902D01*
G01X2348576Y-3773670D01*
G01X2347037Y-3772131D01*
G01X2343958Y-3769668D01*
G01X2340879Y-3766589D01*
G01X2338416Y-3763510D01*
G01X2336877Y-3761971D01*
G01X2335030Y-3759508D01*
G01X2332874Y-3756429D01*
G01X2331027Y-3753350D01*
G01X2329488Y-3750887D01*
G01X2327641Y-3746577D01*
G01X2326409Y-3743806D01*
G01X2324254Y-3737341D01*
G01X2323023Y-3731799D01*
G01X2322407Y-3727488D01*
G01X2322099Y-3720099D01*
G01X2322198Y-3717328D01*
G01X2363354Y-3717328D01*
G01X2363663Y-3723794D01*
G01X2364278Y-3726257D01*
G01X2365202Y-3729644D01*
G01X2366433Y-3732415D01*
G01X2367357Y-3734570D01*
G01X2368589Y-3736417D01*
G01X2371051Y-3739496D01*
G01X2372591Y-3741035D01*
G01X2375670Y-3743498D01*
G01X2377517Y-3745038D01*
G01X2379672Y-3746269D01*
G01X2381827Y-3747193D01*
G01X2384290Y-3748116D01*
G01X2387061Y-3748732D01*
G01X2387061Y-3748732D01*
G01X2388909Y-3749040D01*
G01X2392295Y-3749348D01*
G01X2396297Y-3749040D01*
G01X2398453Y-3748732D01*
G01X2401531Y-3748116D01*
G01X2404918Y-3746885D01*
G01X2407073Y-3745653D01*
G01X2408921Y-3744730D01*
G01X2410768Y-3743498D01*
G01X2412307Y-3741959D01*
G01X2414463Y-3740111D01*
G01X2416926Y-3737341D01*
G01X2418773Y-3734570D01*
G01X2420004Y-3732415D01*
G01X2420928Y-3729951D01*
G01X2421851Y-3727181D01*
G01X2422467Y-3724410D01*
G01X2423083Y-3719484D01*
G01X2422775Y-3717021D01*
G01X2422467Y-3714865D01*
G01X2422159Y-3712095D01*
G01X2420928Y-3707168D01*
G01X2419696Y-3704090D01*
G01X2417849Y-3701011D01*
G01X2416310Y-3698856D01*
G01X2415078Y-3697316D01*
G01X2410460Y-3692698D01*
G01X2408613Y-3691467D01*
G01X2406457Y-3690235D01*
G01X2403994Y-3689004D01*
G01X2401224Y-3688080D01*
G01X2398761Y-3687464D01*
G01X2394143Y-3687156D01*
G01X2388909Y-3687464D01*
G01X2385830Y-3688080D01*
G01X2382443Y-3689004D01*
G01X2379672Y-3690235D01*
G01X2377517Y-3691467D01*
G01X2375670Y-3692698D01*
G01X2374130Y-3693930D01*
G01X2371051Y-3697008D01*
G01X2368589Y-3700087D01*
G01X2367049Y-3702242D01*
G01X2365817Y-3704705D01*
G01X2364894Y-3707476D01*
G01X2363970Y-3710555D01*
G01X2363354Y-3717328D01*
G01X2322198Y-3717328D01*
G01X2322407Y-3711479D01*
G01X2323023Y-3707168D01*
G01X2323638Y-3704090D01*
G01X2324254Y-3700703D01*
G01X2325177Y-3697008D01*
G01X2326409Y-3693930D01*
G01X2327641Y-3690543D01*
G01X2331643Y-3682538D01*
G01X2333183Y-3680075D01*
G01X2334414Y-3678228D01*
G01X2335646Y-3676688D01*
G01X2337185Y-3674533D01*
G01X2339032Y-3672378D01*
G01X2340571Y-3670839D01*
G01X2343034Y-3667760D01*
G01X2346729Y-3664681D01*
G01X2348269Y-3663142D01*
G01X2353194Y-3659447D01*
G01X2355042Y-3658216D01*
G01X2357197Y-3656984D01*
G01X2359044Y-3655753D01*
G01X2360891Y-3654829D01*
G01X2363047Y-3653905D01*
G01X2365510Y-3652674D01*
G01X2368896Y-3651442D01*
G01X2375362Y-3649287D01*
G01X2382135Y-3648056D01*
G01X2388293Y-3647440D01*
G01X2392911Y-3647132D01*
G01X2397529Y-3647440D01*
G01X2400300Y-3647748D01*
G01X2403687Y-3648056D01*
G01X2407381Y-3648671D01*
G01X2411691Y-3649595D01*
G01X2415694Y-3650827D01*
G01X2419389Y-3652058D01*
G01X2422159Y-3653290D01*
G01X2427701Y-3656061D01*
G01X2430780Y-3657908D01*
G01X2433859Y-3660063D01*
G01X2436322Y-3661910D01*
G01X2439401Y-3664373D01*
G01X2447713Y-3672686D01*
G01X2451408Y-3677612D01*
G01X2453255Y-3680383D01*
G01X2454794Y-3682846D01*
G01X2456334Y-3685617D01*
G01X2458797Y-3690543D01*
G01X2460029Y-3693930D01*
G01X2461260Y-3697624D01*
G01X2462184Y-3701011D01*
G01X2462799Y-3703474D01*
G01X2463415Y-3707784D01*
G01X2464031Y-3715173D01*
G01X2464339Y-3717328D01*
G01X2464031Y-3719484D01*
G01X2463723Y-3722870D01*
G01X2463415Y-3727488D01*
G01X2462799Y-3731799D01*
G01X2461876Y-3736109D01*
G01X2460644Y-3740111D01*
G01X2459413Y-3743806D01*
G01X2458181Y-3746577D01*
G01X2457257Y-3748732D01*
G01X2456026Y-3751503D01*
G01X2452947Y-3756429D01*
G01X2450792Y-3759508D01*
G01X2448945Y-3761971D01*
G01X2446482Y-3765050D01*
G01X2438785Y-3772747D01*
G01X2433859Y-3776441D01*
G01X2431704Y-3777981D01*
G01X2426777Y-3781059D01*
G01X2424314Y-3782291D01*
G01X2420004Y-3784138D01*
G01X2417541Y-3785062D01*
G01X2414154Y-3786293D01*
G01X2411076Y-3787217D01*
G01X2404918Y-3788448D01*
G01X2399376Y-3789064D01*
G01X2392911Y-3789372D01*
G37*
G36*
G01X2207568Y-3785678D02*
G01X2207568Y-3740111D01*
G01X2207876Y-3693622D01*
G01X2208184Y-3691467D01*
G01X2208491Y-3688696D01*
G01X2209107Y-3685617D01*
G01X2210339Y-3680691D01*
G01X2211263Y-3677920D01*
G01X2212494Y-3674841D01*
G01X2214033Y-3671455D01*
G01X2215573Y-3668991D01*
G01X2216496Y-3667144D01*
G01X2217728Y-3665605D01*
G01X2220807Y-3661910D01*
G01X2222346Y-3660371D01*
G01X2225425Y-3657908D01*
G01X2227580Y-3656061D01*
G01X2229735Y-3654521D01*
G01X2231890Y-3653290D01*
G01X2234353Y-3652058D01*
G01X2237124Y-3650827D01*
G01X2240819Y-3649595D01*
G01X2244206Y-3648671D01*
G01X2246669Y-3648056D01*
G01X2252210Y-3647440D01*
G01X2257444Y-3647132D01*
G01X2262678Y-3647440D01*
G01X2267604Y-3648056D01*
G01X2270991Y-3648671D01*
G01X2274686Y-3649595D01*
G01X2277456Y-3650519D01*
G01X2279919Y-3651442D01*
G01X2282383Y-3652674D01*
G01X2285153Y-3654213D01*
G01X2287616Y-3655753D01*
G01X2289464Y-3657292D01*
G01X2294082Y-3661910D01*
G01X2295929Y-3664065D01*
G01X2297469Y-3666221D01*
G01X2298700Y-3668376D01*
G01X2299931Y-3670839D01*
G01X2301163Y-3673610D01*
G01X2303318Y-3680075D01*
G01X2304550Y-3685617D01*
G01X2305166Y-3691159D01*
G01X2305473Y-3738880D01*
G01X2305473Y-3785678D01*
G01X2265449Y-3785678D01*
G01X2265449Y-3742267D01*
G01X2265141Y-3697316D01*
G01X2264526Y-3694238D01*
G01X2263602Y-3691159D01*
G01X2262063Y-3689004D01*
G01X2260215Y-3687772D01*
G01X2256521Y-3687156D01*
G01X2252210Y-3688080D01*
G01X2250055Y-3689927D01*
G01X2248824Y-3692082D01*
G01X2248208Y-3694853D01*
G01X2247900Y-3697316D01*
G01X2247592Y-3741959D01*
G01X2247592Y-3785678D01*
G01X2207568Y-3785678D01*
G37*
G36*
G01X2688783Y-3785678D02*
G01X2667847Y-3785370D01*
G01X2665076Y-3784754D01*
G01X2660766Y-3783830D01*
G01X2657994Y-3782907D01*
G01X2655839Y-3782291D01*
G01X2653684Y-3781367D01*
G01X2651221Y-3780136D01*
G01X2648450Y-3778596D01*
G01X2645987Y-3777057D01*
G01X2644140Y-3775518D01*
G01X2640446Y-3771823D01*
G01X2638598Y-3769360D01*
G01X2637059Y-3766897D01*
G01X2635519Y-3763818D01*
G01X2634288Y-3761047D01*
G01X2633364Y-3757968D01*
G01X2632749Y-3755198D01*
G01X2632133Y-3750887D01*
G01X2631825Y-3719176D01*
G01X2632133Y-3686233D01*
G01X2632749Y-3681922D01*
G01X2633672Y-3677612D01*
G01X2634904Y-3673918D01*
G01X2637367Y-3668991D01*
G01X2639214Y-3665913D01*
G01X2641061Y-3663450D01*
G01X2644140Y-3660371D01*
G01X2646295Y-3658524D01*
G01X2648450Y-3656984D01*
G01X2650606Y-3655753D01*
G01X2653376Y-3654521D01*
G01X2656455Y-3653290D01*
G01X2659226Y-3652366D01*
G01X2665384Y-3651135D01*
G01X2687859Y-3650827D01*
G01X2709410Y-3650827D01*
G01X2709410Y-3668684D01*
G01X2709103Y-3688080D01*
G01X2708794Y-3689619D01*
G01X2695248Y-3689619D01*
G01X2679546Y-3689927D01*
G01X2676467Y-3690851D01*
G01X2674620Y-3692082D01*
G01X2673389Y-3694238D01*
G01X2673389Y-3697316D01*
G01X2674312Y-3700087D01*
G01X2676159Y-3701935D01*
G01X2678314Y-3702858D01*
G01X2693093Y-3703166D01*
G01X2706947Y-3703166D01*
G01X2706947Y-3733338D01*
G01X2692169Y-3733338D01*
G01X2675236Y-3733954D01*
G01X2672465Y-3735185D01*
G01X2671233Y-3736725D01*
G01X2670617Y-3739188D01*
G01X2670926Y-3742267D01*
G01X2671849Y-3744730D01*
G01X2673389Y-3746269D01*
G01X2675544Y-3746885D01*
G01X2677699Y-3747193D01*
G01X2694016Y-3747501D01*
G01X2709410Y-3747501D01*
G01X2709410Y-3785678D01*
G01X2688783Y-3785678D01*
G37*
G36*
G01X2563168Y-3789372D02*
G01X2557934Y-3789064D01*
G01X2555779Y-3788448D01*
G01X2553316Y-3787833D01*
G01X2550545Y-3787217D01*
G01X2547774Y-3786293D01*
G01X2545311Y-3785370D01*
G01X2543771Y-3785062D01*
G01X2543771Y-3765665D01*
G01X2544079Y-3746269D01*
G01X2547774Y-3748116D01*
G01X2550237Y-3749040D01*
G01X2553008Y-3749348D01*
G01X2557010Y-3749040D01*
G01X2560089Y-3748116D01*
G01X2561936Y-3747193D01*
G01X2563476Y-3745961D01*
G01X2565015Y-3743498D01*
G01X2565939Y-3740419D01*
G01X2565631Y-3736725D01*
G01X2564707Y-3733646D01*
G01X2561936Y-3728104D01*
G01X2560397Y-3725641D01*
G01X2557934Y-3720715D01*
G01X2556703Y-3717944D01*
G01X2554239Y-3711171D01*
G01X2553316Y-3708400D01*
G01X2552084Y-3702242D01*
G01X2551776Y-3695469D01*
G01X2552084Y-3688080D01*
G01X2552700Y-3684385D01*
G01X2553624Y-3680383D01*
G01X2554855Y-3676996D01*
G01X2557318Y-3672070D01*
G01X2558857Y-3669299D01*
G01X2560089Y-3667144D01*
G01X2561321Y-3665605D01*
G01X2565015Y-3661295D01*
G01X2566554Y-3659755D01*
G01X2569633Y-3657292D01*
G01X2571789Y-3655445D01*
G01X2573944Y-3653905D01*
G01X2576099Y-3652674D01*
G01X2578562Y-3651442D01*
G01X2581333Y-3650211D01*
G01X2585335Y-3648979D01*
G01X2588414Y-3648056D01*
G01X2592724Y-3647440D01*
G01X2597034Y-3647132D01*
G01X2601345Y-3647440D01*
G01X2607810Y-3648364D01*
G01X2612736Y-3649595D01*
G01X2613660Y-3654367D01*
G01X2613968Y-3668684D01*
G01X2613352Y-3687772D01*
G01X2611813Y-3687464D01*
G01X2609042Y-3687156D01*
G01X2605039Y-3687464D01*
G01X2601653Y-3688696D01*
G01X2599497Y-3690235D01*
G01X2597958Y-3692082D01*
G01X2596727Y-3694545D01*
G01X2596111Y-3697008D01*
G01X2596419Y-3699779D01*
G01X2597034Y-3702242D01*
G01X2597958Y-3705013D01*
G01X2599497Y-3708092D01*
G01X2601037Y-3710863D01*
G01X2603500Y-3715173D01*
G01X2605963Y-3720099D01*
G01X2607194Y-3722870D01*
G01X2609042Y-3728412D01*
G01X2609966Y-3731491D01*
G01X2610581Y-3734262D01*
G01X2610889Y-3740419D01*
G01X2610581Y-3748424D01*
G01X2609657Y-3753350D01*
G01X2608734Y-3756429D01*
G01X2608118Y-3758584D01*
G01X2607194Y-3760739D01*
G01X2604424Y-3766281D01*
G01X2601345Y-3770591D01*
G01X2599497Y-3772747D01*
G01X2593340Y-3778904D01*
G01X2591801Y-3780136D01*
G01X2588106Y-3782599D01*
G01X2585951Y-3783830D01*
G01X2583488Y-3785062D01*
G01X2580717Y-3786293D01*
G01X2576714Y-3787525D01*
G01X2573636Y-3788448D01*
G01X2568710Y-3789064D01*
G01X2563168Y-3789372D01*
G37*
G36*
G01X2483427Y-3785678D02*
G01X2483427Y-3650827D01*
G01X2523451Y-3650827D01*
G01X2523451Y-3785678D01*
G01X2483427Y-3785678D01*
G37*
G36*
G01X2268220Y-4019665D02*
G01X2262370Y-4019358D01*
G01X2258984Y-4018742D01*
G01X2255289Y-4018126D01*
G01X2252210Y-4017510D01*
G01X2248824Y-4016587D01*
G01X2245745Y-4015355D01*
G01X2242358Y-4014124D01*
G01X2239279Y-4012584D01*
G01X2236201Y-4010737D01*
G01X2233430Y-4008890D01*
G01X2230967Y-4007350D01*
G01X2229119Y-4005811D01*
G01X2226041Y-4003348D01*
G01X2221423Y-3998730D01*
G01X2218959Y-3995651D01*
G01X2217420Y-3994111D01*
G01X2215881Y-3991956D01*
G01X2214033Y-3989185D01*
G01X2212494Y-3987030D01*
G01X2211263Y-3984875D01*
G01X2208799Y-3979949D01*
G01X2207568Y-3976870D01*
G01X2206336Y-3973484D01*
G01X2205105Y-3969789D01*
G01X2204181Y-3966402D01*
G01X2203566Y-3963939D01*
G01X2202950Y-3959629D01*
G01X2202334Y-3952240D01*
G01X2202026Y-3948853D01*
G01X2202642Y-3942080D01*
G01X2202950Y-3938078D01*
G01X2203566Y-3934383D01*
G01X2204181Y-3931304D01*
G01X2204797Y-3928533D01*
G01X2205721Y-3924839D01*
G01X2206952Y-3921144D01*
G01X2208184Y-3918373D01*
G01X2209107Y-3916218D01*
G01X2210339Y-3913447D01*
G01X2212186Y-3910368D01*
G01X2213726Y-3907905D01*
G01X2214957Y-3906058D01*
G01X2218651Y-3901132D01*
G01X2226964Y-3892819D01*
G01X2229427Y-3890972D01*
G01X2230967Y-3889741D01*
G01X2233122Y-3888201D01*
G01X2236201Y-3886354D01*
G01X2238664Y-3884815D01*
G01X2242974Y-3882967D01*
G01X2245745Y-3881736D01*
G01X2252210Y-3879581D01*
G01X2258984Y-3878349D01*
G01X2265141Y-3877733D01*
G01X2268528Y-3877425D01*
G01X2273762Y-3877733D01*
G01X2278688Y-3878349D01*
G01X2281767Y-3878965D01*
G01X2285153Y-3879581D01*
G01X2288848Y-3880504D01*
G01X2291619Y-3881428D01*
G01X2293158Y-3881736D01*
G01X2293158Y-3900824D01*
G01X2292850Y-3920836D01*
G01X2292389Y-3921375D01*
G01X2291619Y-3921144D01*
G01X2289464Y-3920221D01*
G01X2287001Y-3919297D01*
G01X2283922Y-3918373D01*
G01X2281151Y-3917758D01*
G01X2275917Y-3917450D01*
G01X2270067Y-3917758D01*
G01X2266989Y-3918373D01*
G01X2263602Y-3919297D01*
G01X2260215Y-3920528D01*
G01X2257444Y-3922068D01*
G01X2254981Y-3923607D01*
G01X2253134Y-3925147D01*
G01X2251594Y-3926686D01*
G01X2249131Y-3929765D01*
G01X2247592Y-3931920D01*
G01X2246361Y-3934383D01*
G01X2245129Y-3937154D01*
G01X2244206Y-3939925D01*
G01X2243590Y-3944235D01*
G01X2243282Y-3947622D01*
G01X2243590Y-3952856D01*
G01X2244206Y-3956550D01*
G01X2244513Y-3958705D01*
G01X2245129Y-3961168D01*
G01X2246361Y-3963939D01*
G01X2247900Y-3967018D01*
G01X2249439Y-3969173D01*
G01X2250671Y-3970713D01*
G01X2254673Y-3974715D01*
G01X2256213Y-3975947D01*
G01X2258368Y-3977178D01*
G01X2261139Y-3978410D01*
G01X2264217Y-3979333D01*
G01X2266989Y-3979949D01*
G01X2273146Y-3980257D01*
G01X2279611Y-3979641D01*
G01X2281767Y-3978718D01*
G01X2282998Y-3977178D01*
G01X2282998Y-3974407D01*
G01X2282383Y-3973022D01*
G01X2281151Y-3971944D01*
G01X2278534Y-3971251D01*
G01X2273762Y-3971021D01*
G01X2267912Y-3971021D01*
G01X2267912Y-3940233D01*
G01X2286693Y-3940233D01*
G01X2301009Y-3940464D01*
G01X2306397Y-3941156D01*
G01X2307936Y-3943004D01*
G01X2309476Y-3945159D01*
G01X2312554Y-3950085D01*
G01X2313786Y-3952548D01*
G01X2314710Y-3954703D01*
G01X2315633Y-3957166D01*
G01X2316557Y-3959937D01*
G01X2317481Y-3963324D01*
G01X2318096Y-3966402D01*
G01X2318404Y-3971328D01*
G01X2318096Y-3977486D01*
G01X2317481Y-3981796D01*
G01X2316557Y-3985799D01*
G01X2315326Y-3989185D01*
G01X2314094Y-3992264D01*
G01X2312554Y-3995035D01*
G01X2310707Y-3997806D01*
G01X2309168Y-3999961D01*
G01X2305473Y-4004579D01*
G01X2303934Y-4006119D01*
G01X2302394Y-4007350D01*
G01X2300239Y-4009198D01*
G01X2297161Y-4011353D01*
G01X2294697Y-4012892D01*
G01X2289771Y-4015355D01*
G01X2287309Y-4016279D01*
G01X2284537Y-4017202D01*
G01X2281459Y-4018126D01*
G01X2278688Y-4018742D01*
G01X2274377Y-4019358D01*
G01X2268220Y-4019665D01*
G37*
G36*
G01X2389216Y-4015971D02*
G01X2368589Y-4015663D01*
G01X2365817Y-4015047D01*
G01X2361199Y-4014124D01*
G01X2357197Y-4012892D01*
G01X2353810Y-4011661D01*
G01X2350731Y-4010121D01*
G01X2348269Y-4008582D01*
G01X2343343Y-4004887D01*
G01X2341187Y-4002732D01*
G01X2339340Y-4000269D01*
G01X2336261Y-3995343D01*
G01X2335337Y-3992880D01*
G01X2334414Y-3990109D01*
G01X2333490Y-3987030D01*
G01X2332874Y-3984259D01*
G01X2332259Y-3977486D01*
G01X2331951Y-3948853D01*
G01X2332259Y-3920221D01*
G01X2332567Y-3917758D01*
G01X2332874Y-3913447D01*
G01X2333798Y-3908829D01*
G01X2335646Y-3903287D01*
G01X2336877Y-3900516D01*
G01X2338416Y-3898053D01*
G01X2341495Y-3893743D01*
G01X2343343Y-3891588D01*
G01X2346421Y-3889125D01*
G01X2348576Y-3887585D01*
G01X2351347Y-3886046D01*
G01X2353810Y-3884815D01*
G01X2356273Y-3883891D01*
G01X2359044Y-3882967D01*
G01X2362739Y-3882044D01*
G01X2366126Y-3881428D01*
G01X2388293Y-3881120D01*
G01X2409536Y-3881120D01*
G01X2409536Y-3919913D01*
G01X2394758Y-3919913D01*
G01X2378133Y-3920528D01*
G01X2375054Y-3922376D01*
G01X2374130Y-3923915D01*
G01X2373823Y-3926070D01*
G01X2374438Y-3930073D01*
G01X2376286Y-3932228D01*
G01X2378441Y-3933151D01*
G01X2393219Y-3933459D01*
G01X2407073Y-3933459D01*
G01X2407073Y-3963631D01*
G01X2393834Y-3963631D01*
G01X2377825Y-3963939D01*
G01X2373514Y-3965171D01*
G01X2372206Y-3966325D01*
G01X2371359Y-3967942D01*
G01X2371051Y-3970713D01*
G01X2371359Y-3973176D01*
G01X2371744Y-3974638D01*
G01X2372899Y-3975947D01*
G01X2375670Y-3977178D01*
G01X2377825Y-3977486D01*
G01X2394143Y-3977794D01*
G01X2409536Y-3977794D01*
G01X2409536Y-4015971D01*
G01X2389216Y-4015971D01*
G37*
G36*
G01X2650297Y-4015971D02*
G01X2650297Y-3881120D01*
G01X2679546Y-3881120D01*
G01X2710334Y-3881428D01*
G01X2717723Y-3882659D01*
G01X2721417Y-3883583D01*
G01X2725112Y-3884815D01*
G01X2728191Y-3886046D01*
G01X2731270Y-3887585D01*
G01X2733733Y-3889125D01*
G01X2735580Y-3890356D01*
G01X2738659Y-3892819D01*
G01X2743277Y-3897438D01*
G01X2744509Y-3898977D01*
G01X2746048Y-3901132D01*
G01X2747587Y-3903595D01*
G01X2748819Y-3906058D01*
G01X2750050Y-3908829D01*
G01X2751282Y-3912216D01*
G01X2752206Y-3915295D01*
G01X2752821Y-3919605D01*
G01X2753129Y-3924223D01*
G01X2752821Y-3930073D01*
G01X2752206Y-3933767D01*
G01X2750974Y-3938693D01*
G01X2750050Y-3941156D01*
G01X2747587Y-3946082D01*
G01X2746048Y-3948545D01*
G01X2744509Y-3950701D01*
G01X2742661Y-3952856D01*
G01X2740814Y-3955319D01*
G01X2739274Y-3956858D01*
G01X2736196Y-3959321D01*
G01X2735580Y-3960091D01*
G01X2735580Y-3961168D01*
G01X2736504Y-3963631D01*
G01X2737735Y-3966402D01*
G01X2740198Y-3972560D01*
G01X2741430Y-3975331D01*
G01X2742353Y-3977794D01*
G01X2743277Y-3979949D01*
G01X2744509Y-3982720D01*
G01X2745740Y-3985799D01*
G01X2746971Y-3988570D01*
G01X2749434Y-3994727D01*
G01X2750666Y-3997498D01*
G01X2751590Y-3999961D01*
G01X2752513Y-4002116D01*
G01X2753745Y-4004887D01*
G01X2754976Y-4007966D01*
G01X2755900Y-4010429D01*
G01X2757747Y-4014739D01*
G01X2758055Y-4015971D01*
G01X2737427Y-4015971D01*
G01X2721726Y-4015740D01*
G01X2715876Y-4015047D01*
G01X2714644Y-4012892D01*
G01X2713721Y-4010737D01*
G01X2712489Y-4008274D01*
G01X2711257Y-4005195D01*
G01X2710026Y-4002732D01*
G01X2707563Y-3997190D01*
G01X2705716Y-3992880D01*
G01X2704484Y-3990417D01*
G01X2703253Y-3987338D01*
G01X2702021Y-3984875D01*
G01X2697095Y-3973791D01*
G01X2696479Y-3955319D01*
G01X2696479Y-3937770D01*
G01X2699558Y-3937770D01*
G01X2704792Y-3937154D01*
G01X2708487Y-3935615D01*
G01X2710642Y-3933767D01*
G01X2711873Y-3931920D01*
G01X2712489Y-3929457D01*
G01X2712181Y-3925147D01*
G01X2711719Y-3922915D01*
G01X2710950Y-3921760D01*
G01X2709410Y-3920221D01*
G01X2707255Y-3918681D01*
G01X2704792Y-3917758D01*
G01X2697403Y-3917450D01*
G01X2690937Y-3917450D01*
G01X2690937Y-4015971D01*
G01X2650297Y-4015971D01*
G37*
G36*
G01X2429856Y-4015971D02*
G01X2429856Y-3972560D01*
G01X2430164Y-3928225D01*
G01X2430472Y-3924531D01*
G01X2430780Y-3920221D01*
G01X2432011Y-3914063D01*
G01X2432935Y-3910368D01*
G01X2434167Y-3906674D01*
G01X2436630Y-3901748D01*
G01X2438169Y-3898977D01*
G01X2439709Y-3896514D01*
G01X2441248Y-3894667D01*
G01X2443095Y-3892511D01*
G01X2444943Y-3890664D01*
G01X2446482Y-3889433D01*
G01X2448021Y-3887893D01*
G01X2449561Y-3886662D01*
G01X2453255Y-3884199D01*
G01X2455410Y-3882967D01*
G01X2458181Y-3881736D01*
G01X2463107Y-3879888D01*
G01X2466494Y-3878965D01*
G01X2469573Y-3878349D01*
G01X2474499Y-3877733D01*
G01X2479733Y-3877425D01*
G01X2484967Y-3877733D01*
G01X2487122Y-3878041D01*
G01X2489893Y-3878349D01*
G01X2492971Y-3878965D01*
G01X2497897Y-3880196D01*
G01X2500976Y-3881120D01*
G01X2505903Y-3883583D01*
G01X2508673Y-3885122D01*
G01X2510829Y-3886662D01*
G01X2513907Y-3889125D01*
G01X2515447Y-3890664D01*
G01X2517910Y-3893743D01*
G01X2519449Y-3895898D01*
G01X2520989Y-3898361D01*
G01X2522220Y-3900516D01*
G01X2523451Y-3903287D01*
G01X2525607Y-3909753D01*
G01X2526838Y-3915295D01*
G01X2527454Y-3920221D01*
G01X2527762Y-3968558D01*
G01X2527762Y-4015971D01*
G01X2487737Y-4015971D01*
G01X2487737Y-3971328D01*
G01X2487122Y-3924531D01*
G01X2485583Y-3920836D01*
G01X2483119Y-3918373D01*
G01X2478809Y-3917450D01*
G01X2474499Y-3918373D01*
G01X2472344Y-3920528D01*
G01X2471112Y-3922991D01*
G01X2470496Y-3970097D01*
G01X2470496Y-4015971D01*
G01X2429856Y-4015971D01*
G37*
G36*
G01X2606887Y-4015971D02*
G01X2585951Y-4015663D01*
G01X2583180Y-4015047D01*
G01X2578562Y-4014124D01*
G01X2574559Y-4012892D01*
G01X2571789Y-4011661D01*
G01X2565015Y-4008274D01*
G01X2563476Y-4007042D01*
G01X2557318Y-4000885D01*
G01X2554239Y-3995959D01*
G01X2553008Y-3993188D01*
G01X2550853Y-3986722D01*
G01X2550237Y-3982412D01*
G01X2549929Y-3949469D01*
G01X2550237Y-3915295D01*
G01X2550853Y-3911600D01*
G01X2552084Y-3906674D01*
G01X2553008Y-3903903D01*
G01X2554239Y-3901132D01*
G01X2555779Y-3898361D01*
G01X2557626Y-3895590D01*
G01X2559473Y-3893435D01*
G01X2563168Y-3889741D01*
G01X2566247Y-3887585D01*
G01X2568710Y-3886046D01*
G01X2571173Y-3884815D01*
G01X2574559Y-3883583D01*
G01X2577330Y-3882659D01*
G01X2583488Y-3881428D01*
G01X2605963Y-3881120D01*
G01X2627514Y-3881120D01*
G01X2627514Y-3898977D01*
G01X2627207Y-3918373D01*
G01X2626899Y-3919913D01*
G01X2612429Y-3919913D01*
G01X2596111Y-3920528D01*
G01X2593340Y-3921760D01*
G01X2591801Y-3923299D01*
G01X2591185Y-3926070D01*
G01X2591801Y-3929457D01*
G01X2593340Y-3931612D01*
G01X2595495Y-3932844D01*
G01X2610581Y-3933459D01*
G01X2624436Y-3933459D01*
G01X2624436Y-3963631D01*
G01X2609966Y-3963631D01*
G01X2593340Y-3964247D01*
G01X2589953Y-3966095D01*
G01X2589030Y-3967788D01*
G01X2588722Y-3970405D01*
G01X2589646Y-3975023D01*
G01X2590800Y-3976255D01*
G01X2592416Y-3976870D01*
G01X2595187Y-3977486D01*
G01X2611813Y-3977794D01*
G01X2627514Y-3977794D01*
G01X2627514Y-4015971D01*
G01X2606887Y-4015971D01*
G37*
G36*
G01X2910763Y-4015971D02*
G01X2910763Y-3919913D01*
G01X2879975Y-3919913D01*
G01X2879975Y-3881120D01*
G01X2981575Y-3881120D01*
G01X2981575Y-3919913D01*
G01X2951403Y-3919913D01*
G01X2951403Y-4015971D01*
G01X2910763Y-4015971D01*
G37*
G36*
G01X2769139Y-4015971D02*
G01X2769139Y-3972252D01*
G01X2769447Y-3925762D01*
G01X2770063Y-3920221D01*
G01X2770678Y-3916526D01*
G01X2771294Y-3913755D01*
G01X2772217Y-3910061D01*
G01X2773449Y-3906674D01*
G01X2774681Y-3903595D01*
G01X2775912Y-3901132D01*
G01X2777451Y-3898669D01*
G01X2779299Y-3895898D01*
G01X2780838Y-3893743D01*
G01X2786072Y-3888509D01*
G01X2788535Y-3886662D01*
G01X2790074Y-3885430D01*
G01X2792230Y-3884199D01*
G01X2797156Y-3881736D01*
G01X2800543Y-3880504D01*
G01X2803313Y-3879581D01*
G01X2808855Y-3878349D01*
G01X2814397Y-3877733D01*
G01X2820247Y-3877425D01*
G01X2826096Y-3877733D01*
G01X2831023Y-3878349D01*
G01X2834409Y-3878965D01*
G01X2838719Y-3879888D01*
G01X2842414Y-3881120D01*
G01X2845185Y-3882351D01*
G01X2847648Y-3883583D01*
G01X2850727Y-3885430D01*
G01X2853190Y-3887278D01*
G01X2857808Y-3891896D01*
G01X2859347Y-3894051D01*
G01X2860887Y-3896514D01*
G01X2862118Y-3898669D01*
G01X2863350Y-3901440D01*
G01X2865505Y-3907905D01*
G01X2866736Y-3914063D01*
G01X2867352Y-3918989D01*
G01X2867660Y-3967942D01*
G01X2867660Y-4015971D01*
G01X2827636Y-4015971D01*
G01X2827636Y-3973176D01*
G01X2827328Y-3927610D01*
G01X2826712Y-3923915D01*
G01X2826096Y-3921452D01*
G01X2824865Y-3919297D01*
G01X2823017Y-3918065D01*
G01X2819323Y-3917450D01*
G01X2815321Y-3918065D01*
G01X2813166Y-3919297D01*
G01X2811626Y-3921144D01*
G01X2810394Y-3923607D01*
G01X2809779Y-3926686D01*
G01X2809471Y-3929457D01*
G01X2809163Y-3939309D01*
G01X2809163Y-3948238D01*
G01X2820863Y-3948238D01*
G01X2820863Y-3983951D01*
G01X2809163Y-3983951D01*
G01X2809163Y-4015971D01*
G01X2769139Y-4015971D01*
G37*
G36*
G01X3059469Y-4019665D02*
G01X3053003Y-4019358D01*
G01X3049616Y-4018742D01*
G01X3045922Y-4018126D01*
G01X3043459Y-4017510D01*
G01X3040688Y-4016895D01*
G01X3037301Y-4015971D01*
G01X3033914Y-4014739D01*
G01X3031144Y-4013508D01*
G01X3028989Y-4012584D01*
G01X3026217Y-4011353D01*
G01X3021291Y-4008274D01*
G01X3019136Y-4006735D01*
G01X3017597Y-4005811D01*
G01X3016057Y-4004579D01*
G01X3012363Y-4001501D01*
G01X3005590Y-3994727D01*
G01X3001895Y-3989801D01*
G01X2999740Y-3986722D01*
G01X2997893Y-3983951D01*
G01X2996353Y-3981181D01*
G01X2995122Y-3978718D01*
G01X2994198Y-3976562D01*
G01X2993274Y-3974099D01*
G01X2992043Y-3971021D01*
G01X2991119Y-3968250D01*
G01X2989888Y-3962708D01*
G01X2989272Y-3958398D01*
G01X2988964Y-3950393D01*
G01X2989067Y-3947314D01*
G01X3030220Y-3947314D01*
G01X3030528Y-3954703D01*
G01X3031451Y-3958398D01*
G01X3032683Y-3961476D01*
G01X3033914Y-3963939D01*
G01X3035146Y-3966095D01*
G01X3036377Y-3967942D01*
G01X3037917Y-3969789D01*
G01X3041611Y-3973484D01*
G01X3046230Y-3976562D01*
G01X3048693Y-3977794D01*
G01X3051464Y-3978718D01*
G01X3053927Y-3979025D01*
G01X3053927Y-3979025D01*
G01X3055774Y-3979333D01*
G01X3058237Y-3979641D01*
G01X3063163Y-3979333D01*
G01X3068089Y-3978410D01*
G01X3071784Y-3977178D01*
G01X3076094Y-3974715D01*
G01X3078249Y-3973176D01*
G01X3082251Y-3969173D01*
G01X3084099Y-3967018D01*
G01X3085638Y-3964863D01*
G01X3086870Y-3962708D01*
G01X3088101Y-3959321D01*
G01X3089025Y-3956550D01*
G01X3089333Y-3954087D01*
G01X3089641Y-3951008D01*
G01X3089641Y-3948545D01*
G01X3089025Y-3942388D01*
G01X3088409Y-3939617D01*
G01X3087486Y-3936846D01*
G01X3085023Y-3931920D01*
G01X3083791Y-3930073D01*
G01X3081328Y-3926994D01*
G01X3078249Y-3923915D01*
G01X3076402Y-3922376D01*
G01X3072091Y-3919913D01*
G01X3068705Y-3918681D01*
G01X3065626Y-3917758D01*
G01X3061624Y-3917450D01*
G01X3055774Y-3917758D01*
G01X3051156Y-3918681D01*
G01X3047769Y-3919913D01*
G01X3045614Y-3921144D01*
G01X3043767Y-3922068D01*
G01X3041919Y-3923299D01*
G01X3039764Y-3925455D01*
G01X3037609Y-3927302D01*
G01X3035146Y-3930381D01*
G01X3033914Y-3932536D01*
G01X3032683Y-3934999D01*
G01X3031759Y-3937462D01*
G01X3030836Y-3940233D01*
G01X3030220Y-3947314D01*
G01X2989067Y-3947314D01*
G01X2989272Y-3941156D01*
G01X2989888Y-3936846D01*
G01X2990504Y-3933767D01*
G01X2991119Y-3930996D01*
G01X2992043Y-3927302D01*
G01X2993274Y-3923607D01*
G01X2994506Y-3920528D01*
G01X2995737Y-3917758D01*
G01X2997277Y-3914679D01*
G01X2999124Y-3911600D01*
G01X3000971Y-3908829D01*
G01X3002511Y-3906674D01*
G01X3003743Y-3905135D01*
G01X3005590Y-3902979D01*
G01X3007437Y-3900516D01*
G01X3010516Y-3897438D01*
G01X3013594Y-3894975D01*
G01X3015750Y-3892819D01*
G01X3018213Y-3890972D01*
G01X3020368Y-3889433D01*
G01X3025294Y-3886354D01*
G01X3028065Y-3884815D01*
G01X3030836Y-3883583D01*
G01X3033914Y-3882351D01*
G01X3037609Y-3881120D01*
G01X3041611Y-3879888D01*
G01X3044690Y-3878965D01*
G01X3049001Y-3878349D01*
G01X3055158Y-3877733D01*
G01X3059776Y-3877425D01*
G01X3064394Y-3877733D01*
G01X3070552Y-3878349D01*
G01X3072707Y-3878657D01*
G01X3076094Y-3879273D01*
G01X3079173Y-3880196D01*
G01X3081636Y-3880812D01*
G01X3084407Y-3881736D01*
G01X3087486Y-3882967D01*
G01X3090256Y-3884199D01*
G01X3092719Y-3885430D01*
G01X3095490Y-3886970D01*
G01X3097953Y-3888509D01*
G01X3099801Y-3889741D01*
G01X3102879Y-3892204D01*
G01X3104727Y-3893435D01*
G01X3106574Y-3894975D01*
G01X3113347Y-3901748D01*
G01X3115810Y-3904827D01*
G01X3117657Y-3907290D01*
G01X3119197Y-3909445D01*
G01X3122276Y-3914371D01*
G01X3123815Y-3917142D01*
G01X3125047Y-3919913D01*
G01X3126278Y-3922991D01*
G01X3127510Y-3926378D01*
G01X3128433Y-3928841D01*
G01X3129665Y-3934383D01*
G01X3130281Y-3938693D01*
G01X3130589Y-3946698D01*
G01X3130281Y-3956550D01*
G01X3129665Y-3960861D01*
G01X3129049Y-3963939D01*
G01X3128433Y-3966402D01*
G01X3127817Y-3969173D01*
G01X3126894Y-3972252D01*
G01X3125663Y-3975331D01*
G01X3124431Y-3978102D01*
G01X3121660Y-3983644D01*
G01X3119813Y-3986722D01*
G01X3118273Y-3988878D01*
G01X3117350Y-3990417D01*
G01X3116118Y-3991956D01*
G01X3112424Y-3996267D01*
G01X3106266Y-4002424D01*
G01X3101648Y-4006119D01*
G01X3099493Y-4007658D01*
G01X3094567Y-4010737D01*
G01X3089025Y-4013508D01*
G01X3086254Y-4014739D01*
G01X3082559Y-4015971D01*
G01X3078557Y-4017202D01*
G01X3075478Y-4018126D01*
G01X3071168Y-4018742D01*
G01X3065626Y-4019358D01*
G01X3059469Y-4019665D01*
G37*
G36*
G01X3149677Y-4015971D02*
G01X3149677Y-3881120D01*
G01X3178310Y-3881120D01*
G01X3209713Y-3881428D01*
G01X3214024Y-3882044D01*
G01X3217103Y-3882659D01*
G01X3220797Y-3883583D01*
G01X3224799Y-3884815D01*
G01X3227570Y-3886046D01*
G01X3230033Y-3887278D01*
G01X3232804Y-3888817D01*
G01X3234959Y-3890048D01*
G01X3236499Y-3891280D01*
G01X3243272Y-3898053D01*
G01X3245427Y-3901132D01*
G01X3247274Y-3904211D01*
G01X3248814Y-3906982D01*
G01X3250046Y-3910061D01*
G01X3250969Y-3912831D01*
G01X3252201Y-3918989D01*
G01X3252509Y-3923915D01*
G01X3252201Y-3930688D01*
G01X3251585Y-3934383D01*
G01X3250969Y-3936846D01*
G01X3250046Y-3939617D01*
G01X3249122Y-3942080D01*
G01X3247890Y-3944851D01*
G01X3246351Y-3947314D01*
G01X3245119Y-3949161D01*
G01X3243888Y-3950701D01*
G01X3242964Y-3952240D01*
G01X3241733Y-3953779D01*
G01X3238038Y-3957474D01*
G01X3235575Y-3959321D01*
G01X3235036Y-3960245D01*
G01X3235267Y-3961784D01*
G01X3236499Y-3964863D01*
G01X3237730Y-3967634D01*
G01X3240193Y-3973791D01*
G01X3241425Y-3976562D01*
G01X3242349Y-3979025D01*
G01X3243272Y-3981181D01*
G01X3244504Y-3983951D01*
G01X3245735Y-3987030D01*
G01X3246967Y-3989801D01*
G01X3250661Y-3999038D01*
G01X3251893Y-4001808D01*
G01X3252816Y-4004271D01*
G01X3253740Y-4006427D01*
G01X3254971Y-4009198D01*
G01X3256203Y-4012276D01*
G01X3257127Y-4014739D01*
G01X3257434Y-4015971D01*
G01X3237730Y-4015971D01*
G01X3216487Y-4015663D01*
G01X3215178Y-4014970D01*
G01X3214331Y-4013508D01*
G01X3210637Y-4005195D01*
G01X3208790Y-4000885D01*
G01X3207558Y-3998422D01*
G01X3197706Y-3976255D01*
G01X3196474Y-3973791D01*
G01X3195859Y-3956858D01*
G01X3196167Y-3939309D01*
G01X3197013Y-3938155D01*
G01X3198937Y-3937770D01*
G01X3202324Y-3937462D01*
G01X3205095Y-3936846D01*
G01X3208482Y-3935307D01*
G01X3210945Y-3932536D01*
G01X3211869Y-3928533D01*
G01X3211561Y-3924531D01*
G01X3210329Y-3921760D01*
G01X3208790Y-3919913D01*
G01X3206634Y-3918681D01*
G01X3204171Y-3917758D01*
G01X3196783Y-3917450D01*
G01X3190317Y-3917450D01*
G01X3190317Y-4015971D01*
G01X3149677Y-4015971D01*
G37*
G54D10*
G01X306070Y-2169160D02*
G01X309372Y-2175764D01*
G01X319278Y-2185924D01*
G01X249428Y-2185924D01*
G01X319278Y-2242312D02*
G01X315976Y-2232152D01*
G01X306070Y-2225548D01*
G01X289306Y-2222246D01*
G01X279400Y-2222246D01*
G01X262636Y-2225548D01*
G01X252730Y-2232152D01*
G01X249428Y-2242312D01*
G01X249428Y-2248916D01*
G01X252730Y-2258822D01*
G01X262636Y-2265680D01*
G01X279400Y-2268982D01*
G01X289306Y-2268982D01*
G01X306070Y-2265680D01*
G01X315976Y-2258822D01*
G01X319278Y-2248916D01*
G01X319278Y-2242312D01*
G01X319278Y-2305304D02*
G01X249428Y-2331974D01*
G01X319278Y-2358644D02*
G01X249428Y-2331974D01*
G01X319278Y-2671826D02*
G01X315976Y-2661666D01*
G01X306070Y-2655062D01*
G01X289306Y-2651760D01*
G01X279400Y-2651760D01*
G01X262636Y-2655062D01*
G01X252730Y-2661666D01*
G01X249428Y-2671826D01*
G01X249428Y-2678430D01*
G01X252730Y-2688336D01*
G01X262636Y-2695194D01*
G01X279400Y-2698496D01*
G01X289306Y-2698496D01*
G01X306070Y-2695194D01*
G01X315976Y-2688336D01*
G01X319278Y-2678430D01*
G01X319278Y-2671826D01*
G01X319278Y-2734818D02*
G01X249428Y-2761488D01*
G01X319278Y-2788158D02*
G01X249428Y-2761488D01*
G01X2354326Y-5383022D02*
G01X2347722Y-5386324D01*
G01X2340864Y-5392928D01*
G01X2337562Y-5399532D01*
G01X2334260Y-5409692D01*
G01X2334260Y-5426202D01*
G01X2337562Y-5436362D01*
G01X2340864Y-5442966D01*
G01X2347722Y-5449570D01*
G01X2354326Y-5452872D01*
G01X2367534Y-5452872D01*
G01X2374392Y-5449570D01*
G01X2380996Y-5442966D01*
G01X2384298Y-5436362D01*
G01X2387600Y-5426202D01*
G01X2387600Y-5409692D01*
G01X2384298Y-5399532D01*
G01X2380996Y-5392928D01*
G01X2374392Y-5386324D01*
G01X2367534Y-5383022D01*
G01X2354326Y-5383022D01*
G01X2423922Y-5383022D02*
G01X2423922Y-5432806D01*
G01X2427224Y-5442966D01*
G01X2433828Y-5449570D01*
G01X2443988Y-5452872D01*
G01X2450592Y-5452872D01*
G01X2460498Y-5449570D01*
G01X2467356Y-5442966D01*
G01X2470658Y-5432806D01*
G01X2470658Y-5383022D01*
G01X2530348Y-5383022D02*
G01X2530348Y-5452872D01*
G01X2506980Y-5383022D02*
G01X2553716Y-5383022D01*
G01X2866898Y-5399532D02*
G01X2863596Y-5392928D01*
G01X2856992Y-5386324D01*
G01X2850134Y-5383022D01*
G01X2836926Y-5383022D01*
G01X2830322Y-5386324D01*
G01X2823464Y-5392928D01*
G01X2820162Y-5399532D01*
G01X2816860Y-5409692D01*
G01X2816860Y-5426202D01*
G01X2820162Y-5436362D01*
G01X2823464Y-5442966D01*
G01X2830322Y-5449570D01*
G01X2836926Y-5452872D01*
G01X2850134Y-5452872D01*
G01X2856992Y-5449570D01*
G01X2863596Y-5442966D01*
G01X2866898Y-5436362D01*
G01X2866898Y-5426202D01*
G01X2850134Y-5426202D02*
G01X2866898Y-5426202D01*
G01X2903220Y-5383022D02*
G01X2903220Y-5452872D01*
G01X2903220Y-5383022D02*
G01X2949956Y-5452872D01*
G01X2949956Y-5383022D02*
G01X2949956Y-5452872D01*
G01X2986278Y-5383022D02*
G01X2986278Y-5452872D01*
G01X2986278Y-5383022D02*
G01X3009646Y-5383022D01*
G01X3019552Y-5386324D01*
G01X3026410Y-5392928D01*
G01X3029712Y-5399532D01*
G01X3033014Y-5409692D01*
G01X3033014Y-5426202D01*
G01X3029712Y-5436362D01*
G01X3026410Y-5442966D01*
G01X3019552Y-5449570D01*
G01X3009646Y-5452872D01*
G01X2986278Y-5452872D01*
G04 Text End*

G04 Pad Start*
G54D11*
G01X5181600Y-5219700D03*
G01X711200Y-5207000D03*
G01X711200Y-393700D03*
G01X5181600Y-393700D03*
G54D12*
G01X2095500Y-2275599D03*
G01X2095500Y-975601D03*
G01X1663700Y-2034299D03*
G01X1663700Y-734301D03*
G54D13*
G01X3251200Y-1587500D03*
G01X3251200Y-1333500D03*
G01X3251200Y-1079500D03*
G01X3251200Y-825500D03*
G54D14*
G01X2489200Y-825500D03*
G54D13*
G01X2489200Y-1333500D03*
G01X2489200Y-1587500D03*
G54D14*
G01X2489200Y-1079500D03*
G54D12*
G01X4254500Y-3579101D03*
G01X4254500Y-4879099D03*
G01X3632200Y-759701D03*
G01X3632200Y-2059699D03*
G01X1892300Y-3591801D03*
G01X1892300Y-4891799D03*
G01X4114800Y-2059699D03*
G01X4114800Y-759701D03*
G01X4533900Y-2046999D03*
G01X4533900Y-747001D03*
G54D15*
G01X4457700Y-2463800D03*
G54D16*
G01X4203700Y-2463800D03*
G01X3441700Y-2463800D03*
G01X3187700Y-2463800D03*
G01X3949700Y-2463800D03*
G01X3695700Y-2463800D03*
G01X2933700Y-2463800D03*
G01X2933700Y-3225800D03*
G01X3187700Y-3225800D03*
G01X3441700Y-3225800D03*
G01X3695700Y-3225800D03*
G01X3949700Y-3225800D03*
G01X4203700Y-3225800D03*
G01X4457700Y-3225800D03*
G54D12*
G01X4749800Y-3579101D03*
G01X4749800Y-4879099D03*
G01X3543300Y-3579101D03*
G01X3543300Y-4879099D03*
G54D17*
G01X863600Y-2264600D03*
G01X863600Y-2764599D03*
G01X2429701Y-4800600D03*
G01X2929700Y-4800600D03*
G54D19*
G01X863600Y-963600D03*
G01X863600Y-763600D03*
G01X863600Y-1662100D03*
G01X863600Y-1462100D03*
G01X2819400Y-2106600D03*
G01X2819400Y-1906600D03*
G01X1801800Y-2565400D03*
G01X1601800Y-2565400D03*
G01X1155700Y-4113200D03*
G01X1155700Y-3913200D03*
G54D12*
G01X635000Y-3204400D03*
G01X635000Y-3454413D03*
G54D20*
G01X635000Y-3704399D03*
G04 Pad End*

G04 Track Start*
G54D21*
G01X3251200Y-1587500D02*
G01X3251200Y-1333500D01*
G01X3632200Y-759701D02*
G01X4114800Y-759701D01*
G01X2933700Y-2463800D02*
G01X3187700Y-2463800D01*
G01X3949700Y-3225800D02*
G01X4457700Y-2717800D01*
G01X4457700Y-2463800D01*
G01X4114800Y-2059699D02*
G01X4533900Y-1640599D01*
G01X4533900Y-747001D01*
G01X3187700Y-3225800D02*
G01X2933700Y-3225800D01*
G01X4290301Y-584200D02*
G01X4114800Y-759701D01*
G01X1953501Y-444500D02*
G01X1663700Y-734301D01*
G01X863600Y-2264600D02*
G01X520700Y-1921700D01*
G01X520700Y-1094001D01*
G01X823718Y-790983D01*
G01X863600Y-763600D02*
G01X1634401Y-763600D01*
G01X1663700Y-734301D01*
G01X3187700Y-2463800D02*
G01X3390900Y-2667000D01*
G01X3746500Y-2667000D01*
G01X3949700Y-2463800D01*
G01X3695700Y-2463800D02*
G01X3886200Y-2273300D01*
G01X3886200Y-2044700D01*
G01X3837699Y-5295900D02*
G01X4254500Y-4879099D01*
G01X1155700Y-3913200D02*
G01X1843100Y-3225800D01*
G01X2933700Y-3225800D01*
G01X2929700Y-4804600D02*
G01X2929700Y-4800600D01*
G01X3543300Y-3579101D02*
G01X3441700Y-3477501D01*
G01X3441700Y-3225800D01*
G01X4254500Y-3579101D02*
G01X4049001Y-3579101D01*
G01X3695700Y-3225800D01*
G01X4749800Y-4635500D02*
G01X4749800Y-4879099D01*
G01X4546600Y-4432300D02*
G01X4749800Y-4635500D01*
G01X4261711Y-4432300D02*
G01X4546600Y-4432300D01*
G01X3124200Y-4800600D02*
G01X3353899Y-5030299D01*
G01X3663712Y-5030299D01*
G01X4261711Y-4432300D01*
G01X1892300Y-4891799D02*
G01X1986101Y-4985600D01*
G01X2748700Y-4985600D01*
G01X2929700Y-4804600D01*
G01X3505200Y-3035300D02*
G01X3695700Y-3225800D01*
G01X4470400Y-4584700D02*
G01X4318000Y-4584700D01*
G01X4572000Y-4686300D02*
G01X4470400Y-4584700D01*
G01X4572000Y-5029200D02*
G01X4572000Y-4686300D01*
G01X4699000Y-5156200D02*
G01X4572000Y-5029200D01*
G01X4318000Y-4584700D02*
G01X3746500Y-5156200D01*
G01X635000Y-3454413D02*
G01X863600Y-3225813D01*
G01X863600Y-2764599D01*
G01X2929700Y-4800600D02*
G01X3124200Y-4800600D01*
G01X3746500Y-5156200D02*
G01X1282700Y-5156200D01*
G01X825500Y-4699000D01*
G01X635000Y-3704399D02*
G01X635000Y-4737100D01*
G01X1193800Y-5295900D01*
G01X3837699Y-5295900D01*
G01X4622800Y-584200D02*
G01X4290301Y-584200D01*
G01X825500Y-4699000D02*
G01X825500Y-3860800D01*
G01X1651000Y-3035300D01*
G01X3505200Y-3035300D01*
G01X2429701Y-4588700D02*
G01X2429701Y-4800600D01*
G01X1801800Y-2565400D02*
G01X2159000Y-2565400D01*
G01X2425700Y-2298700D01*
G01X3441700Y-2463800D02*
G01X3632200Y-2273300D01*
G01X3632200Y-2059699D01*
G01X1601800Y-2565400D02*
G01X1601800Y-2737599D01*
G01X635000Y-3704399D01*
G01X1892300Y-3591801D02*
G01X1877301Y-3606800D01*
G01X1676400Y-3606800D01*
G01X1170000Y-4113200D01*
G01X1155700Y-4113200D01*
G01X1892300Y-3591801D02*
G01X2032000Y-3731501D01*
G01X2032000Y-4191000D01*
G01X2429701Y-4588700D01*
G01X3251200Y-825500D02*
G01X3352572Y-825500D01*
G01X3758972Y-419100D01*
G01X4648200Y-419100D01*
G01X2654300Y-635000D02*
G01X3098800Y-1079500D01*
G01X3251200Y-1079500D01*
G01X4749800Y-4879099D02*
G01X4836401Y-4965700D01*
G01X3886200Y-2044700D02*
G01X3632200Y-1790700D01*
G01X3135300Y-1790700D01*
G01X2819400Y-2106600D01*
G01X3502901Y-1930400D02*
G01X3632200Y-2059699D01*
G01X2425700Y-2298700D02*
G01X2857500Y-2298700D01*
G01X3225800Y-1930400D01*
G01X3502901Y-1930400D01*
G01X2095500Y-2275599D02*
G01X2095500Y-1612900D01*
G01X2222500Y-1485900D01*
G01X2387600Y-1485900D01*
G01X2489200Y-1587500D01*
G01X2095500Y-975601D02*
G01X2095500Y-838200D01*
G01X2298700Y-635000D01*
G01X2654300Y-635000D01*
G01X3632200Y-759701D02*
G01X3467100Y-924801D01*
G01X3467100Y-1117600D01*
G01X3251200Y-1333500D01*
G01X4457700Y-3670300D02*
G01X4457700Y-3225800D01*
G01X3543300Y-3579101D02*
G01X3837699Y-3873500D01*
G01X4254500Y-3873500D01*
G01X4457700Y-3670300D01*
G01X863600Y-1462100D02*
G01X1091502Y-1462100D01*
G01X1663700Y-2034299D01*
G01X4203700Y-2463800D02*
G01X4114800Y-2374900D01*
G01X4114800Y-2059699D01*
G01X863600Y-2764599D02*
G01X863600Y-2565400D01*
G01X1066800Y-2362200D01*
G01X774700Y-1751000D02*
G01X863600Y-1662100D01*
G01X3251200Y-825500D02*
G01X3086100Y-825500D01*
G01X2705100Y-444500D01*
G01X1953501Y-444500D01*
G01X1983499Y-2387600D02*
G01X2095500Y-2275599D01*
G01X1422400Y-2184400D02*
G01X1625600Y-2387600D01*
G01X1983499Y-2387600D01*
G01X863600Y-1662100D02*
G01X1039800Y-1662100D01*
G01X1422400Y-2044700D01*
G01X1422400Y-2184400D01*
G01X1066800Y-2362200D02*
G01X1066800Y-2184400D01*
G01X774700Y-1892300D01*
G01X774700Y-1751000D01*
G01X4457700Y-2463800D02*
G01X4457700Y-2123199D01*
G01X4533900Y-2046999D01*
G01X2489200Y-1587500D02*
G01X2489200Y-1905000D01*
G01X2690800Y-2106600D01*
G01X2819400Y-2106600D01*
G01X2819400Y-1906600D02*
G01X2819400Y-1778000D01*
G01X3009900Y-1587500D01*
G01X3251200Y-1587500D01*
G01X4749800Y-2996400D02*
G01X4749800Y-3579101D01*
G01X4649000Y-2895600D02*
G01X4749800Y-2996400D01*
G01X4203700Y-3225800D02*
G01X4203700Y-3124200D01*
G01X4432300Y-2895600D01*
G01X4649000Y-2895600D01*
G01X4749800Y-3579101D02*
G01X4749800Y-3672599D01*
G01X3543300Y-4879099D01*
G01X863600Y-1462100D02*
G01X723900Y-1322400D01*
G01X723900Y-1079500D01*
G01X839800Y-963600D01*
G01X863600Y-963600D01*
G01X2083499Y-963600D01*
G01X2095500Y-975601D01*
G01X5029200Y-990600D02*
G01X4622800Y-584200D01*
G01X4898363Y-5156200D02*
G01X4699000Y-5156200D01*
G01X4648200Y-419100D02*
G01X5181600Y-952500D01*
G01X5181600Y-4872963D01*
G01X4898363Y-5156200D01*
G01X4836401Y-4965700D02*
G01X4927600Y-4965700D01*
G01X5029200Y-4864100D01*
G01X5029200Y-990600D01*
G04 Track End*

M02*

