G04 Layer: TopSilkscreenLayer*
G04 EasyEDA Pro v3.2.149.88089769, 2026-07-31 13:50:33*
G04 Gerber Generator version 0.3*
G04 Scale: 100 percent, Rotated: No, Reflected: No*
G04 Dimensions in millimeters*
G04 Leading zeros omitted, absolute positions, 4 integers and 5 decimals*
G04 Generated by one-click*
G04 Object Configs: Pad,Via,Track,Text,Image,Dimension,BoardOutline,BoardCutout,CopperFilled,SolidRegion,FPCStiffener,Line,PlaneZone,ComponentProperty,ComponentSilkscreen,TearDrop*
G04 Layer Configs: 1,2,3,4,5,6,7,8,9,10,11,13,14,56*
G04 Copper Areas: 0*
%FSLAX45Y45*%
%MOMM*%
%ADD10C,0.1524*%
%ADD11C,0.15001*%
%ADD12C,0.254*%
%ADD13C,0.8530*%
G75*


G04 Text Start*
G54D10*
G01X2215388Y-1303020D02*
G01X2218690Y-1309116D01*
G01X2227834Y-1318514D01*
G01X2162810Y-1318514D01*
G01X2227834Y-1348740D02*
G01X2162810Y-1348740D01*
G01X2227834Y-1348740D02*
G01X2162810Y-1373378D01*
G01X2227834Y-1398270D02*
G01X2162810Y-1373378D01*
G01X2227834Y-1398270D02*
G01X2162810Y-1398270D01*
G01X2162810Y-1428496D02*
G01X2162810Y-1450086D01*
G01X2172208Y-1443736D01*
G01X2181352Y-1437640D01*
G01X2190750Y-1434592D01*
G01X2200148Y-1434592D01*
G01X2209292Y-1437640D01*
G01X2215388Y-1440688D01*
G01X2221738Y-1447038D01*
G01X2224786Y-1453134D01*
G01X2224786Y-1465580D01*
G01X2221738Y-1471676D01*
G01X2215388Y-1478026D01*
G01X2209292Y-1481074D01*
G01X2200148Y-1484122D01*
G01X2190750Y-1484122D01*
G01X2181352Y-1481074D01*
G01X2172208Y-1474724D01*
G01X2162810Y-1468628D01*
G01X2162810Y-1490218D01*
G01X1694688Y-1290320D02*
G01X1697990Y-1296416D01*
G01X1707134Y-1305814D01*
G01X1642110Y-1305814D01*
G01X1707134Y-1336040D02*
G01X1642110Y-1336040D01*
G01X1707134Y-1336040D02*
G01X1642110Y-1360678D01*
G01X1707134Y-1385570D02*
G01X1642110Y-1360678D01*
G01X1707134Y-1385570D02*
G01X1642110Y-1385570D01*
G01X1642110Y-1415796D02*
G01X1642110Y-1437386D01*
G01X1651508Y-1431036D01*
G01X1660652Y-1424940D01*
G01X1670050Y-1421892D01*
G01X1679448Y-1421892D01*
G01X1688592Y-1424940D01*
G01X1694688Y-1427988D01*
G01X1701038Y-1434338D01*
G01X1704086Y-1440434D01*
G01X1704086Y-1452880D01*
G01X1701038Y-1458976D01*
G01X1694688Y-1465326D01*
G01X1688592Y-1468374D01*
G01X1679448Y-1471422D01*
G01X1670050Y-1471422D01*
G01X1660652Y-1468374D01*
G01X1651508Y-1462024D01*
G01X1642110Y-1455928D01*
G01X1642110Y-1477518D01*
G01X2913634Y-969010D02*
G01X2848610Y-969010D01*
G01X2913634Y-947420D02*
G01X2913634Y-990854D01*
G01X2913634Y-1021080D02*
G01X2848610Y-1021080D01*
G01X2848610Y-1021080D02*
G01X2848610Y-1058164D01*
G01X2913634Y-1106932D02*
G01X2910586Y-1097534D01*
G01X2901188Y-1091438D01*
G01X2885948Y-1088390D01*
G01X2876550Y-1088390D01*
G01X2861056Y-1091438D01*
G01X2851658Y-1097534D01*
G01X2848610Y-1106932D01*
G01X2848610Y-1113028D01*
G01X2851658Y-1122426D01*
G01X2861056Y-1128522D01*
G01X2876550Y-1131570D01*
G01X2885948Y-1131570D01*
G01X2901188Y-1128522D01*
G01X2910586Y-1122426D01*
G01X2913634Y-1113028D01*
G01X2913634Y-1106932D01*
G01X2913634Y-1177036D02*
G01X2910586Y-1167892D01*
G01X2904490Y-1164844D01*
G01X2898140Y-1164844D01*
G01X2892044Y-1167892D01*
G01X2888996Y-1173988D01*
G01X2885948Y-1186434D01*
G01X2882646Y-1195832D01*
G01X2876550Y-1201928D01*
G01X2870454Y-1204976D01*
G01X2861056Y-1204976D01*
G01X2854960Y-1201928D01*
G01X2851658Y-1198880D01*
G01X2848610Y-1189482D01*
G01X2848610Y-1177036D01*
G01X2851658Y-1167892D01*
G01X2854960Y-1164844D01*
G01X2861056Y-1161796D01*
G01X2870454Y-1161796D01*
G01X2876550Y-1164844D01*
G01X2882646Y-1170940D01*
G01X2885948Y-1180338D01*
G01X2888996Y-1192530D01*
G01X2892044Y-1198880D01*
G01X2898140Y-1201928D01*
G01X2904490Y-1201928D01*
G01X2910586Y-1198880D01*
G01X2913634Y-1189482D01*
G01X2913634Y-1177036D01*
G01X2898140Y-1238250D02*
G01X2901188Y-1238250D01*
G01X2907538Y-1241298D01*
G01X2910586Y-1244346D01*
G01X2913634Y-1250442D01*
G01X2913634Y-1262888D01*
G01X2910586Y-1269238D01*
G01X2907538Y-1272286D01*
G01X2901188Y-1275334D01*
G01X2895092Y-1275334D01*
G01X2888996Y-1272286D01*
G01X2879598Y-1265936D01*
G01X2848610Y-1235202D01*
G01X2848610Y-1278382D01*
G01X2898140Y-1354836D02*
G01X2904490Y-1351788D01*
G01X2910586Y-1345692D01*
G01X2913634Y-1339342D01*
G01X2913634Y-1327150D01*
G01X2910586Y-1320800D01*
G01X2904490Y-1314704D01*
G01X2898140Y-1311656D01*
G01X2888996Y-1308608D01*
G01X2873502Y-1308608D01*
G01X2864104Y-1311656D01*
G01X2858008Y-1314704D01*
G01X2851658Y-1320800D01*
G01X2848610Y-1327150D01*
G01X2848610Y-1339342D01*
G01X2851658Y-1345692D01*
G01X2858008Y-1351788D01*
G01X2864104Y-1354836D01*
G01X2913634Y-1385062D02*
G01X2848610Y-1385062D01*
G01X2913634Y-1385062D02*
G01X2913634Y-1412748D01*
G01X2910586Y-1422146D01*
G01X2907538Y-1425194D01*
G01X2901188Y-1428242D01*
G01X2892044Y-1428242D01*
G01X2885948Y-1425194D01*
G01X2882646Y-1422146D01*
G01X2879598Y-1412748D01*
G01X2879598Y-1385062D01*
G01X4285488Y-4020820D02*
G01X4288790Y-4026916D01*
G01X4297934Y-4036314D01*
G01X4232910Y-4036314D01*
G01X4297934Y-4085082D02*
G01X4294886Y-4075684D01*
G01X4285488Y-4069588D01*
G01X4270248Y-4066540D01*
G01X4260850Y-4066540D01*
G01X4245356Y-4069588D01*
G01X4235958Y-4075684D01*
G01X4232910Y-4085082D01*
G01X4232910Y-4091178D01*
G01X4235958Y-4100576D01*
G01X4245356Y-4106672D01*
G01X4260850Y-4109720D01*
G01X4270248Y-4109720D01*
G01X4285488Y-4106672D01*
G01X4294886Y-4100576D01*
G01X4297934Y-4091178D01*
G01X4297934Y-4085082D01*
G01X4297934Y-4158488D02*
G01X4294886Y-4149090D01*
G01X4285488Y-4142994D01*
G01X4270248Y-4139946D01*
G01X4260850Y-4139946D01*
G01X4245356Y-4142994D01*
G01X4235958Y-4149090D01*
G01X4232910Y-4158488D01*
G01X4232910Y-4164584D01*
G01X4235958Y-4173982D01*
G01X4245356Y-4180078D01*
G01X4260850Y-4183126D01*
G01X4270248Y-4183126D01*
G01X4285488Y-4180078D01*
G01X4294886Y-4173982D01*
G01X4297934Y-4164584D01*
G01X4297934Y-4158488D01*
G01X4297934Y-4213352D02*
G01X4232910Y-4213352D01*
G01X4276344Y-4244086D02*
G01X4245356Y-4213352D01*
G01X4257802Y-4225544D02*
G01X4232910Y-4247388D01*
G01X4232910Y-4277614D02*
G01X4232910Y-4299204D01*
G01X4242308Y-4292854D01*
G01X4251452Y-4286758D01*
G01X4260850Y-4283710D01*
G01X4270248Y-4283710D01*
G01X4279392Y-4286758D01*
G01X4285488Y-4289806D01*
G01X4291838Y-4296156D01*
G01X4294886Y-4302252D01*
G01X4294886Y-4314698D01*
G01X4291838Y-4320794D01*
G01X4285488Y-4327144D01*
G01X4279392Y-4330192D01*
G01X4270248Y-4333240D01*
G01X4260850Y-4333240D01*
G01X4251452Y-4330192D01*
G01X4242308Y-4323842D01*
G01X4232910Y-4317746D01*
G01X4232910Y-4339336D01*
G01X3672840Y-1242568D02*
G01X3675888Y-1242568D01*
G01X3682238Y-1245616D01*
G01X3685286Y-1248918D01*
G01X3688334Y-1255014D01*
G01X3688334Y-1267460D01*
G01X3685286Y-1273556D01*
G01X3682238Y-1276604D01*
G01X3675888Y-1279652D01*
G01X3669792Y-1279652D01*
G01X3663696Y-1276604D01*
G01X3654298Y-1270508D01*
G01X3623310Y-1239520D01*
G01X3623310Y-1282954D01*
G01X3672840Y-1316228D02*
G01X3675888Y-1316228D01*
G01X3682238Y-1319276D01*
G01X3685286Y-1322324D01*
G01X3688334Y-1328420D01*
G01X3688334Y-1340866D01*
G01X3685286Y-1347216D01*
G01X3682238Y-1350264D01*
G01X3675888Y-1353312D01*
G01X3669792Y-1353312D01*
G01X3663696Y-1350264D01*
G01X3654298Y-1343914D01*
G01X3623310Y-1313180D01*
G01X3623310Y-1356360D01*
G01X3688334Y-1405128D02*
G01X3685286Y-1395730D01*
G01X3675888Y-1389634D01*
G01X3660648Y-1386586D01*
G01X3651250Y-1386586D01*
G01X3635756Y-1389634D01*
G01X3626358Y-1395730D01*
G01X3623310Y-1405128D01*
G01X3623310Y-1411224D01*
G01X3626358Y-1420622D01*
G01X3635756Y-1426718D01*
G01X3651250Y-1429766D01*
G01X3660648Y-1429766D01*
G01X3675888Y-1426718D01*
G01X3685286Y-1420622D01*
G01X3688334Y-1411224D01*
G01X3688334Y-1405128D01*
G01X3688334Y-1459992D02*
G01X3623310Y-1459992D01*
G01X3666744Y-1490726D02*
G01X3635756Y-1459992D01*
G01X3648202Y-1472184D02*
G01X3623310Y-1494028D01*
G01X3623310Y-1524254D02*
G01X3623310Y-1545844D01*
G01X3632708Y-1539494D01*
G01X3641852Y-1533398D01*
G01X3651250Y-1530350D01*
G01X3660648Y-1530350D01*
G01X3669792Y-1533398D01*
G01X3675888Y-1536446D01*
G01X3682238Y-1542796D01*
G01X3685286Y-1548892D01*
G01X3685286Y-1561338D01*
G01X3682238Y-1567434D01*
G01X3675888Y-1573784D01*
G01X3669792Y-1576832D01*
G01X3660648Y-1579880D01*
G01X3651250Y-1579880D01*
G01X3641852Y-1576832D01*
G01X3632708Y-1570482D01*
G01X3623310Y-1564386D01*
G01X3623310Y-1585976D01*
G01X1935734Y-4230116D02*
G01X1935734Y-4264152D01*
G01X1911096Y-4245610D01*
G01X1911096Y-4255008D01*
G01X1908048Y-4261104D01*
G01X1904746Y-4264152D01*
G01X1895602Y-4267454D01*
G01X1889252Y-4267454D01*
G01X1880108Y-4264152D01*
G01X1873758Y-4258056D01*
G01X1870710Y-4248912D01*
G01X1870710Y-4239514D01*
G01X1873758Y-4230116D01*
G01X1877060Y-4227068D01*
G01X1883156Y-4224020D01*
G01X1935734Y-4316222D02*
G01X1932686Y-4306824D01*
G01X1923288Y-4300728D01*
G01X1908048Y-4297680D01*
G01X1898650Y-4297680D01*
G01X1883156Y-4300728D01*
G01X1873758Y-4306824D01*
G01X1870710Y-4316222D01*
G01X1870710Y-4322318D01*
G01X1873758Y-4331716D01*
G01X1883156Y-4337812D01*
G01X1898650Y-4340860D01*
G01X1908048Y-4340860D01*
G01X1923288Y-4337812D01*
G01X1932686Y-4331716D01*
G01X1935734Y-4322318D01*
G01X1935734Y-4316222D01*
G01X1935734Y-4389628D02*
G01X1932686Y-4380230D01*
G01X1923288Y-4374134D01*
G01X1908048Y-4371086D01*
G01X1898650Y-4371086D01*
G01X1883156Y-4374134D01*
G01X1873758Y-4380230D01*
G01X1870710Y-4389628D01*
G01X1870710Y-4395724D01*
G01X1873758Y-4405122D01*
G01X1883156Y-4411218D01*
G01X1898650Y-4414266D01*
G01X1908048Y-4414266D01*
G01X1923288Y-4411218D01*
G01X1932686Y-4405122D01*
G01X1935734Y-4395724D01*
G01X1935734Y-4389628D01*
G01X1935734Y-4444492D02*
G01X1870710Y-4444492D01*
G01X1914144Y-4475226D02*
G01X1883156Y-4444492D01*
G01X1895602Y-4456684D02*
G01X1870710Y-4478528D01*
G01X1870710Y-4508754D02*
G01X1870710Y-4530344D01*
G01X1880108Y-4523994D01*
G01X1889252Y-4517898D01*
G01X1898650Y-4514850D01*
G01X1908048Y-4514850D01*
G01X1917192Y-4517898D01*
G01X1923288Y-4520946D01*
G01X1929638Y-4527296D01*
G01X1932686Y-4533392D01*
G01X1932686Y-4545838D01*
G01X1929638Y-4551934D01*
G01X1923288Y-4558284D01*
G01X1917192Y-4561332D01*
G01X1908048Y-4564380D01*
G01X1898650Y-4564380D01*
G01X1889252Y-4561332D01*
G01X1880108Y-4554982D01*
G01X1870710Y-4548886D01*
G01X1870710Y-4570476D01*
G01X4158234Y-1283208D02*
G01X4115054Y-1252220D01*
G01X4115054Y-1298702D01*
G01X4158234Y-1283208D02*
G01X4093210Y-1283208D01*
G01X4158234Y-1344168D02*
G01X4155186Y-1335024D01*
G01X4149090Y-1331976D01*
G01X4142740Y-1331976D01*
G01X4136644Y-1335024D01*
G01X4133596Y-1341120D01*
G01X4130548Y-1353566D01*
G01X4127246Y-1362964D01*
G01X4121150Y-1369060D01*
G01X4115054Y-1372108D01*
G01X4105656Y-1372108D01*
G01X4099560Y-1369060D01*
G01X4096258Y-1366012D01*
G01X4093210Y-1356614D01*
G01X4093210Y-1344168D01*
G01X4096258Y-1335024D01*
G01X4099560Y-1331976D01*
G01X4105656Y-1328928D01*
G01X4115054Y-1328928D01*
G01X4121150Y-1331976D01*
G01X4127246Y-1338072D01*
G01X4130548Y-1347470D01*
G01X4133596Y-1359662D01*
G01X4136644Y-1366012D01*
G01X4142740Y-1369060D01*
G01X4149090Y-1369060D01*
G01X4155186Y-1366012D01*
G01X4158234Y-1356614D01*
G01X4158234Y-1344168D01*
G01X4158234Y-1402334D02*
G01X4093210Y-1402334D01*
G01X4136644Y-1433068D02*
G01X4105656Y-1402334D01*
G01X4118102Y-1414526D02*
G01X4093210Y-1436370D01*
G01X4093210Y-1466596D02*
G01X4093210Y-1488186D01*
G01X4102608Y-1481836D01*
G01X4111752Y-1475740D01*
G01X4121150Y-1472692D01*
G01X4130548Y-1472692D01*
G01X4139692Y-1475740D01*
G01X4145788Y-1478788D01*
G01X4152138Y-1485138D01*
G01X4155186Y-1491234D01*
G01X4155186Y-1503680D01*
G01X4152138Y-1509776D01*
G01X4145788Y-1516126D01*
G01X4139692Y-1519174D01*
G01X4130548Y-1522222D01*
G01X4121150Y-1522222D01*
G01X4111752Y-1519174D01*
G01X4102608Y-1512824D01*
G01X4093210Y-1506728D01*
G01X4093210Y-1528318D01*
G01X4657090Y-1238504D02*
G01X4663186Y-1235456D01*
G01X4666234Y-1226312D01*
G01X4666234Y-1219962D01*
G01X4663186Y-1210818D01*
G01X4653788Y-1204468D01*
G01X4638548Y-1201420D01*
G01X4623054Y-1201420D01*
G01X4610608Y-1204468D01*
G01X4604258Y-1210818D01*
G01X4601210Y-1219962D01*
G01X4601210Y-1223010D01*
G01X4604258Y-1232408D01*
G01X4610608Y-1238504D01*
G01X4619752Y-1241552D01*
G01X4623054Y-1241552D01*
G01X4632198Y-1238504D01*
G01X4638548Y-1232408D01*
G01X4641596Y-1223010D01*
G01X4641596Y-1219962D01*
G01X4638548Y-1210818D01*
G01X4632198Y-1204468D01*
G01X4623054Y-1201420D01*
G01X4666234Y-1287018D02*
G01X4663186Y-1277874D01*
G01X4657090Y-1274826D01*
G01X4650740Y-1274826D01*
G01X4644644Y-1277874D01*
G01X4641596Y-1283970D01*
G01X4638548Y-1296416D01*
G01X4635246Y-1305814D01*
G01X4629150Y-1311910D01*
G01X4623054Y-1314958D01*
G01X4613656Y-1314958D01*
G01X4607560Y-1311910D01*
G01X4604258Y-1308862D01*
G01X4601210Y-1299464D01*
G01X4601210Y-1287018D01*
G01X4604258Y-1277874D01*
G01X4607560Y-1274826D01*
G01X4613656Y-1271778D01*
G01X4623054Y-1271778D01*
G01X4629150Y-1274826D01*
G01X4635246Y-1280922D01*
G01X4638548Y-1290320D01*
G01X4641596Y-1302512D01*
G01X4644644Y-1308862D01*
G01X4650740Y-1311910D01*
G01X4657090Y-1311910D01*
G01X4663186Y-1308862D01*
G01X4666234Y-1299464D01*
G01X4666234Y-1287018D01*
G01X4666234Y-1363726D02*
G01X4663186Y-1354328D01*
G01X4653788Y-1348232D01*
G01X4638548Y-1345184D01*
G01X4629150Y-1345184D01*
G01X4613656Y-1348232D01*
G01X4604258Y-1354328D01*
G01X4601210Y-1363726D01*
G01X4601210Y-1369822D01*
G01X4604258Y-1379220D01*
G01X4613656Y-1385316D01*
G01X4629150Y-1388364D01*
G01X4638548Y-1388364D01*
G01X4653788Y-1385316D01*
G01X4663186Y-1379220D01*
G01X4666234Y-1369822D01*
G01X4666234Y-1363726D01*
G01X4666234Y-1418590D02*
G01X4601210Y-1418590D01*
G01X4644644Y-1449324D02*
G01X4613656Y-1418590D01*
G01X4626102Y-1430782D02*
G01X4601210Y-1452626D01*
G01X4601210Y-1482852D02*
G01X4601210Y-1504442D01*
G01X4610608Y-1498092D01*
G01X4619752Y-1491996D01*
G01X4629150Y-1488948D01*
G01X4638548Y-1488948D01*
G01X4647692Y-1491996D01*
G01X4653788Y-1495044D01*
G01X4660138Y-1501394D01*
G01X4663186Y-1507490D01*
G01X4663186Y-1519936D01*
G01X4660138Y-1526032D01*
G01X4653788Y-1532382D01*
G01X4647692Y-1535430D01*
G01X4638548Y-1538478D01*
G01X4629150Y-1538478D01*
G01X4619752Y-1535430D01*
G01X4610608Y-1529080D01*
G01X4601210Y-1522984D01*
G01X4601210Y-1544574D01*
G01X3483610Y-2814066D02*
G01X3483610Y-2879090D01*
G01X3462020Y-2814066D02*
G01X3505454Y-2814066D01*
G01X3535680Y-2814066D02*
G01X3535680Y-2879090D01*
G01X3535680Y-2879090D02*
G01X3572764Y-2879090D01*
G01X3621532Y-2814066D02*
G01X3612134Y-2817114D01*
G01X3606038Y-2826512D01*
G01X3602990Y-2841752D01*
G01X3602990Y-2851150D01*
G01X3606038Y-2866644D01*
G01X3612134Y-2876042D01*
G01X3621532Y-2879090D01*
G01X3627628Y-2879090D01*
G01X3637026Y-2876042D01*
G01X3643122Y-2866644D01*
G01X3646170Y-2851150D01*
G01X3646170Y-2841752D01*
G01X3643122Y-2826512D01*
G01X3637026Y-2817114D01*
G01X3627628Y-2814066D01*
G01X3621532Y-2814066D01*
G01X3719576Y-2814066D02*
G01X3688588Y-2879090D01*
G01X3676396Y-2814066D02*
G01X3719576Y-2814066D01*
G01X3780536Y-2814066D02*
G01X3749802Y-2857246D01*
G01X3796030Y-2857246D01*
G01X3780536Y-2814066D02*
G01X3780536Y-2879090D01*
G01X3872484Y-2829560D02*
G01X3869436Y-2823210D01*
G01X3863340Y-2817114D01*
G01X3856990Y-2814066D01*
G01X3844798Y-2814066D01*
G01X3838448Y-2817114D01*
G01X3832352Y-2823210D01*
G01X3829304Y-2829560D01*
G01X3826256Y-2838704D01*
G01X3826256Y-2854198D01*
G01X3829304Y-2863596D01*
G01X3832352Y-2869692D01*
G01X3838448Y-2876042D01*
G01X3844798Y-2879090D01*
G01X3856990Y-2879090D01*
G01X3863340Y-2876042D01*
G01X3869436Y-2869692D01*
G01X3872484Y-2863596D01*
G01X3902710Y-2814066D02*
G01X3902710Y-2879090D01*
G01X3902710Y-2814066D02*
G01X3945890Y-2879090D01*
G01X3945890Y-2814066D02*
G01X3945890Y-2879090D01*
G01X4780788Y-4058920D02*
G01X4784090Y-4065016D01*
G01X4793234Y-4074414D01*
G01X4728210Y-4074414D01*
G01X4793234Y-4123182D02*
G01X4790186Y-4113784D01*
G01X4780788Y-4107688D01*
G01X4765548Y-4104640D01*
G01X4756150Y-4104640D01*
G01X4740656Y-4107688D01*
G01X4731258Y-4113784D01*
G01X4728210Y-4123182D01*
G01X4728210Y-4129278D01*
G01X4731258Y-4138676D01*
G01X4740656Y-4144772D01*
G01X4756150Y-4147820D01*
G01X4765548Y-4147820D01*
G01X4780788Y-4144772D01*
G01X4790186Y-4138676D01*
G01X4793234Y-4129278D01*
G01X4793234Y-4123182D01*
G01X4793234Y-4196588D02*
G01X4790186Y-4187190D01*
G01X4780788Y-4181094D01*
G01X4765548Y-4178046D01*
G01X4756150Y-4178046D01*
G01X4740656Y-4181094D01*
G01X4731258Y-4187190D01*
G01X4728210Y-4196588D01*
G01X4728210Y-4202684D01*
G01X4731258Y-4212082D01*
G01X4740656Y-4218178D01*
G01X4756150Y-4221226D01*
G01X4765548Y-4221226D01*
G01X4780788Y-4218178D01*
G01X4790186Y-4212082D01*
G01X4793234Y-4202684D01*
G01X4793234Y-4196588D01*
G01X4793234Y-4251452D02*
G01X4728210Y-4251452D01*
G01X4771644Y-4282186D02*
G01X4740656Y-4251452D01*
G01X4753102Y-4263644D02*
G01X4728210Y-4285488D01*
G01X4728210Y-4315714D02*
G01X4728210Y-4337304D01*
G01X4737608Y-4330954D01*
G01X4746752Y-4324858D01*
G01X4756150Y-4321810D01*
G01X4765548Y-4321810D01*
G01X4774692Y-4324858D01*
G01X4780788Y-4327906D01*
G01X4787138Y-4334256D01*
G01X4790186Y-4340352D01*
G01X4790186Y-4352798D01*
G01X4787138Y-4358894D01*
G01X4780788Y-4365244D01*
G01X4774692Y-4368292D01*
G01X4765548Y-4371340D01*
G01X4756150Y-4371340D01*
G01X4746752Y-4368292D01*
G01X4737608Y-4361942D01*
G01X4728210Y-4355846D01*
G01X4728210Y-4377436D01*
G01X3577590Y-4070604D02*
G01X3583686Y-4067556D01*
G01X3586734Y-4058412D01*
G01X3586734Y-4052062D01*
G01X3583686Y-4042918D01*
G01X3574288Y-4036568D01*
G01X3559048Y-4033520D01*
G01X3543554Y-4033520D01*
G01X3531108Y-4036568D01*
G01X3524758Y-4042918D01*
G01X3521710Y-4052062D01*
G01X3521710Y-4055110D01*
G01X3524758Y-4064508D01*
G01X3531108Y-4070604D01*
G01X3540252Y-4073652D01*
G01X3543554Y-4073652D01*
G01X3552698Y-4070604D01*
G01X3559048Y-4064508D01*
G01X3562096Y-4055110D01*
G01X3562096Y-4052062D01*
G01X3559048Y-4042918D01*
G01X3552698Y-4036568D01*
G01X3543554Y-4033520D01*
G01X3586734Y-4119118D02*
G01X3583686Y-4109974D01*
G01X3577590Y-4106926D01*
G01X3571240Y-4106926D01*
G01X3565144Y-4109974D01*
G01X3562096Y-4116070D01*
G01X3559048Y-4128516D01*
G01X3555746Y-4137914D01*
G01X3549650Y-4144010D01*
G01X3543554Y-4147058D01*
G01X3534156Y-4147058D01*
G01X3528060Y-4144010D01*
G01X3524758Y-4140962D01*
G01X3521710Y-4131564D01*
G01X3521710Y-4119118D01*
G01X3524758Y-4109974D01*
G01X3528060Y-4106926D01*
G01X3534156Y-4103878D01*
G01X3543554Y-4103878D01*
G01X3549650Y-4106926D01*
G01X3555746Y-4113022D01*
G01X3559048Y-4122420D01*
G01X3562096Y-4134612D01*
G01X3565144Y-4140962D01*
G01X3571240Y-4144010D01*
G01X3577590Y-4144010D01*
G01X3583686Y-4140962D01*
G01X3586734Y-4131564D01*
G01X3586734Y-4119118D01*
G01X3586734Y-4195826D02*
G01X3583686Y-4186428D01*
G01X3574288Y-4180332D01*
G01X3559048Y-4177284D01*
G01X3549650Y-4177284D01*
G01X3534156Y-4180332D01*
G01X3524758Y-4186428D01*
G01X3521710Y-4195826D01*
G01X3521710Y-4201922D01*
G01X3524758Y-4211320D01*
G01X3534156Y-4217416D01*
G01X3549650Y-4220464D01*
G01X3559048Y-4220464D01*
G01X3574288Y-4217416D01*
G01X3583686Y-4211320D01*
G01X3586734Y-4201922D01*
G01X3586734Y-4195826D01*
G01X3586734Y-4250690D02*
G01X3521710Y-4250690D01*
G01X3565144Y-4281424D02*
G01X3534156Y-4250690D01*
G01X3546602Y-4262882D02*
G01X3521710Y-4284726D01*
G01X3521710Y-4314952D02*
G01X3521710Y-4336542D01*
G01X3531108Y-4330192D01*
G01X3540252Y-4324096D01*
G01X3549650Y-4321048D01*
G01X3559048Y-4321048D01*
G01X3568192Y-4324096D01*
G01X3574288Y-4327144D01*
G01X3580638Y-4333494D01*
G01X3583686Y-4339590D01*
G01X3583686Y-4352036D01*
G01X3580638Y-4358132D01*
G01X3574288Y-4364482D01*
G01X3568192Y-4367530D01*
G01X3559048Y-4370578D01*
G01X3549650Y-4370578D01*
G01X3540252Y-4367530D01*
G01X3531108Y-4361180D01*
G01X3521710Y-4355084D01*
G01X3521710Y-4376674D01*
G01X449834Y-2014220D02*
G01X384810Y-2014220D01*
G01X449834Y-2057654D02*
G01X406654Y-2014220D01*
G01X422148Y-2029714D02*
G01X384810Y-2057654D01*
G01X449834Y-2087880D02*
G01X384810Y-2087880D01*
G01X449834Y-2087880D02*
G01X449834Y-2128012D01*
G01X418846Y-2087880D02*
G01X418846Y-2112518D01*
G01X449834Y-2164334D02*
G01X449834Y-2198370D01*
G01X425196Y-2179828D01*
G01X425196Y-2188972D01*
G01X422148Y-2195322D01*
G01X418846Y-2198370D01*
G01X409702Y-2201418D01*
G01X403352Y-2201418D01*
G01X394208Y-2198370D01*
G01X387858Y-2192274D01*
G01X384810Y-2182876D01*
G01X384810Y-2173478D01*
G01X387858Y-2164334D01*
G01X391160Y-2161286D01*
G01X397256Y-2158238D01*
G01X449834Y-2250186D02*
G01X446786Y-2240788D01*
G01X437388Y-2234692D01*
G01X422148Y-2231644D01*
G01X412750Y-2231644D01*
G01X397256Y-2234692D01*
G01X387858Y-2240788D01*
G01X384810Y-2250186D01*
G01X384810Y-2256282D01*
G01X387858Y-2265680D01*
G01X397256Y-2271776D01*
G01X412750Y-2274824D01*
G01X422148Y-2274824D01*
G01X437388Y-2271776D01*
G01X446786Y-2265680D01*
G01X449834Y-2256282D01*
G01X449834Y-2250186D01*
G01X437388Y-2305050D02*
G01X440690Y-2311146D01*
G01X449834Y-2320290D01*
G01X384810Y-2320290D01*
G01X412750Y-2350516D02*
G01X412750Y-2406142D01*
G01X449834Y-2473452D02*
G01X449834Y-2442464D01*
G01X422148Y-2439416D01*
G01X425196Y-2442464D01*
G01X428244Y-2451608D01*
G01X428244Y-2461006D01*
G01X425196Y-2470404D01*
G01X418846Y-2476500D01*
G01X409702Y-2479548D01*
G01X403352Y-2479548D01*
G01X394208Y-2476500D01*
G01X387858Y-2470404D01*
G01X384810Y-2461006D01*
G01X384810Y-2451608D01*
G01X387858Y-2442464D01*
G01X391160Y-2439416D01*
G01X397256Y-2436368D01*
G01X400304Y-2512822D02*
G01X397256Y-2509774D01*
G01X394208Y-2512822D01*
G01X397256Y-2515870D01*
G01X400304Y-2512822D01*
G01X449834Y-2564638D02*
G01X446786Y-2555240D01*
G01X437388Y-2549144D01*
G01X422148Y-2546096D01*
G01X412750Y-2546096D01*
G01X397256Y-2549144D01*
G01X387858Y-2555240D01*
G01X384810Y-2564638D01*
G01X384810Y-2570734D01*
G01X387858Y-2580132D01*
G01X397256Y-2586228D01*
G01X412750Y-2589276D01*
G01X422148Y-2589276D01*
G01X437388Y-2586228D01*
G01X446786Y-2580132D01*
G01X449834Y-2570734D01*
G01X449834Y-2564638D01*
G01X412750Y-2619502D02*
G01X412750Y-2675128D01*
G01X434340Y-2708402D02*
G01X437388Y-2708402D01*
G01X443738Y-2711450D01*
G01X446786Y-2714498D01*
G01X449834Y-2720594D01*
G01X449834Y-2733040D01*
G01X446786Y-2739390D01*
G01X443738Y-2742438D01*
G01X437388Y-2745486D01*
G01X431292Y-2745486D01*
G01X425196Y-2742438D01*
G01X415798Y-2736088D01*
G01X384810Y-2705354D01*
G01X384810Y-2748534D01*
G01X449834Y-2778760D02*
G01X384810Y-2778760D01*
G01X449834Y-2778760D02*
G01X449834Y-2806446D01*
G01X446786Y-2815844D01*
G01X443738Y-2818892D01*
G01X437388Y-2821940D01*
G01X428244Y-2821940D01*
G01X422148Y-2818892D01*
G01X418846Y-2815844D01*
G01X415798Y-2806446D01*
G01X415798Y-2778760D01*
G01X2293620Y-4261866D02*
G01X2293620Y-4326890D01*
G01X2337054Y-4261866D02*
G01X2293620Y-4305046D01*
G01X2309114Y-4289552D02*
G01X2337054Y-4326890D01*
G01X2367280Y-4261866D02*
G01X2367280Y-4326890D01*
G01X2367280Y-4261866D02*
G01X2407412Y-4261866D01*
G01X2367280Y-4292854D02*
G01X2391918Y-4292854D01*
G01X2443734Y-4261866D02*
G01X2477770Y-4261866D01*
G01X2459228Y-4286504D01*
G01X2468372Y-4286504D01*
G01X2474722Y-4289552D01*
G01X2477770Y-4292854D01*
G01X2480818Y-4301998D01*
G01X2480818Y-4308348D01*
G01X2477770Y-4317492D01*
G01X2471674Y-4323842D01*
G01X2462276Y-4326890D01*
G01X2452878Y-4326890D01*
G01X2443734Y-4323842D01*
G01X2440686Y-4320540D01*
G01X2437638Y-4314444D01*
G01X2529586Y-4261866D02*
G01X2520188Y-4264914D01*
G01X2514092Y-4274312D01*
G01X2511044Y-4289552D01*
G01X2511044Y-4298950D01*
G01X2514092Y-4314444D01*
G01X2520188Y-4323842D01*
G01X2529586Y-4326890D01*
G01X2535682Y-4326890D01*
G01X2545080Y-4323842D01*
G01X2551176Y-4314444D01*
G01X2554224Y-4298950D01*
G01X2554224Y-4289552D01*
G01X2551176Y-4274312D01*
G01X2545080Y-4264914D01*
G01X2535682Y-4261866D01*
G01X2529586Y-4261866D01*
G01X2584450Y-4274312D02*
G01X2590546Y-4271010D01*
G01X2599690Y-4261866D01*
G01X2599690Y-4326890D01*
G01X2629916Y-4298950D02*
G01X2685542Y-4298950D01*
G01X2752852Y-4261866D02*
G01X2721864Y-4261866D01*
G01X2718816Y-4289552D01*
G01X2721864Y-4286504D01*
G01X2731008Y-4283456D01*
G01X2740406Y-4283456D01*
G01X2749804Y-4286504D01*
G01X2755900Y-4292854D01*
G01X2758948Y-4301998D01*
G01X2758948Y-4308348D01*
G01X2755900Y-4317492D01*
G01X2749804Y-4323842D01*
G01X2740406Y-4326890D01*
G01X2731008Y-4326890D01*
G01X2721864Y-4323842D01*
G01X2718816Y-4320540D01*
G01X2715768Y-4314444D01*
G01X2792222Y-4311396D02*
G01X2789174Y-4314444D01*
G01X2792222Y-4317492D01*
G01X2795270Y-4314444D01*
G01X2792222Y-4311396D01*
G01X2844038Y-4261866D02*
G01X2834640Y-4264914D01*
G01X2828544Y-4274312D01*
G01X2825496Y-4289552D01*
G01X2825496Y-4298950D01*
G01X2828544Y-4314444D01*
G01X2834640Y-4323842D01*
G01X2844038Y-4326890D01*
G01X2850134Y-4326890D01*
G01X2859532Y-4323842D01*
G01X2865628Y-4314444D01*
G01X2868676Y-4298950D01*
G01X2868676Y-4289552D01*
G01X2865628Y-4274312D01*
G01X2859532Y-4264914D01*
G01X2850134Y-4261866D01*
G01X2844038Y-4261866D01*
G01X2898902Y-4298950D02*
G01X2954528Y-4298950D01*
G01X2987802Y-4277360D02*
G01X2987802Y-4274312D01*
G01X2990850Y-4267962D01*
G01X2993898Y-4264914D01*
G01X2999994Y-4261866D01*
G01X3012440Y-4261866D01*
G01X3018790Y-4264914D01*
G01X3021838Y-4267962D01*
G01X3024886Y-4274312D01*
G01X3024886Y-4280408D01*
G01X3021838Y-4286504D01*
G01X3015488Y-4295902D01*
G01X2984754Y-4326890D01*
G01X3027934Y-4326890D01*
G01X3058160Y-4261866D02*
G01X3058160Y-4326890D01*
G01X3058160Y-4261866D02*
G01X3085846Y-4261866D01*
G01X3095244Y-4264914D01*
G01X3098292Y-4267962D01*
G01X3101340Y-4274312D01*
G01X3101340Y-4283456D01*
G01X3098292Y-4289552D01*
G01X3095244Y-4292854D01*
G01X3085846Y-4295902D01*
G01X3058160Y-4295902D01*
G54D11*
G01X979424Y-789178D02*
G01X965454Y-789178D01*
G01X972566Y-782320D02*
G01X972566Y-796290D01*
G54D10*
G01X1204214Y-1074420D02*
G01X1209040Y-1084072D01*
G01X1223772Y-1098804D01*
G01X1121410Y-1098804D01*
G01X1189736Y-1137412D02*
G01X1140714Y-1137412D01*
G01X1126236Y-1142238D01*
G01X1121410Y-1152144D01*
G01X1121410Y-1166876D01*
G01X1126236Y-1176528D01*
G01X1140714Y-1191260D01*
G01X1189736Y-1191260D02*
G01X1121410Y-1191260D01*
G01X1223772Y-1229868D02*
G01X1121410Y-1229868D01*
G01X1223772Y-1229868D02*
G01X1223772Y-1293368D01*
G01X1175004Y-1229868D02*
G01X1175004Y-1268984D01*
G54D11*
G01X979424Y-1487678D02*
G01X965454Y-1487678D01*
G01X972566Y-1480820D02*
G01X972566Y-1494790D01*
G54D10*
G01X1280414Y-1760220D02*
G01X1285240Y-1769872D01*
G01X1299972Y-1784604D01*
G01X1197610Y-1784604D01*
G01X1265936Y-1823212D02*
G01X1216914Y-1823212D01*
G01X1202436Y-1828038D01*
G01X1197610Y-1837944D01*
G01X1197610Y-1852676D01*
G01X1202436Y-1862328D01*
G01X1216914Y-1877060D01*
G01X1265936Y-1877060D02*
G01X1197610Y-1877060D01*
G01X1299972Y-1915668D02*
G01X1197610Y-1915668D01*
G01X1299972Y-1915668D02*
G01X1299972Y-1979168D01*
G01X1251204Y-1915668D02*
G01X1251204Y-1954784D01*
G54D11*
G01X2935224Y-1932178D02*
G01X2921254Y-1932178D01*
G01X2928366Y-1925320D02*
G01X2928366Y-1939290D01*
G01X1627378Y-2449576D02*
G01X1627378Y-2463546D01*
G01X1620520Y-2456434D02*
G01X1634490Y-2456434D01*
G54D10*
G01X1297686Y-2456180D02*
G01X1292860Y-2446528D01*
G01X1278128Y-2431796D01*
G01X1380490Y-2431796D01*
G01X1312164Y-2393188D02*
G01X1361186Y-2393188D01*
G01X1375664Y-2388362D01*
G01X1380490Y-2378456D01*
G01X1380490Y-2363724D01*
G01X1375664Y-2354072D01*
G01X1361186Y-2339340D01*
G01X1312164Y-2339340D02*
G01X1380490Y-2339340D01*
G01X1278128Y-2300732D02*
G01X1380490Y-2300732D01*
G01X1278128Y-2300732D02*
G01X1278128Y-2237232D01*
G01X1326896Y-2300732D02*
G01X1326896Y-2261616D01*
G54D11*
G01X1271524Y-3938778D02*
G01X1257554Y-3938778D01*
G01X1264666Y-3931920D02*
G01X1264666Y-3945890D01*
G54D10*
G01X1064514Y-3919220D02*
G01X1069340Y-3928872D01*
G01X1084072Y-3943604D01*
G01X981710Y-3943604D01*
G01X1050036Y-3982212D02*
G01X1001014Y-3982212D01*
G01X986536Y-3987038D01*
G01X981710Y-3996944D01*
G01X981710Y-4011676D01*
G01X986536Y-4021328D01*
G01X1001014Y-4036060D01*
G01X1050036Y-4036060D02*
G01X981710Y-4036060D01*
G01X1084072Y-4074668D02*
G01X981710Y-4074668D01*
G01X1084072Y-4074668D02*
G01X1084072Y-4138168D01*
G01X1035304Y-4074668D02*
G01X1035304Y-4113784D01*
G01X434340Y-3084068D02*
G01X437388Y-3084068D01*
G01X443738Y-3087116D01*
G01X446786Y-3090418D01*
G01X449834Y-3096514D01*
G01X449834Y-3108960D01*
G01X446786Y-3115056D01*
G01X443738Y-3118104D01*
G01X437388Y-3121152D01*
G01X431292Y-3121152D01*
G01X425196Y-3118104D01*
G01X415798Y-3112008D01*
G01X384810Y-3081020D01*
G01X384810Y-3124454D01*
G01X449834Y-3154680D02*
G01X384810Y-3154680D01*
G01X449834Y-3154680D02*
G01X384810Y-3197860D01*
G01X449834Y-3197860D02*
G01X384810Y-3197860D01*
G01X434340Y-3231134D02*
G01X437388Y-3231134D01*
G01X443738Y-3234182D01*
G01X446786Y-3237230D01*
G01X449834Y-3243326D01*
G01X449834Y-3255772D01*
G01X446786Y-3262122D01*
G01X443738Y-3265170D01*
G01X437388Y-3268218D01*
G01X431292Y-3268218D01*
G01X425196Y-3265170D01*
G01X415798Y-3258820D01*
G01X384810Y-3228086D01*
G01X384810Y-3271266D01*
G01X434340Y-3304540D02*
G01X437388Y-3304540D01*
G01X443738Y-3307588D01*
G01X446786Y-3310636D01*
G01X449834Y-3316732D01*
G01X449834Y-3329178D01*
G01X446786Y-3335528D01*
G01X443738Y-3338576D01*
G01X437388Y-3341624D01*
G01X431292Y-3341624D01*
G01X425196Y-3338576D01*
G01X415798Y-3332226D01*
G01X384810Y-3301492D01*
G01X384810Y-3344672D01*
G01X434340Y-3377946D02*
G01X437388Y-3377946D01*
G01X443738Y-3380994D01*
G01X446786Y-3384042D01*
G01X449834Y-3390138D01*
G01X449834Y-3402584D01*
G01X446786Y-3408934D01*
G01X443738Y-3411982D01*
G01X437388Y-3415030D01*
G01X431292Y-3415030D01*
G01X425196Y-3411982D01*
G01X415798Y-3405632D01*
G01X384810Y-3374898D01*
G01X384810Y-3418078D01*
G01X434340Y-3451352D02*
G01X437388Y-3451352D01*
G01X443738Y-3454400D01*
G01X446786Y-3457448D01*
G01X449834Y-3463544D01*
G01X449834Y-3475990D01*
G01X446786Y-3482340D01*
G01X443738Y-3485388D01*
G01X437388Y-3488436D01*
G01X431292Y-3488436D01*
G01X425196Y-3485388D01*
G01X415798Y-3479038D01*
G01X384810Y-3448304D01*
G01X384810Y-3491484D01*
G01X449834Y-3546348D02*
G01X384810Y-3521710D01*
G01X449834Y-3546348D02*
G01X384810Y-3571240D01*
G01X406654Y-3530854D02*
G01X406654Y-3561842D01*
G01X412750Y-3601466D02*
G01X412750Y-3657092D01*
G01X449834Y-3693414D02*
G01X449834Y-3727450D01*
G01X425196Y-3708908D01*
G01X425196Y-3718052D01*
G01X422148Y-3724402D01*
G01X418846Y-3727450D01*
G01X409702Y-3730498D01*
G01X403352Y-3730498D01*
G01X394208Y-3727450D01*
G01X387858Y-3721354D01*
G01X384810Y-3711956D01*
G01X384810Y-3702558D01*
G01X387858Y-3693414D01*
G01X391160Y-3690366D01*
G01X397256Y-3687318D01*
G01X449834Y-3766820D02*
G01X449834Y-3800856D01*
G01X425196Y-3782314D01*
G01X425196Y-3791458D01*
G01X422148Y-3797808D01*
G01X418846Y-3800856D01*
G01X409702Y-3803904D01*
G01X403352Y-3803904D01*
G01X394208Y-3800856D01*
G01X387858Y-3794760D01*
G01X384810Y-3785362D01*
G01X384810Y-3775964D01*
G01X387858Y-3766820D01*
G01X391160Y-3763772D01*
G01X397256Y-3760724D01*
G01X449834Y-3849370D02*
G01X446786Y-3840226D01*
G01X440690Y-3837178D01*
G01X434340Y-3837178D01*
G01X428244Y-3840226D01*
G01X425196Y-3846322D01*
G01X422148Y-3858768D01*
G01X418846Y-3868166D01*
G01X412750Y-3874262D01*
G01X406654Y-3877310D01*
G01X397256Y-3877310D01*
G01X391160Y-3874262D01*
G01X387858Y-3871214D01*
G01X384810Y-3861816D01*
G01X384810Y-3849370D01*
G01X387858Y-3840226D01*
G01X391160Y-3837178D01*
G01X397256Y-3834130D01*
G01X406654Y-3834130D01*
G01X412750Y-3837178D01*
G01X418846Y-3843274D01*
G01X422148Y-3852672D01*
G01X425196Y-3864864D01*
G01X428244Y-3871214D01*
G01X434340Y-3874262D01*
G01X440690Y-3874262D01*
G01X446786Y-3871214D01*
G01X449834Y-3861816D01*
G01X449834Y-3849370D01*
G04 Text End*

G04 PolygonModel Start*
G54D12*
G01X2095500Y-2082787D02*
G01X2095500Y-2158987D01*
G01X2095500Y-1168387D02*
G01X2095500Y-1092187D01*
G01X2260498Y-1175601D02*
G01X2260498Y-2075599D01*
G01X1930502Y-2075599D01*
G01X1930502Y-1175601D01*
G01X2260498Y-1175601D01*
G01X1663700Y-1841487D02*
G01X1663700Y-1917687D01*
G01X1663700Y-927087D02*
G01X1663700Y-850887D01*
G01X1828698Y-934301D02*
G01X1828698Y-1834299D01*
G01X1498702Y-1834299D01*
G01X1498702Y-934301D01*
G01X1828698Y-934301D01*
G01X2603614Y-706498D02*
G01X3134192Y-706498D01*
G01X2995168Y-1706626D02*
G01X3134192Y-1706626D01*
G01X2603614Y-1706502D02*
G01X2745199Y-1706502D01*
G01X3134192Y-1706502D02*
G01X3134192Y-706501D01*
G01X2603614Y-1706502D02*
G01X2603614Y-706498D01*
G01X2745199Y-1706502D02*
G02X2995168Y-1706626I124984J-622D01*
G36*
G01X3048000Y-1641297D02*
G02X3048000Y-1559103I0J41097D01*
G02X3048000Y-1641297I0J-41097D01*
G37*
G01X4254500Y-3771913D02*
G01X4254500Y-3695713D01*
G01X4254500Y-4686313D02*
G01X4254500Y-4762513D01*
G01X4089502Y-4679099D02*
G01X4089502Y-3779101D01*
G01X4419498Y-3779101D01*
G01X4419498Y-4679099D01*
G01X4089502Y-4679099D01*
G01X3632200Y-952513D02*
G01X3632200Y-876313D01*
G01X3632200Y-1866913D02*
G01X3632200Y-1943113D01*
G01X3467202Y-1859699D02*
G01X3467202Y-959701D01*
G01X3797198Y-959701D01*
G01X3797198Y-1859699D01*
G01X3467202Y-1859699D01*
G01X1892300Y-3784613D02*
G01X1892300Y-3708413D01*
G01X1892300Y-4699013D02*
G01X1892300Y-4775213D01*
G01X1727302Y-4691799D02*
G01X1727302Y-3791801D01*
G01X2057298Y-3791801D01*
G01X2057298Y-4691799D01*
G01X1727302Y-4691799D01*
G01X4114800Y-1866887D02*
G01X4114800Y-1943087D01*
G01X4114800Y-952487D02*
G01X4114800Y-876287D01*
G01X4279798Y-959701D02*
G01X4279798Y-1859699D01*
G01X3949802Y-1859699D01*
G01X3949802Y-959701D01*
G01X4279798Y-959701D01*
G01X4533900Y-1854187D02*
G01X4533900Y-1930387D01*
G01X4533900Y-939787D02*
G01X4533900Y-863587D01*
G01X4698898Y-947001D02*
G01X4698898Y-1846999D01*
G01X4368902Y-1846999D01*
G01X4368902Y-947001D01*
G01X4698898Y-947001D01*
G01X4686300Y-2463800D02*
G01X4686300Y-2743200D01*
G01X4686300Y-3225800D02*
G01X4686300Y-2946400D01*
G01X4686300Y-3225800D02*
G01X4560824Y-3225800D01*
G01X4354576Y-3225800D02*
G01X4306824Y-3225800D01*
G01X4100576Y-3225800D02*
G01X4052824Y-3225800D01*
G01X3846576Y-3225800D02*
G01X3798824Y-3225800D01*
G01X3592576Y-3225800D02*
G01X3544824Y-3225800D01*
G01X3338576Y-3225800D02*
G01X3290824Y-3225800D01*
G01X3084576Y-3225800D02*
G01X3036824Y-3225800D01*
G01X2830576Y-3225800D02*
G01X2692400Y-3225800D01*
G01X2692400Y-3225800D02*
G01X2692400Y-2463800D01*
G01X2692400Y-2463800D02*
G01X2830576Y-2463800D01*
G01X3036824Y-2463800D02*
G01X3084576Y-2463800D01*
G01X3290824Y-2463800D02*
G01X3338576Y-2463800D01*
G01X3544824Y-2463800D02*
G01X3592576Y-2463800D01*
G01X3798824Y-2463800D02*
G01X3846576Y-2463800D01*
G01X4052824Y-2463800D02*
G01X4100576Y-2463800D01*
G01X4306824Y-2463800D02*
G01X4354576Y-2463800D01*
G01X4560824Y-2463800D02*
G01X4686300Y-2463800D01*
G01X4686300Y-2946400D02*
G02X4686300Y-2743200I0J101600D01*
G01X4749800Y-3771913D02*
G01X4749800Y-3695713D01*
G01X4749800Y-4686313D02*
G01X4749800Y-4762513D01*
G01X4584802Y-4679099D02*
G01X4584802Y-3779101D01*
G01X4914798Y-3779101D01*
G01X4914798Y-4679099D01*
G01X4584802Y-4679099D01*
G01X3543300Y-3771913D02*
G01X3543300Y-3695713D01*
G01X3543300Y-4686313D02*
G01X3543300Y-4762513D01*
G01X3378302Y-4679099D02*
G01X3378302Y-3779101D01*
G01X3708298Y-3779101D01*
G01X3708298Y-4679099D01*
G01X3378302Y-4679099D01*
G01X493519Y-2167712D02*
G01X713481Y-2167712D01*
G01X713481Y-2167712D02*
G01X713481Y-2359731D01*
G01X713481Y-2359731D02*
G01X493519Y-2359731D01*
G01X493598Y-2667625D02*
G01X713598Y-2667625D01*
G01X713598Y-2667625D02*
G01X713598Y-2859601D01*
G01X713598Y-2859601D02*
G01X493598Y-2859601D01*
G01X1263599Y-2014598D02*
G01X1263599Y-3014599D01*
G01X1263599Y-3014599D02*
G01X493601Y-3014599D01*
G01X1263599Y-2014598D02*
G01X493601Y-2014598D01*
G01X493601Y-2014598D02*
G01X493601Y-3014599D01*
G01X1083655Y-2014598D02*
G01X1083655Y-3014599D01*
G01X1130300Y-3022600D02*
G01X1130300Y-3085399D01*
G01X1130300Y-3085399D02*
G01X1026239Y-3085399D01*
G01X1026239Y-3085399D02*
G01X1026239Y-3022600D01*
G01X2332812Y-5170681D02*
G01X2332812Y-4950719D01*
G01X2332812Y-4950719D02*
G01X2524831Y-4950719D01*
G01X2524831Y-4950719D02*
G01X2524831Y-5170681D01*
G01X2832725Y-5170602D02*
G01X2832725Y-4950602D01*
G01X2832725Y-4950602D02*
G01X3024701Y-4950602D01*
G01X3024701Y-4950602D02*
G01X3024701Y-5170602D01*
G01X2179698Y-4400601D02*
G01X3179699Y-4400601D01*
G01X3179699Y-4400601D02*
G01X3179699Y-5170599D01*
G01X2179698Y-4400601D02*
G01X2179698Y-5170599D01*
G01X2179698Y-5170599D02*
G01X3179699Y-5170599D01*
G01X2179698Y-4580545D02*
G01X3179699Y-4580545D01*
G01X3187700Y-4533900D02*
G01X3250499Y-4533900D01*
G01X3250499Y-4533900D02*
G01X3250499Y-4637961D01*
G01X3250499Y-4637961D02*
G01X3187700Y-4637961D01*
G01X497837Y-3820150D02*
G01X497837Y-3083550D01*
G01X497837Y-3083550D02*
G01X777237Y-3083550D01*
G01X777237Y-3083550D02*
G01X777237Y-3820150D01*
G01X777237Y-3820150D02*
G01X497837Y-3820150D01*

G04 Circle Start*
G01X613588Y-863600D02*
G03X1113612Y-863600I250012J0D01*
G03X613588Y-863600I-250012J0D01*
G01X613588Y-1562100D02*
G03X1113612Y-1562100I250012J0D01*
G03X613588Y-1562100I-250012J0D01*
G01X2569388Y-2006600D02*
G03X3069412Y-2006600I250012J0D01*
G03X2569388Y-2006600I-250012J0D01*
G01X1451788Y-2565400D02*
G03X1951812Y-2565400I250012J0D01*
G03X1451788Y-2565400I-250012J0D01*
G01X905688Y-4013200D02*
G03X1405712Y-4013200I250012J0D01*
G03X905688Y-4013200I-250012J0D01*
G04 Circle End*

M02*

