G04 Layer: DrillDrawingLayer*
G04 EasyEDA Pro v3.2.149.88089769, 2026-07-31 13:50:33*
G04 Gerber Generator version 0.3*
G04 Scale: 100 percent, Rotated: No, Reflected: No*
G04 Dimensions in millimeters*
G04 Leading zeros omitted, absolute positions, 4 integers and 5 decimals*
G04 Generated by one-click*
G04 Object Configs: Pad,Via,Track,Text,Image,Dimension,BoardOutline,BoardCutout,CopperFilled,SolidRegion,FPCStiffener,Line,PlaneZone,ComponentProperty,ComponentSilkscreen,TearDrop*
G04 Layer Configs: 1,2,3,4,5,6,7,8,9,10,11,13,14,56*
G04 Copper Areas: 0*
%FSLAX45Y45*%
%MOMM*%
%AMIconRect*4,1,4,0.28,-0.28,-0.28,-0.28,-0.28,0.28,0.28,0.28,0.28,-0.28,0*4,0,4,0.233333,-0.233333,0.233333,0.233333,-0.233333,0.233333,-0.233333,-0.233333,0.233333,-0.233333,0*%
%AMIconTriangle*4,1,3,-0.339593,0.240473,0.339593,0.240473,0,-0.37884,-0.339593,0.240473,0*4,0,3,-0.265673,0.19404,0,-0.27342,0.266233,0.19404,-0.265673,0.19404,0*%
%AMIconStar6*4,1,12,0.12068,0.20888,0.298527,0.172713,0.241313,0,0.298527,-0.17206,0.12068,-0.208227,0,-0.344073,-0.120073,-0.208227,-0.298573,-0.17206,-0.240707,0,-0.298573,0.17206,-0.120073,0.20888,0,0.344073,0.12068,0.20888,0*4,0,12,-0.000467,0.273467,-0.090067,0.171733,-0.237533,0.136733,-0.193667,-0.007467,-0.237533,-0.1372,-0.090067,-0.171733,-0.000467,-0.273933,0.090067,-0.171733,0.237533,-0.1372,0.194133,0.007,0.237533,0.1372,0.090067,0.171267,-0.000467,0.273467,0*%
%AMIconStar4*4,1,8,-0.311733,0.311733,0,0.202533,0.311733,0.311733,0.202533,0,0.311733,-0.311733,0,-0.202533,-0.304407,-0.311733,-0.202533,0,-0.311733,0.311733,0*4,0,8,0.233333,-0.233333,0.1512,0,0.233333,0.233333,0,0.1512,-0.233333,0.233333,-0.1512,0,-0.233333,-0.233333,0,-0.1512,0.233333,-0.233333,0*%
%AMIconPlus*4,1,12,0.1736,-0.28,-0.1736,-0.28,-0.1736,-0.1736,-0.28,-0.1736,-0.28,0.1736,-0.1736,0.1736,-0.1736,0.28,0.1736,0.28,0.1736,0.1736,0.28,0.1736,0.28,-0.1736,0.1736,-0.1736,0.1736,-0.28,0*4,0,12,0.126933,-0.233333,0.126933,-0.126933,0.233333,-0.126933,0.233333,0.126933,0.126933,0.126933,0.126933,0.233333,-0.126933,0.233333,-0.126933,0.126933,-0.233333,0.126933,-0.233333,-0.126933,-0.126933,-0.126933,-0.126933,-0.233333,0.126933,-0.233333,0*%
%ADD10IconRect*%
%ADD11C,0.616X0.522667*%
%ADD12IconTriangle*%
%ADD13IconStar6*%
%ADD14IconStar4*%
%ADD15IconPlus*%
%ADD16C,0.2032*%
%ADD17C,0.254*%
G75*


G04 Drill Drawing Start*
G54D10*
G01X711200Y-5207000D03*
G01X711200Y-393700D03*
G01X5181600Y-5219700D03*
G01X5181600Y-393700D03*
G54D11*
G01X863600Y-2764599D03*
G01X863600Y-2264600D03*
G01X2429701Y-4800600D03*
G01X2929700Y-4800600D03*
G54D12*
G01X2489200Y-1587500D03*
G01X2489200Y-1333500D03*
G01X2489200Y-1079500D03*
G01X2489200Y-825500D03*
G01X3251200Y-1587500D03*
G01X3251200Y-1333500D03*
G01X3251200Y-1079500D03*
G01X3251200Y-825500D03*
G54D13*
G01X863600Y-1662100D03*
G01X863600Y-1462100D03*
G01X863600Y-963600D03*
G01X863600Y-763600D03*
G01X1155700Y-4113200D03*
G01X1155700Y-3913200D03*
G01X1601800Y-2565400D03*
G01X1801800Y-2565400D03*
G01X2819400Y-2106600D03*
G01X2819400Y-1906600D03*
G54D14*
G01X2933700Y-3225800D03*
G01X2933700Y-2463800D03*
G01X3187700Y-3225800D03*
G01X3187700Y-2463800D03*
G01X3441700Y-3225800D03*
G01X3441700Y-2463800D03*
G01X3695700Y-3225800D03*
G01X3695700Y-2463800D03*
G01X3949700Y-3225800D03*
G01X3949700Y-2463800D03*
G01X4203700Y-3225800D03*
G01X4203700Y-2463800D03*
G01X4457700Y-3225800D03*
G01X4457700Y-2463800D03*
G54D15*
G01X635005Y-3704407D03*
G01X635005Y-3454408D03*
G01X635005Y-3204408D03*
G01X1663700Y-2034291D03*
G01X1663700Y-734299D03*
G01X1892300Y-4891801D03*
G01X1892300Y-3591809D03*
G01X2095500Y-2275591D03*
G01X2095500Y-975599D03*
G01X3543300Y-4879101D03*
G01X3543300Y-3579109D03*
G01X3632200Y-2059701D03*
G01X3632200Y-759709D03*
G01X4114800Y-2059691D03*
G01X4114800Y-759699D03*
G01X4254500Y-4879101D03*
G01X4254500Y-3579109D03*
G01X4533900Y-2046991D03*
G01X4533900Y-746999D03*
G01X4749800Y-4879101D03*
G01X4749800Y-3579109D03*
G04 Drill Drawing End*

G04 Text Start*
G54D16*
G01X8186896Y-228056D02*
G01X8186896Y-348198D01*
G01X8186896Y-228056D02*
G01X8232616Y-348198D01*
G01X8278336Y-228056D02*
G01X8232616Y-348198D01*
G01X8278336Y-228056D02*
G01X8278336Y-348198D01*
G01X8394668Y-268188D02*
G01X8394668Y-348198D01*
G01X8394668Y-285206D02*
G01X8383238Y-273776D01*
G01X8371808Y-268188D01*
G01X8354790Y-268188D01*
G01X8343360Y-273776D01*
G01X8331930Y-285206D01*
G01X8326088Y-302478D01*
G01X8326088Y-313908D01*
G01X8331930Y-330926D01*
G01X8343360Y-342356D01*
G01X8354790Y-348198D01*
G01X8371808Y-348198D01*
G01X8383238Y-342356D01*
G01X8394668Y-330926D01*
G01X8442420Y-268188D02*
G01X8442420Y-348198D01*
G01X8442420Y-302478D02*
G01X8448262Y-285206D01*
G01X8459692Y-273776D01*
G01X8471122Y-268188D01*
G01X8488140Y-268188D01*
G01X8535892Y-228056D02*
G01X8535892Y-348198D01*
G01X8593042Y-268188D02*
G01X8535892Y-325338D01*
G01X8558752Y-302478D02*
G01X8598884Y-348198D01*
G01X9724176Y-256758D02*
G01X9718334Y-245328D01*
G01X9706904Y-233898D01*
G01X9695474Y-228056D01*
G01X9672614Y-228056D01*
G01X9661184Y-233898D01*
G01X9649754Y-245328D01*
G01X9644166Y-256758D01*
G01X9638324Y-273776D01*
G01X9638324Y-302478D01*
G01X9644166Y-319496D01*
G01X9649754Y-330926D01*
G01X9661184Y-342356D01*
G01X9672614Y-348198D01*
G01X9695474Y-348198D01*
G01X9706904Y-342356D01*
G01X9718334Y-330926D01*
G01X9724176Y-319496D01*
G01X9800630Y-268188D02*
G01X9789200Y-273776D01*
G01X9777770Y-285206D01*
G01X9771928Y-302478D01*
G01X9771928Y-313908D01*
G01X9777770Y-330926D01*
G01X9789200Y-342356D01*
G01X9800630Y-348198D01*
G01X9817648Y-348198D01*
G01X9829078Y-342356D01*
G01X9840508Y-330926D01*
G01X9846350Y-313908D01*
G01X9846350Y-302478D01*
G01X9840508Y-285206D01*
G01X9829078Y-273776D01*
G01X9817648Y-268188D01*
G01X9800630Y-268188D01*
G01X9894102Y-268188D02*
G01X9894102Y-325338D01*
G01X9899944Y-342356D01*
G01X9911374Y-348198D01*
G01X9928392Y-348198D01*
G01X9939822Y-342356D01*
G01X9957094Y-325338D01*
G01X9957094Y-268188D02*
G01X9957094Y-348198D01*
G01X10004846Y-268188D02*
G01X10004846Y-348198D01*
G01X10004846Y-291048D02*
G01X10022118Y-273776D01*
G01X10033548Y-268188D01*
G01X10050566Y-268188D01*
G01X10061996Y-273776D01*
G01X10067838Y-291048D01*
G01X10067838Y-348198D01*
G01X10132862Y-228056D02*
G01X10132862Y-325338D01*
G01X10138450Y-342356D01*
G01X10149880Y-348198D01*
G01X10161310Y-348198D01*
G01X10115590Y-268188D02*
G01X10155722Y-268188D01*
G01X11132497Y-245328D02*
G01X11121067Y-233898D01*
G01X11104049Y-228056D01*
G01X11081189Y-228056D01*
G01X11063917Y-233898D01*
G01X11052487Y-245328D01*
G01X11052487Y-256758D01*
G01X11058329Y-268188D01*
G01X11063917Y-273776D01*
G01X11075347Y-279618D01*
G01X11109637Y-291048D01*
G01X11121067Y-296636D01*
G01X11126909Y-302478D01*
G01X11132497Y-313908D01*
G01X11132497Y-330926D01*
G01X11121067Y-342356D01*
G01X11104049Y-348198D01*
G01X11081189Y-348198D01*
G01X11063917Y-342356D01*
G01X11052487Y-330926D01*
G01X11180249Y-228056D02*
G01X11186091Y-233898D01*
G01X11191679Y-228056D01*
G01X11186091Y-222468D01*
G01X11180249Y-228056D01*
G01X11186091Y-268188D02*
G01X11186091Y-348198D01*
G01X11302423Y-268188D02*
G01X11239431Y-348198D01*
G01X11239431Y-268188D02*
G01X11302423Y-268188D01*
G01X11239431Y-348198D02*
G01X11302423Y-348198D01*
G01X11350175Y-302478D02*
G01X11418755Y-302478D01*
G01X11418755Y-291048D01*
G01X11413167Y-279618D01*
G01X11407325Y-273776D01*
G01X11395895Y-268188D01*
G01X11378877Y-268188D01*
G01X11367447Y-273776D01*
G01X11356017Y-285206D01*
G01X11350175Y-302478D01*
G01X11350175Y-313908D01*
G01X11356017Y-330926D01*
G01X11367447Y-342356D01*
G01X11378877Y-348198D01*
G01X11395895Y-348198D01*
G01X11407325Y-342356D01*
G01X11418755Y-330926D01*
G01X15133905Y-228056D02*
G01X15133905Y-348198D01*
G01X15133905Y-228056D02*
G01X15185467Y-228056D01*
G01X15202485Y-233898D01*
G01X15208327Y-239486D01*
G01X15213915Y-250916D01*
G01X15213915Y-268188D01*
G01X15208327Y-279618D01*
G01X15202485Y-285206D01*
G01X15185467Y-291048D01*
G01X15133905Y-291048D01*
G01X15261667Y-228056D02*
G01X15261667Y-348198D01*
G01X15377999Y-268188D02*
G01X15377999Y-348198D01*
G01X15377999Y-285206D02*
G01X15366569Y-273776D01*
G01X15355139Y-268188D01*
G01X15338121Y-268188D01*
G01X15326691Y-273776D01*
G01X15315261Y-285206D01*
G01X15309419Y-302478D01*
G01X15309419Y-313908D01*
G01X15315261Y-330926D01*
G01X15326691Y-342356D01*
G01X15338121Y-348198D01*
G01X15355139Y-348198D01*
G01X15366569Y-342356D01*
G01X15377999Y-330926D01*
G01X15443023Y-228056D02*
G01X15443023Y-325338D01*
G01X15448611Y-342356D01*
G01X15460041Y-348198D01*
G01X15471471Y-348198D01*
G01X15425751Y-268188D02*
G01X15465883Y-268188D01*
G01X15519223Y-302478D02*
G01X15587803Y-302478D01*
G01X15587803Y-291048D01*
G01X15582215Y-279618D01*
G01X15576373Y-273776D01*
G01X15564943Y-268188D01*
G01X15547925Y-268188D01*
G01X15536495Y-273776D01*
G01X15525065Y-285206D01*
G01X15519223Y-302478D01*
G01X15519223Y-313908D01*
G01X15525065Y-330926D01*
G01X15536495Y-342356D01*
G01X15547925Y-348198D01*
G01X15564943Y-348198D01*
G01X15576373Y-342356D01*
G01X15587803Y-330926D01*
G01X15704135Y-228056D02*
G01X15704135Y-348198D01*
G01X15704135Y-285206D02*
G01X15692705Y-273776D01*
G01X15681275Y-268188D01*
G01X15664257Y-268188D01*
G01X15652827Y-273776D01*
G01X15641397Y-285206D01*
G01X15635555Y-302478D01*
G01X15635555Y-313908D01*
G01X15641397Y-330926D01*
G01X15652827Y-342356D01*
G01X15664257Y-348198D01*
G01X15681275Y-348198D01*
G01X15692705Y-342356D01*
G01X15704135Y-330926D01*
G01X16675322Y-245328D02*
G01X16663892Y-233898D01*
G01X16646874Y-228056D01*
G01X16624014Y-228056D01*
G01X16606742Y-233898D01*
G01X16595312Y-245328D01*
G01X16595312Y-256758D01*
G01X16601154Y-268188D01*
G01X16606742Y-273776D01*
G01X16618172Y-279618D01*
G01X16652462Y-291048D01*
G01X16663892Y-296636D01*
G01X16669734Y-302478D01*
G01X16675322Y-313908D01*
G01X16675322Y-330926D01*
G01X16663892Y-342356D01*
G01X16646874Y-348198D01*
G01X16624014Y-348198D01*
G01X16606742Y-342356D01*
G01X16595312Y-330926D01*
G01X16723074Y-228056D02*
G01X16723074Y-348198D01*
G01X16723074Y-291048D02*
G01X16740346Y-273776D01*
G01X16751776Y-268188D01*
G01X16768794Y-268188D01*
G01X16780224Y-273776D01*
G01X16786066Y-291048D01*
G01X16786066Y-348198D01*
G01X16902398Y-268188D02*
G01X16902398Y-348198D01*
G01X16902398Y-285206D02*
G01X16890968Y-273776D01*
G01X16879538Y-268188D01*
G01X16862520Y-268188D01*
G01X16851090Y-273776D01*
G01X16839660Y-285206D01*
G01X16833818Y-302478D01*
G01X16833818Y-313908D01*
G01X16839660Y-330926D01*
G01X16851090Y-342356D01*
G01X16862520Y-348198D01*
G01X16879538Y-348198D01*
G01X16890968Y-342356D01*
G01X16902398Y-330926D01*
G01X16950150Y-268188D02*
G01X16950150Y-388076D01*
G01X16950150Y-285206D02*
G01X16961580Y-273776D01*
G01X16973010Y-268188D01*
G01X16990282Y-268188D01*
G01X17001712Y-273776D01*
G01X17013142Y-285206D01*
G01X17018730Y-302478D01*
G01X17018730Y-313908D01*
G01X17013142Y-330926D01*
G01X17001712Y-342356D01*
G01X16990282Y-348198D01*
G01X16973010Y-348198D01*
G01X16961580Y-342356D01*
G01X16950150Y-330926D01*
G01X17066482Y-302478D02*
G01X17135062Y-302478D01*
G01X17135062Y-291048D01*
G01X17129474Y-279618D01*
G01X17123632Y-273776D01*
G01X17112202Y-268188D01*
G01X17095184Y-268188D01*
G01X17083754Y-273776D01*
G01X17072324Y-285206D01*
G01X17066482Y-302478D01*
G01X17066482Y-313908D01*
G01X17072324Y-330926D01*
G01X17083754Y-342356D01*
G01X17095184Y-348198D01*
G01X17112202Y-348198D01*
G01X17123632Y-342356D01*
G01X17135062Y-330926D01*
G01X18026493Y-228056D02*
G01X18072213Y-348198D01*
G01X18117933Y-228056D02*
G01X18072213Y-348198D01*
G01X18165685Y-228056D02*
G01X18171527Y-233898D01*
G01X18177115Y-228056D01*
G01X18171527Y-222468D01*
G01X18165685Y-228056D01*
G01X18171527Y-268188D02*
G01X18171527Y-348198D01*
G01X18293447Y-268188D02*
G01X18293447Y-348198D01*
G01X18293447Y-285206D02*
G01X18282017Y-273776D01*
G01X18270587Y-268188D01*
G01X18253569Y-268188D01*
G01X18242139Y-273776D01*
G01X18230709Y-285206D01*
G01X18224867Y-302478D01*
G01X18224867Y-313908D01*
G01X18230709Y-330926D01*
G01X18242139Y-342356D01*
G01X18253569Y-348198D01*
G01X18270587Y-348198D01*
G01X18282017Y-342356D01*
G01X18293447Y-330926D01*
G01X18444069Y-205196D02*
G01X18341199Y-388076D01*
G01X18491821Y-228056D02*
G01X18491821Y-348198D01*
G01X18491821Y-228056D02*
G01X18543383Y-228056D01*
G01X18560401Y-233898D01*
G01X18566243Y-239486D01*
G01X18571831Y-250916D01*
G01X18571831Y-268188D01*
G01X18566243Y-279618D01*
G01X18560401Y-285206D01*
G01X18543383Y-291048D01*
G01X18491821Y-291048D01*
G01X18688163Y-268188D02*
G01X18688163Y-348198D01*
G01X18688163Y-285206D02*
G01X18676733Y-273776D01*
G01X18665303Y-268188D01*
G01X18648285Y-268188D01*
G01X18636855Y-273776D01*
G01X18625425Y-285206D01*
G01X18619583Y-302478D01*
G01X18619583Y-313908D01*
G01X18625425Y-330926D01*
G01X18636855Y-342356D01*
G01X18648285Y-348198D01*
G01X18665303Y-348198D01*
G01X18676733Y-342356D01*
G01X18688163Y-330926D01*
G01X18804495Y-228056D02*
G01X18804495Y-348198D01*
G01X18804495Y-285206D02*
G01X18793065Y-273776D01*
G01X18781635Y-268188D01*
G01X18764617Y-268188D01*
G01X18753187Y-273776D01*
G01X18741757Y-285206D01*
G01X18735915Y-302478D01*
G01X18735915Y-313908D01*
G01X18741757Y-330926D01*
G01X18753187Y-342356D01*
G01X18764617Y-348198D01*
G01X18781635Y-348198D01*
G01X18793065Y-342356D01*
G01X18804495Y-330926D01*
G01X19695672Y-228056D02*
G01X19695672Y-348198D01*
G01X19695672Y-228056D02*
G01X19747234Y-228056D01*
G01X19764252Y-233898D01*
G01X19770094Y-239486D01*
G01X19775682Y-250916D01*
G01X19775682Y-268188D01*
G01X19770094Y-279618D01*
G01X19764252Y-285206D01*
G01X19747234Y-291048D01*
G01X19695672Y-291048D01*
G01X19892014Y-268188D02*
G01X19892014Y-348198D01*
G01X19892014Y-285206D02*
G01X19880584Y-273776D01*
G01X19869154Y-268188D01*
G01X19852136Y-268188D01*
G01X19840706Y-273776D01*
G01X19829276Y-285206D01*
G01X19823434Y-302478D01*
G01X19823434Y-313908D01*
G01X19829276Y-330926D01*
G01X19840706Y-342356D01*
G01X19852136Y-348198D01*
G01X19869154Y-348198D01*
G01X19880584Y-342356D01*
G01X19892014Y-330926D01*
G01X20008346Y-228056D02*
G01X20008346Y-348198D01*
G01X20008346Y-285206D02*
G01X19996916Y-273776D01*
G01X19985486Y-268188D01*
G01X19968468Y-268188D01*
G01X19957038Y-273776D01*
G01X19945608Y-285206D01*
G01X19939766Y-302478D01*
G01X19939766Y-313908D01*
G01X19945608Y-330926D01*
G01X19957038Y-342356D01*
G01X19968468Y-348198D01*
G01X19985486Y-348198D01*
G01X19996916Y-342356D01*
G01X20008346Y-330926D01*
G01X20264124Y-245328D02*
G01X20252694Y-233898D01*
G01X20235676Y-228056D01*
G01X20212816Y-228056D01*
G01X20195544Y-233898D01*
G01X20184114Y-245328D01*
G01X20184114Y-256758D01*
G01X20189956Y-268188D01*
G01X20195544Y-273776D01*
G01X20206974Y-279618D01*
G01X20241264Y-291048D01*
G01X20252694Y-296636D01*
G01X20258536Y-302478D01*
G01X20264124Y-313908D01*
G01X20264124Y-330926D01*
G01X20252694Y-342356D01*
G01X20235676Y-348198D01*
G01X20212816Y-348198D01*
G01X20195544Y-342356D01*
G01X20184114Y-330926D01*
G01X20311876Y-228056D02*
G01X20311876Y-348198D01*
G01X20311876Y-291048D02*
G01X20329148Y-273776D01*
G01X20340578Y-268188D01*
G01X20357596Y-268188D01*
G01X20369026Y-273776D01*
G01X20374868Y-291048D01*
G01X20374868Y-348198D01*
G01X20491200Y-268188D02*
G01X20491200Y-348198D01*
G01X20491200Y-285206D02*
G01X20479770Y-273776D01*
G01X20468340Y-268188D01*
G01X20451322Y-268188D01*
G01X20439892Y-273776D01*
G01X20428462Y-285206D01*
G01X20422620Y-302478D01*
G01X20422620Y-313908D01*
G01X20428462Y-330926D01*
G01X20439892Y-342356D01*
G01X20451322Y-348198D01*
G01X20468340Y-348198D01*
G01X20479770Y-342356D01*
G01X20491200Y-330926D01*
G01X20538952Y-268188D02*
G01X20538952Y-388076D01*
G01X20538952Y-285206D02*
G01X20550382Y-273776D01*
G01X20561812Y-268188D01*
G01X20579084Y-268188D01*
G01X20590514Y-273776D01*
G01X20601944Y-285206D01*
G01X20607532Y-302478D01*
G01X20607532Y-313908D01*
G01X20601944Y-330926D01*
G01X20590514Y-342356D01*
G01X20579084Y-348198D01*
G01X20561812Y-348198D01*
G01X20550382Y-342356D01*
G01X20538952Y-330926D01*
G01X20655284Y-302478D02*
G01X20723864Y-302478D01*
G01X20723864Y-291048D01*
G01X20718276Y-279618D01*
G01X20712434Y-273776D01*
G01X20701004Y-268188D01*
G01X20683986Y-268188D01*
G01X20672556Y-273776D01*
G01X20661126Y-285206D01*
G01X20655284Y-302478D01*
G01X20655284Y-313908D01*
G01X20661126Y-330926D01*
G01X20672556Y-342356D01*
G01X20683986Y-348198D01*
G01X20701004Y-348198D01*
G01X20712434Y-342356D01*
G01X20723864Y-330926D01*
G01X21615041Y-228056D02*
G01X21615041Y-348198D01*
G01X21615041Y-348198D02*
G01X21683621Y-348198D01*
G01X21799953Y-268188D02*
G01X21799953Y-348198D01*
G01X21799953Y-285206D02*
G01X21788523Y-273776D01*
G01X21777093Y-268188D01*
G01X21760075Y-268188D01*
G01X21748645Y-273776D01*
G01X21737215Y-285206D01*
G01X21731373Y-302478D01*
G01X21731373Y-313908D01*
G01X21737215Y-330926D01*
G01X21748645Y-342356D01*
G01X21760075Y-348198D01*
G01X21777093Y-348198D01*
G01X21788523Y-342356D01*
G01X21799953Y-330926D01*
G01X21853547Y-268188D02*
G01X21887837Y-348198D01*
G01X21922127Y-268188D02*
G01X21887837Y-348198D01*
G01X21876407Y-371058D01*
G01X21864977Y-382488D01*
G01X21853547Y-388076D01*
G01X21847705Y-388076D01*
G01X21969879Y-302478D02*
G01X22038459Y-302478D01*
G01X22038459Y-291048D01*
G01X22032871Y-279618D01*
G01X22027029Y-273776D01*
G01X22015599Y-268188D01*
G01X21998581Y-268188D01*
G01X21987151Y-273776D01*
G01X21975721Y-285206D01*
G01X21969879Y-302478D01*
G01X21969879Y-313908D01*
G01X21975721Y-330926D01*
G01X21987151Y-342356D01*
G01X21998581Y-348198D01*
G01X22015599Y-348198D01*
G01X22027029Y-342356D01*
G01X22038459Y-330926D01*
G01X22086211Y-268188D02*
G01X22086211Y-348198D01*
G01X22086211Y-302478D02*
G01X22092053Y-285206D01*
G01X22103483Y-273776D01*
G01X22114913Y-268188D01*
G01X22131931Y-268188D01*
G01X22307699Y-228056D02*
G01X22307699Y-348198D01*
G01X22307699Y-228056D02*
G01X22359261Y-228056D01*
G01X22376279Y-233898D01*
G01X22382121Y-239486D01*
G01X22387709Y-250916D01*
G01X22387709Y-268188D01*
G01X22382121Y-279618D01*
G01X22376279Y-285206D01*
G01X22359261Y-291048D01*
G01X22307699Y-291048D01*
G01X22504041Y-268188D02*
G01X22504041Y-348198D01*
G01X22504041Y-285206D02*
G01X22492611Y-273776D01*
G01X22481181Y-268188D01*
G01X22464163Y-268188D01*
G01X22452733Y-273776D01*
G01X22441303Y-285206D01*
G01X22435461Y-302478D01*
G01X22435461Y-313908D01*
G01X22441303Y-330926D01*
G01X22452733Y-342356D01*
G01X22464163Y-348198D01*
G01X22481181Y-348198D01*
G01X22492611Y-342356D01*
G01X22504041Y-330926D01*
G01X22551793Y-228056D02*
G01X22557635Y-233898D01*
G01X22563223Y-228056D01*
G01X22557635Y-222468D01*
G01X22551793Y-228056D01*
G01X22557635Y-268188D02*
G01X22557635Y-348198D01*
G01X22610975Y-268188D02*
G01X22610975Y-348198D01*
G01X22610975Y-302478D02*
G01X22616817Y-285206D01*
G01X22628247Y-273776D01*
G01X22639677Y-268188D01*
G01X22656695Y-268188D01*
G01X9695474Y-808627D02*
G01X9638324Y-888637D01*
G01X9724176Y-888637D01*
G01X9695474Y-808627D02*
G01X9695474Y-928769D01*
G01X11052487Y-831487D02*
G01X11063917Y-825899D01*
G01X11081189Y-808627D01*
G01X11081189Y-928769D01*
G01X11140371Y-808627D02*
G01X11203363Y-808627D01*
G01X11169073Y-854347D01*
G01X11186091Y-854347D01*
G01X11197521Y-860189D01*
G01X11203363Y-865777D01*
G01X11208951Y-883049D01*
G01X11208951Y-894479D01*
G01X11203363Y-911497D01*
G01X11191933Y-922927D01*
G01X11174661Y-928769D01*
G01X11157643Y-928769D01*
G01X11140371Y-922927D01*
G01X11134783Y-917339D01*
G01X11128941Y-905909D01*
G01X11313853Y-808627D02*
G01X11256703Y-888637D01*
G01X11342555Y-888637D01*
G01X11313853Y-808627D02*
G01X11313853Y-928769D01*
G01X11396149Y-900067D02*
G01X11390307Y-905909D01*
G01X11396149Y-911497D01*
G01X11401737Y-905909D01*
G01X11396149Y-900067D01*
G01X11483779Y-808627D02*
G01X11466761Y-814469D01*
G01X11455331Y-831487D01*
G01X11449489Y-860189D01*
G01X11449489Y-877207D01*
G01X11455331Y-905909D01*
G01X11466761Y-922927D01*
G01X11483779Y-928769D01*
G01X11495209Y-928769D01*
G01X11512481Y-922927D01*
G01X11523911Y-905909D01*
G01X11529499Y-877207D01*
G01X11529499Y-860189D01*
G01X11523911Y-831487D01*
G01X11512481Y-814469D01*
G01X11495209Y-808627D01*
G01X11483779Y-808627D01*
G01X11577251Y-848759D02*
G01X11640243Y-928769D01*
G01X11640243Y-848759D02*
G01X11577251Y-928769D01*
G01X11687995Y-831487D02*
G01X11699425Y-825899D01*
G01X11716697Y-808627D01*
G01X11716697Y-928769D01*
G01X11775879Y-808627D02*
G01X11838871Y-808627D01*
G01X11804581Y-854347D01*
G01X11821599Y-854347D01*
G01X11833029Y-860189D01*
G01X11838871Y-865777D01*
G01X11844459Y-883049D01*
G01X11844459Y-894479D01*
G01X11838871Y-911497D01*
G01X11827441Y-922927D01*
G01X11810169Y-928769D01*
G01X11793151Y-928769D01*
G01X11775879Y-922927D01*
G01X11770291Y-917339D01*
G01X11764449Y-905909D01*
G01X11949361Y-808627D02*
G01X11892211Y-888637D01*
G01X11978063Y-888637D01*
G01X11949361Y-808627D02*
G01X11949361Y-928769D01*
G01X12031657Y-900067D02*
G01X12025815Y-905909D01*
G01X12031657Y-911497D01*
G01X12037245Y-905909D01*
G01X12031657Y-900067D01*
G01X12119287Y-808627D02*
G01X12102269Y-814469D01*
G01X12090839Y-831487D01*
G01X12084997Y-860189D01*
G01X12084997Y-877207D01*
G01X12090839Y-905909D01*
G01X12102269Y-922927D01*
G01X12119287Y-928769D01*
G01X12130717Y-928769D01*
G01X12147989Y-922927D01*
G01X12159419Y-905909D01*
G01X12165007Y-877207D01*
G01X12165007Y-860189D01*
G01X12159419Y-831487D01*
G01X12147989Y-814469D01*
G01X12130717Y-808627D01*
G01X12119287Y-808627D01*
G01X12212759Y-848759D02*
G01X12212759Y-928769D01*
G01X12212759Y-871619D02*
G01X12230031Y-854347D01*
G01X12241461Y-848759D01*
G01X12258479Y-848759D01*
G01X12269909Y-854347D01*
G01X12275751Y-871619D01*
G01X12275751Y-928769D01*
G01X12275751Y-871619D02*
G01X12292769Y-854347D01*
G01X12304199Y-848759D01*
G01X12321471Y-848759D01*
G01X12332901Y-854347D01*
G01X12338489Y-871619D01*
G01X12338489Y-928769D01*
G01X12386241Y-808627D02*
G01X12392083Y-814469D01*
G01X12397671Y-808627D01*
G01X12392083Y-803039D01*
G01X12386241Y-808627D01*
G01X12392083Y-848759D02*
G01X12392083Y-928769D01*
G01X12445423Y-808627D02*
G01X12445423Y-928769D01*
G01X12533307Y-785767D02*
G01X12521877Y-797197D01*
G01X12510447Y-814469D01*
G01X12499017Y-837329D01*
G01X12493175Y-865777D01*
G01X12493175Y-888637D01*
G01X12499017Y-917339D01*
G01X12510447Y-940199D01*
G01X12521877Y-957217D01*
G01X12533307Y-968647D01*
G01X12592489Y-808627D02*
G01X12655481Y-808627D01*
G01X12621191Y-854347D01*
G01X12638209Y-854347D01*
G01X12649639Y-860189D01*
G01X12655481Y-865777D01*
G01X12661069Y-883049D01*
G01X12661069Y-894479D01*
G01X12655481Y-911497D01*
G01X12644051Y-922927D01*
G01X12626779Y-928769D01*
G01X12609761Y-928769D01*
G01X12592489Y-922927D01*
G01X12586901Y-917339D01*
G01X12581059Y-905909D01*
G01X12714663Y-900067D02*
G01X12708821Y-905909D01*
G01X12714663Y-911497D01*
G01X12720251Y-905909D01*
G01X12714663Y-900067D01*
G01X12825153Y-808627D02*
G01X12768003Y-888637D01*
G01X12853855Y-888637D01*
G01X12825153Y-808627D02*
G01X12825153Y-928769D01*
G01X12935897Y-808627D02*
G01X12918879Y-814469D01*
G01X12907449Y-831487D01*
G01X12901607Y-860189D01*
G01X12901607Y-877207D01*
G01X12907449Y-905909D01*
G01X12918879Y-922927D01*
G01X12935897Y-928769D01*
G01X12947327Y-928769D01*
G01X12964599Y-922927D01*
G01X12976029Y-905909D01*
G01X12981617Y-877207D01*
G01X12981617Y-860189D01*
G01X12976029Y-831487D01*
G01X12964599Y-814469D01*
G01X12947327Y-808627D01*
G01X12935897Y-808627D01*
G01X13086519Y-808627D02*
G01X13029369Y-888637D01*
G01X13115221Y-888637D01*
G01X13086519Y-808627D02*
G01X13086519Y-928769D01*
G01X13162973Y-848759D02*
G01X13225965Y-928769D01*
G01X13225965Y-848759D02*
G01X13162973Y-928769D01*
G01X13285147Y-808627D02*
G01X13348139Y-808627D01*
G01X13313849Y-854347D01*
G01X13330867Y-854347D01*
G01X13342297Y-860189D01*
G01X13348139Y-865777D01*
G01X13353727Y-883049D01*
G01X13353727Y-894479D01*
G01X13348139Y-911497D01*
G01X13336709Y-922927D01*
G01X13319437Y-928769D01*
G01X13302419Y-928769D01*
G01X13285147Y-922927D01*
G01X13279559Y-917339D01*
G01X13273717Y-905909D01*
G01X13407321Y-900067D02*
G01X13401479Y-905909D01*
G01X13407321Y-911497D01*
G01X13412909Y-905909D01*
G01X13407321Y-900067D01*
G01X13517811Y-808627D02*
G01X13460661Y-888637D01*
G01X13546513Y-888637D01*
G01X13517811Y-808627D02*
G01X13517811Y-928769D01*
G01X13628555Y-808627D02*
G01X13611537Y-814469D01*
G01X13600107Y-831487D01*
G01X13594265Y-860189D01*
G01X13594265Y-877207D01*
G01X13600107Y-905909D01*
G01X13611537Y-922927D01*
G01X13628555Y-928769D01*
G01X13639985Y-928769D01*
G01X13657257Y-922927D01*
G01X13668687Y-905909D01*
G01X13674275Y-877207D01*
G01X13674275Y-860189D01*
G01X13668687Y-831487D01*
G01X13657257Y-814469D01*
G01X13639985Y-808627D01*
G01X13628555Y-808627D01*
G01X13779177Y-808627D02*
G01X13722027Y-888637D01*
G01X13807879Y-888637D01*
G01X13779177Y-808627D02*
G01X13779177Y-928769D01*
G01X13855631Y-848759D02*
G01X13855631Y-928769D01*
G01X13855631Y-871619D02*
G01X13872903Y-854347D01*
G01X13884333Y-848759D01*
G01X13901351Y-848759D01*
G01X13912781Y-854347D01*
G01X13918623Y-871619D01*
G01X13918623Y-928769D01*
G01X13918623Y-871619D02*
G01X13935641Y-854347D01*
G01X13947071Y-848759D01*
G01X13964343Y-848759D01*
G01X13975773Y-854347D01*
G01X13981361Y-871619D01*
G01X13981361Y-928769D01*
G01X14029113Y-848759D02*
G01X14029113Y-928769D01*
G01X14029113Y-871619D02*
G01X14046385Y-854347D01*
G01X14057815Y-848759D01*
G01X14074833Y-848759D01*
G01X14086263Y-854347D01*
G01X14092105Y-871619D01*
G01X14092105Y-928769D01*
G01X14092105Y-871619D02*
G01X14109123Y-854347D01*
G01X14120553Y-848759D01*
G01X14137825Y-848759D01*
G01X14149255Y-854347D01*
G01X14154843Y-871619D01*
G01X14154843Y-928769D01*
G01X14202595Y-785767D02*
G01X14214025Y-797197D01*
G01X14225455Y-814469D01*
G01X14236885Y-837329D01*
G01X14242727Y-865777D01*
G01X14242727Y-888637D01*
G01X14236885Y-917339D01*
G01X14225455Y-940199D01*
G01X14214025Y-957217D01*
G01X14202595Y-968647D01*
G01X15133905Y-808627D02*
G01X15133905Y-928769D01*
G01X15133905Y-808627D02*
G01X15213915Y-928769D01*
G01X15213915Y-808627D02*
G01X15213915Y-928769D01*
G01X15261667Y-808627D02*
G01X15261667Y-928769D01*
G01X15261667Y-808627D02*
G01X15313229Y-808627D01*
G01X15330247Y-814469D01*
G01X15336089Y-820057D01*
G01X15341677Y-831487D01*
G01X15341677Y-848759D01*
G01X15336089Y-860189D01*
G01X15330247Y-865777D01*
G01X15313229Y-871619D01*
G01X15261667Y-871619D01*
G01X15429561Y-808627D02*
G01X15429561Y-928769D01*
G01X15389429Y-808627D02*
G01X15469439Y-808627D01*
G01X15517191Y-808627D02*
G01X15517191Y-928769D01*
G01X15597201Y-808627D02*
G01X15597201Y-928769D01*
G01X15517191Y-865777D02*
G01X15597201Y-865777D01*
G01X16595312Y-808627D02*
G01X16595312Y-928769D01*
G01X16595312Y-808627D02*
G01X16646874Y-808627D01*
G01X16663892Y-814469D01*
G01X16669734Y-820057D01*
G01X16675322Y-831487D01*
G01X16675322Y-842917D01*
G01X16669734Y-854347D01*
G01X16663892Y-860189D01*
G01X16646874Y-865777D01*
G01X16595312Y-865777D01*
G01X16635444Y-865777D02*
G01X16675322Y-928769D01*
G01X16751776Y-848759D02*
G01X16740346Y-854347D01*
G01X16728916Y-865777D01*
G01X16723074Y-883049D01*
G01X16723074Y-894479D01*
G01X16728916Y-911497D01*
G01X16740346Y-922927D01*
G01X16751776Y-928769D01*
G01X16768794Y-928769D01*
G01X16780224Y-922927D01*
G01X16791654Y-911497D01*
G01X16797496Y-894479D01*
G01X16797496Y-883049D01*
G01X16791654Y-865777D01*
G01X16780224Y-854347D01*
G01X16768794Y-848759D01*
G01X16751776Y-848759D01*
G01X16845248Y-848759D02*
G01X16845248Y-905909D01*
G01X16851090Y-922927D01*
G01X16862520Y-928769D01*
G01X16879538Y-928769D01*
G01X16890968Y-922927D01*
G01X16908240Y-905909D01*
G01X16908240Y-848759D02*
G01X16908240Y-928769D01*
G01X16955992Y-848759D02*
G01X16955992Y-928769D01*
G01X16955992Y-871619D02*
G01X16973264Y-854347D01*
G01X16984694Y-848759D01*
G01X17001712Y-848759D01*
G01X17013142Y-854347D01*
G01X17018984Y-871619D01*
G01X17018984Y-928769D01*
G01X17135316Y-808627D02*
G01X17135316Y-928769D01*
G01X17135316Y-865777D02*
G01X17123886Y-854347D01*
G01X17112456Y-848759D01*
G01X17095438Y-848759D01*
G01X17084008Y-854347D01*
G01X17072578Y-865777D01*
G01X17066736Y-883049D01*
G01X17066736Y-894479D01*
G01X17072578Y-911497D01*
G01X17084008Y-922927D01*
G01X17095438Y-928769D01*
G01X17112456Y-928769D01*
G01X17123886Y-922927D01*
G01X17135316Y-911497D01*
G01X18026493Y-808627D02*
G01X18026493Y-928769D01*
G01X18026493Y-808627D02*
G01X18078055Y-808627D01*
G01X18095073Y-814469D01*
G01X18100915Y-820057D01*
G01X18106503Y-831487D01*
G01X18106503Y-848759D01*
G01X18100915Y-860189D01*
G01X18095073Y-865777D01*
G01X18078055Y-871619D01*
G01X18026493Y-871619D01*
G01X18222835Y-848759D02*
G01X18222835Y-928769D01*
G01X18222835Y-865777D02*
G01X18211405Y-854347D01*
G01X18199975Y-848759D01*
G01X18182957Y-848759D01*
G01X18171527Y-854347D01*
G01X18160097Y-865777D01*
G01X18154255Y-883049D01*
G01X18154255Y-894479D01*
G01X18160097Y-911497D01*
G01X18171527Y-922927D01*
G01X18182957Y-928769D01*
G01X18199975Y-928769D01*
G01X18211405Y-922927D01*
G01X18222835Y-911497D01*
G01X18339167Y-808627D02*
G01X18339167Y-928769D01*
G01X18339167Y-865777D02*
G01X18327737Y-854347D01*
G01X18316307Y-848759D01*
G01X18299289Y-848759D01*
G01X18287859Y-854347D01*
G01X18276429Y-865777D01*
G01X18270587Y-883049D01*
G01X18270587Y-894479D01*
G01X18276429Y-911497D01*
G01X18287859Y-922927D01*
G01X18299289Y-928769D01*
G01X18316307Y-928769D01*
G01X18327737Y-922927D01*
G01X18339167Y-911497D01*
G01X19695672Y-808627D02*
G01X19695672Y-928769D01*
G01X19695672Y-808627D02*
G01X19747234Y-808627D01*
G01X19764252Y-814469D01*
G01X19770094Y-820057D01*
G01X19775682Y-831487D01*
G01X19775682Y-842917D01*
G01X19770094Y-854347D01*
G01X19764252Y-860189D01*
G01X19747234Y-865777D01*
G01X19695672Y-865777D01*
G01X19735804Y-865777D02*
G01X19775682Y-928769D01*
G01X19852136Y-848759D02*
G01X19840706Y-854347D01*
G01X19829276Y-865777D01*
G01X19823434Y-883049D01*
G01X19823434Y-894479D01*
G01X19829276Y-911497D01*
G01X19840706Y-922927D01*
G01X19852136Y-928769D01*
G01X19869154Y-928769D01*
G01X19880584Y-922927D01*
G01X19892014Y-911497D01*
G01X19897856Y-894479D01*
G01X19897856Y-883049D01*
G01X19892014Y-865777D01*
G01X19880584Y-854347D01*
G01X19869154Y-848759D01*
G01X19852136Y-848759D01*
G01X19945608Y-848759D02*
G01X19945608Y-905909D01*
G01X19951450Y-922927D01*
G01X19962880Y-928769D01*
G01X19979898Y-928769D01*
G01X19991328Y-922927D01*
G01X20008600Y-905909D01*
G01X20008600Y-848759D02*
G01X20008600Y-928769D01*
G01X20056352Y-848759D02*
G01X20056352Y-928769D01*
G01X20056352Y-871619D02*
G01X20073624Y-854347D01*
G01X20085054Y-848759D01*
G01X20102072Y-848759D01*
G01X20113502Y-854347D01*
G01X20119344Y-871619D01*
G01X20119344Y-928769D01*
G01X20235676Y-808627D02*
G01X20235676Y-928769D01*
G01X20235676Y-865777D02*
G01X20224246Y-854347D01*
G01X20212816Y-848759D01*
G01X20195798Y-848759D01*
G01X20184368Y-854347D01*
G01X20172938Y-865777D01*
G01X20167096Y-883049D01*
G01X20167096Y-894479D01*
G01X20172938Y-911497D01*
G01X20184368Y-922927D01*
G01X20195798Y-928769D01*
G01X20212816Y-928769D01*
G01X20224246Y-922927D01*
G01X20235676Y-911497D01*
G01X21655173Y-808627D02*
G01X21655173Y-928769D01*
G01X21615041Y-808627D02*
G01X21695051Y-808627D01*
G01X21771505Y-848759D02*
G01X21760075Y-854347D01*
G01X21748645Y-865777D01*
G01X21742803Y-883049D01*
G01X21742803Y-894479D01*
G01X21748645Y-911497D01*
G01X21760075Y-922927D01*
G01X21771505Y-928769D01*
G01X21788523Y-928769D01*
G01X21799953Y-922927D01*
G01X21811383Y-911497D01*
G01X21817225Y-894479D01*
G01X21817225Y-883049D01*
G01X21811383Y-865777D01*
G01X21799953Y-854347D01*
G01X21788523Y-848759D01*
G01X21771505Y-848759D01*
G01X21864977Y-848759D02*
G01X21864977Y-968647D01*
G01X21864977Y-865777D02*
G01X21876407Y-854347D01*
G01X21887837Y-848759D01*
G01X21905109Y-848759D01*
G01X21916539Y-854347D01*
G01X21927969Y-865777D01*
G01X21933557Y-883049D01*
G01X21933557Y-894479D01*
G01X21927969Y-911497D01*
G01X21916539Y-922927D01*
G01X21905109Y-928769D01*
G01X21887837Y-928769D01*
G01X21876407Y-922927D01*
G01X21864977Y-911497D01*
G01X22109325Y-808627D02*
G01X22109325Y-928769D01*
G01X22109325Y-928769D02*
G01X22177905Y-928769D01*
G01X22294237Y-848759D02*
G01X22294237Y-928769D01*
G01X22294237Y-865777D02*
G01X22282807Y-854347D01*
G01X22271377Y-848759D01*
G01X22254359Y-848759D01*
G01X22242929Y-854347D01*
G01X22231499Y-865777D01*
G01X22225657Y-883049D01*
G01X22225657Y-894479D01*
G01X22231499Y-911497D01*
G01X22242929Y-922927D01*
G01X22254359Y-928769D01*
G01X22271377Y-928769D01*
G01X22282807Y-922927D01*
G01X22294237Y-911497D01*
G01X22347831Y-848759D02*
G01X22382121Y-928769D01*
G01X22416411Y-848759D02*
G01X22382121Y-928769D01*
G01X22370691Y-951629D01*
G01X22359261Y-963059D01*
G01X22347831Y-968647D01*
G01X22341989Y-968647D01*
G01X22464163Y-883049D02*
G01X22532743Y-883049D01*
G01X22532743Y-871619D01*
G01X22527155Y-860189D01*
G01X22521313Y-854347D01*
G01X22509883Y-848759D01*
G01X22492865Y-848759D01*
G01X22481435Y-854347D01*
G01X22470005Y-865777D01*
G01X22464163Y-883049D01*
G01X22464163Y-894479D01*
G01X22470005Y-911497D01*
G01X22481435Y-922927D01*
G01X22492865Y-928769D01*
G01X22509883Y-928769D01*
G01X22521313Y-922927D01*
G01X22532743Y-911497D01*
G01X22580495Y-848759D02*
G01X22580495Y-928769D01*
G01X22580495Y-883049D02*
G01X22586337Y-865777D01*
G01X22597767Y-854347D01*
G01X22609197Y-848759D01*
G01X22626215Y-848759D01*
G01X22673967Y-877207D02*
G01X22776837Y-877207D01*
G01X22824589Y-808627D02*
G01X22824589Y-928769D01*
G01X22824589Y-808627D02*
G01X22876151Y-808627D01*
G01X22893169Y-814469D01*
G01X22899011Y-820057D01*
G01X22904599Y-831487D01*
G01X22904599Y-842917D01*
G01X22899011Y-854347D01*
G01X22893169Y-860189D01*
G01X22876151Y-865777D01*
G01X22824589Y-865777D02*
G01X22876151Y-865777D01*
G01X22893169Y-871619D01*
G01X22899011Y-877207D01*
G01X22904599Y-888637D01*
G01X22904599Y-905909D01*
G01X22899011Y-917339D01*
G01X22893169Y-922927D01*
G01X22876151Y-928769D01*
G01X22824589Y-928769D01*
G01X22981053Y-848759D02*
G01X22969623Y-854347D01*
G01X22958193Y-865777D01*
G01X22952351Y-883049D01*
G01X22952351Y-894479D01*
G01X22958193Y-911497D01*
G01X22969623Y-922927D01*
G01X22981053Y-928769D01*
G01X22998071Y-928769D01*
G01X23009501Y-922927D01*
G01X23020931Y-911497D01*
G01X23026773Y-894479D01*
G01X23026773Y-883049D01*
G01X23020931Y-865777D01*
G01X23009501Y-854347D01*
G01X22998071Y-848759D01*
G01X22981053Y-848759D01*
G01X23091797Y-808627D02*
G01X23091797Y-905909D01*
G01X23097385Y-922927D01*
G01X23108815Y-928769D01*
G01X23120245Y-928769D01*
G01X23074525Y-848759D02*
G01X23114657Y-848759D01*
G01X23185269Y-808627D02*
G01X23185269Y-905909D01*
G01X23190857Y-922927D01*
G01X23202287Y-928769D01*
G01X23213717Y-928769D01*
G01X23167997Y-848759D02*
G01X23208129Y-848759D01*
G01X23290171Y-848759D02*
G01X23278741Y-854347D01*
G01X23267311Y-865777D01*
G01X23261469Y-883049D01*
G01X23261469Y-894479D01*
G01X23267311Y-911497D01*
G01X23278741Y-922927D01*
G01X23290171Y-928769D01*
G01X23307189Y-928769D01*
G01X23318619Y-922927D01*
G01X23330049Y-911497D01*
G01X23335891Y-894479D01*
G01X23335891Y-883049D01*
G01X23330049Y-865777D01*
G01X23318619Y-854347D01*
G01X23307189Y-848759D01*
G01X23290171Y-848759D01*
G01X23383643Y-848759D02*
G01X23383643Y-928769D01*
G01X23383643Y-871619D02*
G01X23400915Y-854347D01*
G01X23412345Y-848759D01*
G01X23429363Y-848759D01*
G01X23440793Y-854347D01*
G01X23446635Y-871619D01*
G01X23446635Y-928769D01*
G01X23446635Y-871619D02*
G01X23463653Y-854347D01*
G01X23475083Y-848759D01*
G01X23492355Y-848759D01*
G01X23503785Y-854347D01*
G01X23509373Y-871619D01*
G01X23509373Y-928769D01*
G01X23685141Y-808627D02*
G01X23685141Y-928769D01*
G01X23685141Y-928769D02*
G01X23753721Y-928769D01*
G01X23870053Y-848759D02*
G01X23870053Y-928769D01*
G01X23870053Y-865777D02*
G01X23858623Y-854347D01*
G01X23847193Y-848759D01*
G01X23830175Y-848759D01*
G01X23818745Y-854347D01*
G01X23807315Y-865777D01*
G01X23801473Y-883049D01*
G01X23801473Y-894479D01*
G01X23807315Y-911497D01*
G01X23818745Y-922927D01*
G01X23830175Y-928769D01*
G01X23847193Y-928769D01*
G01X23858623Y-922927D01*
G01X23870053Y-911497D01*
G01X23923647Y-848759D02*
G01X23957937Y-928769D01*
G01X23992227Y-848759D02*
G01X23957937Y-928769D01*
G01X23946507Y-951629D01*
G01X23935077Y-963059D01*
G01X23923647Y-968647D01*
G01X23917805Y-968647D01*
G01X24039979Y-883049D02*
G01X24108559Y-883049D01*
G01X24108559Y-871619D01*
G01X24102971Y-860189D01*
G01X24097129Y-854347D01*
G01X24085699Y-848759D01*
G01X24068681Y-848759D01*
G01X24057251Y-854347D01*
G01X24045821Y-865777D01*
G01X24039979Y-883049D01*
G01X24039979Y-894479D01*
G01X24045821Y-911497D01*
G01X24057251Y-922927D01*
G01X24068681Y-928769D01*
G01X24085699Y-928769D01*
G01X24097129Y-922927D01*
G01X24108559Y-911497D01*
G01X24156311Y-848759D02*
G01X24156311Y-928769D01*
G01X24156311Y-883049D02*
G01X24162153Y-865777D01*
G01X24173583Y-854347D01*
G01X24185013Y-848759D01*
G01X24202031Y-848759D01*
G01X9695474Y-1389199D02*
G01X9638324Y-1469209D01*
G01X9724176Y-1469209D01*
G01X9695474Y-1389199D02*
G01X9695474Y-1509341D01*
G01X11121067Y-1389199D02*
G01X11063917Y-1389199D01*
G01X11058329Y-1440761D01*
G01X11063917Y-1434919D01*
G01X11081189Y-1429331D01*
G01X11098207Y-1429331D01*
G01X11115479Y-1434919D01*
G01X11126909Y-1446349D01*
G01X11132497Y-1463621D01*
G01X11132497Y-1475051D01*
G01X11126909Y-1492069D01*
G01X11115479Y-1503499D01*
G01X11098207Y-1509341D01*
G01X11081189Y-1509341D01*
G01X11063917Y-1503499D01*
G01X11058329Y-1497911D01*
G01X11052487Y-1486481D01*
G01X11248829Y-1389199D02*
G01X11191679Y-1389199D01*
G01X11186091Y-1440761D01*
G01X11191679Y-1434919D01*
G01X11208951Y-1429331D01*
G01X11225969Y-1429331D01*
G01X11243241Y-1434919D01*
G01X11254671Y-1446349D01*
G01X11260259Y-1463621D01*
G01X11260259Y-1475051D01*
G01X11254671Y-1492069D01*
G01X11243241Y-1503499D01*
G01X11225969Y-1509341D01*
G01X11208951Y-1509341D01*
G01X11191679Y-1503499D01*
G01X11186091Y-1497911D01*
G01X11180249Y-1486481D01*
G01X11313853Y-1480639D02*
G01X11308011Y-1486481D01*
G01X11313853Y-1492069D01*
G01X11319441Y-1486481D01*
G01X11313853Y-1480639D01*
G01X11367193Y-1412059D02*
G01X11378623Y-1406471D01*
G01X11395895Y-1389199D01*
G01X11395895Y-1509341D01*
G01X11443647Y-1429331D02*
G01X11506639Y-1509341D01*
G01X11506639Y-1429331D02*
G01X11443647Y-1509341D01*
G01X11622971Y-1389199D02*
G01X11565821Y-1389199D01*
G01X11560233Y-1440761D01*
G01X11565821Y-1434919D01*
G01X11583093Y-1429331D01*
G01X11600111Y-1429331D01*
G01X11617383Y-1434919D01*
G01X11628813Y-1446349D01*
G01X11634401Y-1463621D01*
G01X11634401Y-1475051D01*
G01X11628813Y-1492069D01*
G01X11617383Y-1503499D01*
G01X11600111Y-1509341D01*
G01X11583093Y-1509341D01*
G01X11565821Y-1503499D01*
G01X11560233Y-1497911D01*
G01X11554391Y-1486481D01*
G01X11750733Y-1389199D02*
G01X11693583Y-1389199D01*
G01X11687995Y-1440761D01*
G01X11693583Y-1434919D01*
G01X11710855Y-1429331D01*
G01X11727873Y-1429331D01*
G01X11745145Y-1434919D01*
G01X11756575Y-1446349D01*
G01X11762163Y-1463621D01*
G01X11762163Y-1475051D01*
G01X11756575Y-1492069D01*
G01X11745145Y-1503499D01*
G01X11727873Y-1509341D01*
G01X11710855Y-1509341D01*
G01X11693583Y-1503499D01*
G01X11687995Y-1497911D01*
G01X11682153Y-1486481D01*
G01X11815757Y-1480639D02*
G01X11809915Y-1486481D01*
G01X11815757Y-1492069D01*
G01X11821345Y-1486481D01*
G01X11815757Y-1480639D01*
G01X11869097Y-1412059D02*
G01X11880527Y-1406471D01*
G01X11897799Y-1389199D01*
G01X11897799Y-1509341D01*
G01X11945551Y-1429331D02*
G01X11945551Y-1509341D01*
G01X11945551Y-1452191D02*
G01X11962823Y-1434919D01*
G01X11974253Y-1429331D01*
G01X11991271Y-1429331D01*
G01X12002701Y-1434919D01*
G01X12008543Y-1452191D01*
G01X12008543Y-1509341D01*
G01X12008543Y-1452191D02*
G01X12025561Y-1434919D01*
G01X12036991Y-1429331D01*
G01X12054263Y-1429331D01*
G01X12065693Y-1434919D01*
G01X12071281Y-1452191D01*
G01X12071281Y-1509341D01*
G01X12119033Y-1389199D02*
G01X12124875Y-1395041D01*
G01X12130463Y-1389199D01*
G01X12124875Y-1383611D01*
G01X12119033Y-1389199D01*
G01X12124875Y-1429331D02*
G01X12124875Y-1509341D01*
G01X12178215Y-1389199D02*
G01X12178215Y-1509341D01*
G01X12266099Y-1366339D02*
G01X12254669Y-1377769D01*
G01X12243239Y-1395041D01*
G01X12231809Y-1417901D01*
G01X12225967Y-1446349D01*
G01X12225967Y-1469209D01*
G01X12231809Y-1497911D01*
G01X12243239Y-1520771D01*
G01X12254669Y-1537789D01*
G01X12266099Y-1549219D01*
G01X12313851Y-1412059D02*
G01X12325281Y-1406471D01*
G01X12342553Y-1389199D01*
G01X12342553Y-1509341D01*
G01X12396147Y-1480639D02*
G01X12390305Y-1486481D01*
G01X12396147Y-1492069D01*
G01X12401735Y-1486481D01*
G01X12396147Y-1480639D01*
G01X12506637Y-1389199D02*
G01X12449487Y-1469209D01*
G01X12535339Y-1469209D01*
G01X12506637Y-1389199D02*
G01X12506637Y-1509341D01*
G01X12617381Y-1389199D02*
G01X12600363Y-1395041D01*
G01X12588933Y-1412059D01*
G01X12583091Y-1440761D01*
G01X12583091Y-1457779D01*
G01X12588933Y-1486481D01*
G01X12600363Y-1503499D01*
G01X12617381Y-1509341D01*
G01X12628811Y-1509341D01*
G01X12646083Y-1503499D01*
G01X12657513Y-1486481D01*
G01X12663101Y-1457779D01*
G01X12663101Y-1440761D01*
G01X12657513Y-1412059D01*
G01X12646083Y-1395041D01*
G01X12628811Y-1389199D01*
G01X12617381Y-1389199D01*
G01X12745143Y-1389199D02*
G01X12728125Y-1395041D01*
G01X12716695Y-1412059D01*
G01X12710853Y-1440761D01*
G01X12710853Y-1457779D01*
G01X12716695Y-1486481D01*
G01X12728125Y-1503499D01*
G01X12745143Y-1509341D01*
G01X12756573Y-1509341D01*
G01X12773845Y-1503499D01*
G01X12785275Y-1486481D01*
G01X12790863Y-1457779D01*
G01X12790863Y-1440761D01*
G01X12785275Y-1412059D01*
G01X12773845Y-1395041D01*
G01X12756573Y-1389199D01*
G01X12745143Y-1389199D01*
G01X12838615Y-1429331D02*
G01X12901607Y-1509341D01*
G01X12901607Y-1429331D02*
G01X12838615Y-1509341D01*
G01X12949359Y-1412059D02*
G01X12960789Y-1406471D01*
G01X12978061Y-1389199D01*
G01X12978061Y-1509341D01*
G01X13031655Y-1480639D02*
G01X13025813Y-1486481D01*
G01X13031655Y-1492069D01*
G01X13037243Y-1486481D01*
G01X13031655Y-1480639D01*
G01X13142145Y-1389199D02*
G01X13084995Y-1469209D01*
G01X13170847Y-1469209D01*
G01X13142145Y-1389199D02*
G01X13142145Y-1509341D01*
G01X13252889Y-1389199D02*
G01X13235871Y-1395041D01*
G01X13224441Y-1412059D01*
G01X13218599Y-1440761D01*
G01X13218599Y-1457779D01*
G01X13224441Y-1486481D01*
G01X13235871Y-1503499D01*
G01X13252889Y-1509341D01*
G01X13264319Y-1509341D01*
G01X13281591Y-1503499D01*
G01X13293021Y-1486481D01*
G01X13298609Y-1457779D01*
G01X13298609Y-1440761D01*
G01X13293021Y-1412059D01*
G01X13281591Y-1395041D01*
G01X13264319Y-1389199D01*
G01X13252889Y-1389199D01*
G01X13380651Y-1389199D02*
G01X13363633Y-1395041D01*
G01X13352203Y-1412059D01*
G01X13346361Y-1440761D01*
G01X13346361Y-1457779D01*
G01X13352203Y-1486481D01*
G01X13363633Y-1503499D01*
G01X13380651Y-1509341D01*
G01X13392081Y-1509341D01*
G01X13409353Y-1503499D01*
G01X13420783Y-1486481D01*
G01X13426371Y-1457779D01*
G01X13426371Y-1440761D01*
G01X13420783Y-1412059D01*
G01X13409353Y-1395041D01*
G01X13392081Y-1389199D01*
G01X13380651Y-1389199D01*
G01X13474123Y-1429331D02*
G01X13474123Y-1509341D01*
G01X13474123Y-1452191D02*
G01X13491395Y-1434919D01*
G01X13502825Y-1429331D01*
G01X13519843Y-1429331D01*
G01X13531273Y-1434919D01*
G01X13537115Y-1452191D01*
G01X13537115Y-1509341D01*
G01X13537115Y-1452191D02*
G01X13554133Y-1434919D01*
G01X13565563Y-1429331D01*
G01X13582835Y-1429331D01*
G01X13594265Y-1434919D01*
G01X13599853Y-1452191D01*
G01X13599853Y-1509341D01*
G01X13647605Y-1429331D02*
G01X13647605Y-1509341D01*
G01X13647605Y-1452191D02*
G01X13664877Y-1434919D01*
G01X13676307Y-1429331D01*
G01X13693325Y-1429331D01*
G01X13704755Y-1434919D01*
G01X13710597Y-1452191D01*
G01X13710597Y-1509341D01*
G01X13710597Y-1452191D02*
G01X13727615Y-1434919D01*
G01X13739045Y-1429331D01*
G01X13756317Y-1429331D01*
G01X13767747Y-1434919D01*
G01X13773335Y-1452191D01*
G01X13773335Y-1509341D01*
G01X13821087Y-1366339D02*
G01X13832517Y-1377769D01*
G01X13843947Y-1395041D01*
G01X13855377Y-1417901D01*
G01X13861219Y-1446349D01*
G01X13861219Y-1469209D01*
G01X13855377Y-1497911D01*
G01X13843947Y-1520771D01*
G01X13832517Y-1537789D01*
G01X13821087Y-1549219D01*
G01X15133905Y-1389199D02*
G01X15133905Y-1509341D01*
G01X15133905Y-1389199D02*
G01X15185467Y-1389199D01*
G01X15202485Y-1395041D01*
G01X15208327Y-1400629D01*
G01X15213915Y-1412059D01*
G01X15213915Y-1429331D01*
G01X15208327Y-1440761D01*
G01X15202485Y-1446349D01*
G01X15185467Y-1452191D01*
G01X15133905Y-1452191D01*
G01X15301799Y-1389199D02*
G01X15301799Y-1509341D01*
G01X15261667Y-1389199D02*
G01X15341677Y-1389199D01*
G01X15389429Y-1389199D02*
G01X15389429Y-1509341D01*
G01X15469439Y-1389199D02*
G01X15469439Y-1509341D01*
G01X15389429Y-1446349D02*
G01X15469439Y-1446349D01*
G01X16595312Y-1389199D02*
G01X16595312Y-1509341D01*
G01X16595312Y-1389199D02*
G01X16646874Y-1389199D01*
G01X16663892Y-1395041D01*
G01X16669734Y-1400629D01*
G01X16675322Y-1412059D01*
G01X16675322Y-1423489D01*
G01X16669734Y-1434919D01*
G01X16663892Y-1440761D01*
G01X16646874Y-1446349D01*
G01X16595312Y-1446349D01*
G01X16635444Y-1446349D02*
G01X16675322Y-1509341D01*
G01X16751776Y-1429331D02*
G01X16740346Y-1434919D01*
G01X16728916Y-1446349D01*
G01X16723074Y-1463621D01*
G01X16723074Y-1475051D01*
G01X16728916Y-1492069D01*
G01X16740346Y-1503499D01*
G01X16751776Y-1509341D01*
G01X16768794Y-1509341D01*
G01X16780224Y-1503499D01*
G01X16791654Y-1492069D01*
G01X16797496Y-1475051D01*
G01X16797496Y-1463621D01*
G01X16791654Y-1446349D01*
G01X16780224Y-1434919D01*
G01X16768794Y-1429331D01*
G01X16751776Y-1429331D01*
G01X16845248Y-1429331D02*
G01X16845248Y-1486481D01*
G01X16851090Y-1503499D01*
G01X16862520Y-1509341D01*
G01X16879538Y-1509341D01*
G01X16890968Y-1503499D01*
G01X16908240Y-1486481D01*
G01X16908240Y-1429331D02*
G01X16908240Y-1509341D01*
G01X16955992Y-1429331D02*
G01X16955992Y-1509341D01*
G01X16955992Y-1452191D02*
G01X16973264Y-1434919D01*
G01X16984694Y-1429331D01*
G01X17001712Y-1429331D01*
G01X17013142Y-1434919D01*
G01X17018984Y-1452191D01*
G01X17018984Y-1509341D01*
G01X17135316Y-1389199D02*
G01X17135316Y-1509341D01*
G01X17135316Y-1446349D02*
G01X17123886Y-1434919D01*
G01X17112456Y-1429331D01*
G01X17095438Y-1429331D01*
G01X17084008Y-1434919D01*
G01X17072578Y-1446349D01*
G01X17066736Y-1463621D01*
G01X17066736Y-1475051D01*
G01X17072578Y-1492069D01*
G01X17084008Y-1503499D01*
G01X17095438Y-1509341D01*
G01X17112456Y-1509341D01*
G01X17123886Y-1503499D01*
G01X17135316Y-1492069D01*
G01X18026493Y-1389199D02*
G01X18026493Y-1509341D01*
G01X18026493Y-1389199D02*
G01X18078055Y-1389199D01*
G01X18095073Y-1395041D01*
G01X18100915Y-1400629D01*
G01X18106503Y-1412059D01*
G01X18106503Y-1429331D01*
G01X18100915Y-1440761D01*
G01X18095073Y-1446349D01*
G01X18078055Y-1452191D01*
G01X18026493Y-1452191D01*
G01X18222835Y-1429331D02*
G01X18222835Y-1509341D01*
G01X18222835Y-1446349D02*
G01X18211405Y-1434919D01*
G01X18199975Y-1429331D01*
G01X18182957Y-1429331D01*
G01X18171527Y-1434919D01*
G01X18160097Y-1446349D01*
G01X18154255Y-1463621D01*
G01X18154255Y-1475051D01*
G01X18160097Y-1492069D01*
G01X18171527Y-1503499D01*
G01X18182957Y-1509341D01*
G01X18199975Y-1509341D01*
G01X18211405Y-1503499D01*
G01X18222835Y-1492069D01*
G01X18339167Y-1389199D02*
G01X18339167Y-1509341D01*
G01X18339167Y-1446349D02*
G01X18327737Y-1434919D01*
G01X18316307Y-1429331D01*
G01X18299289Y-1429331D01*
G01X18287859Y-1434919D01*
G01X18276429Y-1446349D01*
G01X18270587Y-1463621D01*
G01X18270587Y-1475051D01*
G01X18276429Y-1492069D01*
G01X18287859Y-1503499D01*
G01X18299289Y-1509341D01*
G01X18316307Y-1509341D01*
G01X18327737Y-1503499D01*
G01X18339167Y-1492069D01*
G01X19695672Y-1389199D02*
G01X19695672Y-1509341D01*
G01X19695672Y-1389199D02*
G01X19747234Y-1389199D01*
G01X19764252Y-1395041D01*
G01X19770094Y-1400629D01*
G01X19775682Y-1412059D01*
G01X19775682Y-1423489D01*
G01X19770094Y-1434919D01*
G01X19764252Y-1440761D01*
G01X19747234Y-1446349D01*
G01X19695672Y-1446349D01*
G01X19735804Y-1446349D02*
G01X19775682Y-1509341D01*
G01X19852136Y-1429331D02*
G01X19840706Y-1434919D01*
G01X19829276Y-1446349D01*
G01X19823434Y-1463621D01*
G01X19823434Y-1475051D01*
G01X19829276Y-1492069D01*
G01X19840706Y-1503499D01*
G01X19852136Y-1509341D01*
G01X19869154Y-1509341D01*
G01X19880584Y-1503499D01*
G01X19892014Y-1492069D01*
G01X19897856Y-1475051D01*
G01X19897856Y-1463621D01*
G01X19892014Y-1446349D01*
G01X19880584Y-1434919D01*
G01X19869154Y-1429331D01*
G01X19852136Y-1429331D01*
G01X19945608Y-1429331D02*
G01X19945608Y-1486481D01*
G01X19951450Y-1503499D01*
G01X19962880Y-1509341D01*
G01X19979898Y-1509341D01*
G01X19991328Y-1503499D01*
G01X20008600Y-1486481D01*
G01X20008600Y-1429331D02*
G01X20008600Y-1509341D01*
G01X20056352Y-1429331D02*
G01X20056352Y-1509341D01*
G01X20056352Y-1452191D02*
G01X20073624Y-1434919D01*
G01X20085054Y-1429331D01*
G01X20102072Y-1429331D01*
G01X20113502Y-1434919D01*
G01X20119344Y-1452191D01*
G01X20119344Y-1509341D01*
G01X20235676Y-1389199D02*
G01X20235676Y-1509341D01*
G01X20235676Y-1446349D02*
G01X20224246Y-1434919D01*
G01X20212816Y-1429331D01*
G01X20195798Y-1429331D01*
G01X20184368Y-1434919D01*
G01X20172938Y-1446349D01*
G01X20167096Y-1463621D01*
G01X20167096Y-1475051D01*
G01X20172938Y-1492069D01*
G01X20184368Y-1503499D01*
G01X20195798Y-1509341D01*
G01X20212816Y-1509341D01*
G01X20224246Y-1503499D01*
G01X20235676Y-1492069D01*
G01X21655173Y-1389199D02*
G01X21655173Y-1509341D01*
G01X21615041Y-1389199D02*
G01X21695051Y-1389199D01*
G01X21771505Y-1429331D02*
G01X21760075Y-1434919D01*
G01X21748645Y-1446349D01*
G01X21742803Y-1463621D01*
G01X21742803Y-1475051D01*
G01X21748645Y-1492069D01*
G01X21760075Y-1503499D01*
G01X21771505Y-1509341D01*
G01X21788523Y-1509341D01*
G01X21799953Y-1503499D01*
G01X21811383Y-1492069D01*
G01X21817225Y-1475051D01*
G01X21817225Y-1463621D01*
G01X21811383Y-1446349D01*
G01X21799953Y-1434919D01*
G01X21788523Y-1429331D01*
G01X21771505Y-1429331D01*
G01X21864977Y-1429331D02*
G01X21864977Y-1549219D01*
G01X21864977Y-1446349D02*
G01X21876407Y-1434919D01*
G01X21887837Y-1429331D01*
G01X21905109Y-1429331D01*
G01X21916539Y-1434919D01*
G01X21927969Y-1446349D01*
G01X21933557Y-1463621D01*
G01X21933557Y-1475051D01*
G01X21927969Y-1492069D01*
G01X21916539Y-1503499D01*
G01X21905109Y-1509341D01*
G01X21887837Y-1509341D01*
G01X21876407Y-1503499D01*
G01X21864977Y-1492069D01*
G01X22109325Y-1389199D02*
G01X22109325Y-1509341D01*
G01X22109325Y-1509341D02*
G01X22177905Y-1509341D01*
G01X22294237Y-1429331D02*
G01X22294237Y-1509341D01*
G01X22294237Y-1446349D02*
G01X22282807Y-1434919D01*
G01X22271377Y-1429331D01*
G01X22254359Y-1429331D01*
G01X22242929Y-1434919D01*
G01X22231499Y-1446349D01*
G01X22225657Y-1463621D01*
G01X22225657Y-1475051D01*
G01X22231499Y-1492069D01*
G01X22242929Y-1503499D01*
G01X22254359Y-1509341D01*
G01X22271377Y-1509341D01*
G01X22282807Y-1503499D01*
G01X22294237Y-1492069D01*
G01X22347831Y-1429331D02*
G01X22382121Y-1509341D01*
G01X22416411Y-1429331D02*
G01X22382121Y-1509341D01*
G01X22370691Y-1532201D01*
G01X22359261Y-1543631D01*
G01X22347831Y-1549219D01*
G01X22341989Y-1549219D01*
G01X22464163Y-1463621D02*
G01X22532743Y-1463621D01*
G01X22532743Y-1452191D01*
G01X22527155Y-1440761D01*
G01X22521313Y-1434919D01*
G01X22509883Y-1429331D01*
G01X22492865Y-1429331D01*
G01X22481435Y-1434919D01*
G01X22470005Y-1446349D01*
G01X22464163Y-1463621D01*
G01X22464163Y-1475051D01*
G01X22470005Y-1492069D01*
G01X22481435Y-1503499D01*
G01X22492865Y-1509341D01*
G01X22509883Y-1509341D01*
G01X22521313Y-1503499D01*
G01X22532743Y-1492069D01*
G01X22580495Y-1429331D02*
G01X22580495Y-1509341D01*
G01X22580495Y-1463621D02*
G01X22586337Y-1446349D01*
G01X22597767Y-1434919D01*
G01X22609197Y-1429331D01*
G01X22626215Y-1429331D01*
G01X22673967Y-1457779D02*
G01X22776837Y-1457779D01*
G01X22824589Y-1389199D02*
G01X22824589Y-1509341D01*
G01X22824589Y-1389199D02*
G01X22876151Y-1389199D01*
G01X22893169Y-1395041D01*
G01X22899011Y-1400629D01*
G01X22904599Y-1412059D01*
G01X22904599Y-1423489D01*
G01X22899011Y-1434919D01*
G01X22893169Y-1440761D01*
G01X22876151Y-1446349D01*
G01X22824589Y-1446349D02*
G01X22876151Y-1446349D01*
G01X22893169Y-1452191D01*
G01X22899011Y-1457779D01*
G01X22904599Y-1469209D01*
G01X22904599Y-1486481D01*
G01X22899011Y-1497911D01*
G01X22893169Y-1503499D01*
G01X22876151Y-1509341D01*
G01X22824589Y-1509341D01*
G01X22981053Y-1429331D02*
G01X22969623Y-1434919D01*
G01X22958193Y-1446349D01*
G01X22952351Y-1463621D01*
G01X22952351Y-1475051D01*
G01X22958193Y-1492069D01*
G01X22969623Y-1503499D01*
G01X22981053Y-1509341D01*
G01X22998071Y-1509341D01*
G01X23009501Y-1503499D01*
G01X23020931Y-1492069D01*
G01X23026773Y-1475051D01*
G01X23026773Y-1463621D01*
G01X23020931Y-1446349D01*
G01X23009501Y-1434919D01*
G01X22998071Y-1429331D01*
G01X22981053Y-1429331D01*
G01X23091797Y-1389199D02*
G01X23091797Y-1486481D01*
G01X23097385Y-1503499D01*
G01X23108815Y-1509341D01*
G01X23120245Y-1509341D01*
G01X23074525Y-1429331D02*
G01X23114657Y-1429331D01*
G01X23185269Y-1389199D02*
G01X23185269Y-1486481D01*
G01X23190857Y-1503499D01*
G01X23202287Y-1509341D01*
G01X23213717Y-1509341D01*
G01X23167997Y-1429331D02*
G01X23208129Y-1429331D01*
G01X23290171Y-1429331D02*
G01X23278741Y-1434919D01*
G01X23267311Y-1446349D01*
G01X23261469Y-1463621D01*
G01X23261469Y-1475051D01*
G01X23267311Y-1492069D01*
G01X23278741Y-1503499D01*
G01X23290171Y-1509341D01*
G01X23307189Y-1509341D01*
G01X23318619Y-1503499D01*
G01X23330049Y-1492069D01*
G01X23335891Y-1475051D01*
G01X23335891Y-1463621D01*
G01X23330049Y-1446349D01*
G01X23318619Y-1434919D01*
G01X23307189Y-1429331D01*
G01X23290171Y-1429331D01*
G01X23383643Y-1429331D02*
G01X23383643Y-1509341D01*
G01X23383643Y-1452191D02*
G01X23400915Y-1434919D01*
G01X23412345Y-1429331D01*
G01X23429363Y-1429331D01*
G01X23440793Y-1434919D01*
G01X23446635Y-1452191D01*
G01X23446635Y-1509341D01*
G01X23446635Y-1452191D02*
G01X23463653Y-1434919D01*
G01X23475083Y-1429331D01*
G01X23492355Y-1429331D01*
G01X23503785Y-1434919D01*
G01X23509373Y-1452191D01*
G01X23509373Y-1509341D01*
G01X23685141Y-1389199D02*
G01X23685141Y-1509341D01*
G01X23685141Y-1509341D02*
G01X23753721Y-1509341D01*
G01X23870053Y-1429331D02*
G01X23870053Y-1509341D01*
G01X23870053Y-1446349D02*
G01X23858623Y-1434919D01*
G01X23847193Y-1429331D01*
G01X23830175Y-1429331D01*
G01X23818745Y-1434919D01*
G01X23807315Y-1446349D01*
G01X23801473Y-1463621D01*
G01X23801473Y-1475051D01*
G01X23807315Y-1492069D01*
G01X23818745Y-1503499D01*
G01X23830175Y-1509341D01*
G01X23847193Y-1509341D01*
G01X23858623Y-1503499D01*
G01X23870053Y-1492069D01*
G01X23923647Y-1429331D02*
G01X23957937Y-1509341D01*
G01X23992227Y-1429331D02*
G01X23957937Y-1509341D01*
G01X23946507Y-1532201D01*
G01X23935077Y-1543631D01*
G01X23923647Y-1549219D01*
G01X23917805Y-1549219D01*
G01X24039979Y-1463621D02*
G01X24108559Y-1463621D01*
G01X24108559Y-1452191D01*
G01X24102971Y-1440761D01*
G01X24097129Y-1434919D01*
G01X24085699Y-1429331D01*
G01X24068681Y-1429331D01*
G01X24057251Y-1434919D01*
G01X24045821Y-1446349D01*
G01X24039979Y-1463621D01*
G01X24039979Y-1475051D01*
G01X24045821Y-1492069D01*
G01X24057251Y-1503499D01*
G01X24068681Y-1509341D01*
G01X24085699Y-1509341D01*
G01X24097129Y-1503499D01*
G01X24108559Y-1492069D01*
G01X24156311Y-1429331D02*
G01X24156311Y-1509341D01*
G01X24156311Y-1463621D02*
G01X24162153Y-1446349D01*
G01X24173583Y-1434919D01*
G01X24185013Y-1429331D01*
G01X24202031Y-1429331D01*
G01X9667026Y-1969770D02*
G01X9649754Y-1975612D01*
G01X9644166Y-1987042D01*
G01X9644166Y-1998472D01*
G01X9649754Y-2009902D01*
G01X9661184Y-2015490D01*
G01X9684044Y-2021332D01*
G01X9701316Y-2026920D01*
G01X9712746Y-2038350D01*
G01X9718334Y-2049780D01*
G01X9718334Y-2067052D01*
G01X9712746Y-2078482D01*
G01X9706904Y-2084070D01*
G01X9689886Y-2089912D01*
G01X9667026Y-2089912D01*
G01X9649754Y-2084070D01*
G01X9644166Y-2078482D01*
G01X9638324Y-2067052D01*
G01X9638324Y-2049780D01*
G01X9644166Y-2038350D01*
G01X9655596Y-2026920D01*
G01X9672614Y-2021332D01*
G01X9695474Y-2015490D01*
G01X9706904Y-2009902D01*
G01X9712746Y-1998472D01*
G01X9712746Y-1987042D01*
G01X9706904Y-1975612D01*
G01X9689886Y-1969770D01*
G01X9667026Y-1969770D01*
G01X11063917Y-1969770D02*
G01X11126909Y-1969770D01*
G01X11092619Y-2015490D01*
G01X11109637Y-2015490D01*
G01X11121067Y-2021332D01*
G01X11126909Y-2026920D01*
G01X11132497Y-2044192D01*
G01X11132497Y-2055622D01*
G01X11126909Y-2072640D01*
G01X11115479Y-2084070D01*
G01X11098207Y-2089912D01*
G01X11081189Y-2089912D01*
G01X11063917Y-2084070D01*
G01X11058329Y-2078482D01*
G01X11052487Y-2067052D01*
G01X11254671Y-2009902D02*
G01X11248829Y-2026920D01*
G01X11237399Y-2038350D01*
G01X11220381Y-2044192D01*
G01X11214539Y-2044192D01*
G01X11197521Y-2038350D01*
G01X11186091Y-2026920D01*
G01X11180249Y-2009902D01*
G01X11180249Y-2004060D01*
G01X11186091Y-1987042D01*
G01X11197521Y-1975612D01*
G01X11214539Y-1969770D01*
G01X11220381Y-1969770D01*
G01X11237399Y-1975612D01*
G01X11248829Y-1987042D01*
G01X11254671Y-2009902D01*
G01X11254671Y-2038350D01*
G01X11248829Y-2067052D01*
G01X11237399Y-2084070D01*
G01X11220381Y-2089912D01*
G01X11208951Y-2089912D01*
G01X11191679Y-2084070D01*
G01X11186091Y-2072640D01*
G01X11308265Y-2061210D02*
G01X11302423Y-2067052D01*
G01X11308265Y-2072640D01*
G01X11313853Y-2067052D01*
G01X11308265Y-2061210D01*
G01X11418755Y-1969770D02*
G01X11361605Y-2049780D01*
G01X11447457Y-2049780D01*
G01X11418755Y-1969770D02*
G01X11418755Y-2089912D01*
G01X11495209Y-2009902D02*
G01X11558201Y-2089912D01*
G01X11558201Y-2009902D02*
G01X11495209Y-2089912D01*
G01X11617383Y-1969770D02*
G01X11680375Y-1969770D01*
G01X11646085Y-2015490D01*
G01X11663103Y-2015490D01*
G01X11674533Y-2021332D01*
G01X11680375Y-2026920D01*
G01X11685963Y-2044192D01*
G01X11685963Y-2055622D01*
G01X11680375Y-2072640D01*
G01X11668945Y-2084070D01*
G01X11651673Y-2089912D01*
G01X11634655Y-2089912D01*
G01X11617383Y-2084070D01*
G01X11611795Y-2078482D01*
G01X11605953Y-2067052D01*
G01X11808137Y-2009902D02*
G01X11802295Y-2026920D01*
G01X11790865Y-2038350D01*
G01X11773847Y-2044192D01*
G01X11768005Y-2044192D01*
G01X11750987Y-2038350D01*
G01X11739557Y-2026920D01*
G01X11733715Y-2009902D01*
G01X11733715Y-2004060D01*
G01X11739557Y-1987042D01*
G01X11750987Y-1975612D01*
G01X11768005Y-1969770D01*
G01X11773847Y-1969770D01*
G01X11790865Y-1975612D01*
G01X11802295Y-1987042D01*
G01X11808137Y-2009902D01*
G01X11808137Y-2038350D01*
G01X11802295Y-2067052D01*
G01X11790865Y-2084070D01*
G01X11773847Y-2089912D01*
G01X11762417Y-2089912D01*
G01X11745145Y-2084070D01*
G01X11739557Y-2072640D01*
G01X11861731Y-2061210D02*
G01X11855889Y-2067052D01*
G01X11861731Y-2072640D01*
G01X11867319Y-2067052D01*
G01X11861731Y-2061210D01*
G01X11972221Y-1969770D02*
G01X11915071Y-2049780D01*
G01X12000923Y-2049780D01*
G01X11972221Y-1969770D02*
G01X11972221Y-2089912D01*
G01X12048675Y-2009902D02*
G01X12048675Y-2089912D01*
G01X12048675Y-2032762D02*
G01X12065947Y-2015490D01*
G01X12077377Y-2009902D01*
G01X12094395Y-2009902D01*
G01X12105825Y-2015490D01*
G01X12111667Y-2032762D01*
G01X12111667Y-2089912D01*
G01X12111667Y-2032762D02*
G01X12128685Y-2015490D01*
G01X12140115Y-2009902D01*
G01X12157387Y-2009902D01*
G01X12168817Y-2015490D01*
G01X12174405Y-2032762D01*
G01X12174405Y-2089912D01*
G01X12222157Y-1969770D02*
G01X12227999Y-1975612D01*
G01X12233587Y-1969770D01*
G01X12227999Y-1964182D01*
G01X12222157Y-1969770D01*
G01X12227999Y-2009902D02*
G01X12227999Y-2089912D01*
G01X12281339Y-1969770D02*
G01X12281339Y-2089912D01*
G01X12369223Y-1946910D02*
G01X12357793Y-1958340D01*
G01X12346363Y-1975612D01*
G01X12334933Y-1998472D01*
G01X12329091Y-2026920D01*
G01X12329091Y-2049780D01*
G01X12334933Y-2078482D01*
G01X12346363Y-2101342D01*
G01X12357793Y-2118360D01*
G01X12369223Y-2129790D01*
G01X12416975Y-1992630D02*
G01X12428405Y-1987042D01*
G01X12445677Y-1969770D01*
G01X12445677Y-2089912D01*
G01X12499271Y-2061210D02*
G01X12493429Y-2067052D01*
G01X12499271Y-2072640D01*
G01X12504859Y-2067052D01*
G01X12499271Y-2061210D01*
G01X12586901Y-1969770D02*
G01X12569883Y-1975612D01*
G01X12558453Y-1992630D01*
G01X12552611Y-2021332D01*
G01X12552611Y-2038350D01*
G01X12558453Y-2067052D01*
G01X12569883Y-2084070D01*
G01X12586901Y-2089912D01*
G01X12598331Y-2089912D01*
G01X12615603Y-2084070D01*
G01X12627033Y-2067052D01*
G01X12632621Y-2038350D01*
G01X12632621Y-2021332D01*
G01X12627033Y-1992630D01*
G01X12615603Y-1975612D01*
G01X12598331Y-1969770D01*
G01X12586901Y-1969770D01*
G01X12714663Y-1969770D02*
G01X12697645Y-1975612D01*
G01X12686215Y-1992630D01*
G01X12680373Y-2021332D01*
G01X12680373Y-2038350D01*
G01X12686215Y-2067052D01*
G01X12697645Y-2084070D01*
G01X12714663Y-2089912D01*
G01X12726093Y-2089912D01*
G01X12743365Y-2084070D01*
G01X12754795Y-2067052D01*
G01X12760383Y-2038350D01*
G01X12760383Y-2021332D01*
G01X12754795Y-1992630D01*
G01X12743365Y-1975612D01*
G01X12726093Y-1969770D01*
G01X12714663Y-1969770D01*
G01X12842425Y-1969770D02*
G01X12825407Y-1975612D01*
G01X12813977Y-1992630D01*
G01X12808135Y-2021332D01*
G01X12808135Y-2038350D01*
G01X12813977Y-2067052D01*
G01X12825407Y-2084070D01*
G01X12842425Y-2089912D01*
G01X12853855Y-2089912D01*
G01X12871127Y-2084070D01*
G01X12882557Y-2067052D01*
G01X12888145Y-2038350D01*
G01X12888145Y-2021332D01*
G01X12882557Y-1992630D01*
G01X12871127Y-1975612D01*
G01X12853855Y-1969770D01*
G01X12842425Y-1969770D01*
G01X12935897Y-2009902D02*
G01X12998889Y-2089912D01*
G01X12998889Y-2009902D02*
G01X12935897Y-2089912D01*
G01X13046641Y-1992630D02*
G01X13058071Y-1987042D01*
G01X13075343Y-1969770D01*
G01X13075343Y-2089912D01*
G01X13128937Y-2061210D02*
G01X13123095Y-2067052D01*
G01X13128937Y-2072640D01*
G01X13134525Y-2067052D01*
G01X13128937Y-2061210D01*
G01X13216567Y-1969770D02*
G01X13199549Y-1975612D01*
G01X13188119Y-1992630D01*
G01X13182277Y-2021332D01*
G01X13182277Y-2038350D01*
G01X13188119Y-2067052D01*
G01X13199549Y-2084070D01*
G01X13216567Y-2089912D01*
G01X13227997Y-2089912D01*
G01X13245269Y-2084070D01*
G01X13256699Y-2067052D01*
G01X13262287Y-2038350D01*
G01X13262287Y-2021332D01*
G01X13256699Y-1992630D01*
G01X13245269Y-1975612D01*
G01X13227997Y-1969770D01*
G01X13216567Y-1969770D01*
G01X13344329Y-1969770D02*
G01X13327311Y-1975612D01*
G01X13315881Y-1992630D01*
G01X13310039Y-2021332D01*
G01X13310039Y-2038350D01*
G01X13315881Y-2067052D01*
G01X13327311Y-2084070D01*
G01X13344329Y-2089912D01*
G01X13355759Y-2089912D01*
G01X13373031Y-2084070D01*
G01X13384461Y-2067052D01*
G01X13390049Y-2038350D01*
G01X13390049Y-2021332D01*
G01X13384461Y-1992630D01*
G01X13373031Y-1975612D01*
G01X13355759Y-1969770D01*
G01X13344329Y-1969770D01*
G01X13472091Y-1969770D02*
G01X13455073Y-1975612D01*
G01X13443643Y-1992630D01*
G01X13437801Y-2021332D01*
G01X13437801Y-2038350D01*
G01X13443643Y-2067052D01*
G01X13455073Y-2084070D01*
G01X13472091Y-2089912D01*
G01X13483521Y-2089912D01*
G01X13500793Y-2084070D01*
G01X13512223Y-2067052D01*
G01X13517811Y-2038350D01*
G01X13517811Y-2021332D01*
G01X13512223Y-1992630D01*
G01X13500793Y-1975612D01*
G01X13483521Y-1969770D01*
G01X13472091Y-1969770D01*
G01X13565563Y-2009902D02*
G01X13565563Y-2089912D01*
G01X13565563Y-2032762D02*
G01X13582835Y-2015490D01*
G01X13594265Y-2009902D01*
G01X13611283Y-2009902D01*
G01X13622713Y-2015490D01*
G01X13628555Y-2032762D01*
G01X13628555Y-2089912D01*
G01X13628555Y-2032762D02*
G01X13645573Y-2015490D01*
G01X13657003Y-2009902D01*
G01X13674275Y-2009902D01*
G01X13685705Y-2015490D01*
G01X13691293Y-2032762D01*
G01X13691293Y-2089912D01*
G01X13739045Y-2009902D02*
G01X13739045Y-2089912D01*
G01X13739045Y-2032762D02*
G01X13756317Y-2015490D01*
G01X13767747Y-2009902D01*
G01X13784765Y-2009902D01*
G01X13796195Y-2015490D01*
G01X13802037Y-2032762D01*
G01X13802037Y-2089912D01*
G01X13802037Y-2032762D02*
G01X13819055Y-2015490D01*
G01X13830485Y-2009902D01*
G01X13847757Y-2009902D01*
G01X13859187Y-2015490D01*
G01X13864775Y-2032762D01*
G01X13864775Y-2089912D01*
G01X13912527Y-1946910D02*
G01X13923957Y-1958340D01*
G01X13935387Y-1975612D01*
G01X13946817Y-1998472D01*
G01X13952659Y-2026920D01*
G01X13952659Y-2049780D01*
G01X13946817Y-2078482D01*
G01X13935387Y-2101342D01*
G01X13923957Y-2118360D01*
G01X13912527Y-2129790D01*
G01X15133905Y-1969770D02*
G01X15133905Y-2089912D01*
G01X15133905Y-1969770D02*
G01X15185467Y-1969770D01*
G01X15202485Y-1975612D01*
G01X15208327Y-1981200D01*
G01X15213915Y-1992630D01*
G01X15213915Y-2009902D01*
G01X15208327Y-2021332D01*
G01X15202485Y-2026920D01*
G01X15185467Y-2032762D01*
G01X15133905Y-2032762D01*
G01X15301799Y-1969770D02*
G01X15301799Y-2089912D01*
G01X15261667Y-1969770D02*
G01X15341677Y-1969770D01*
G01X15389429Y-1969770D02*
G01X15389429Y-2089912D01*
G01X15469439Y-1969770D02*
G01X15469439Y-2089912D01*
G01X15389429Y-2026920D02*
G01X15469439Y-2026920D01*
G01X16595312Y-1969770D02*
G01X16595312Y-2089912D01*
G01X16595312Y-1969770D02*
G01X16646874Y-1969770D01*
G01X16663892Y-1975612D01*
G01X16669734Y-1981200D01*
G01X16675322Y-1992630D01*
G01X16675322Y-2004060D01*
G01X16669734Y-2015490D01*
G01X16663892Y-2021332D01*
G01X16646874Y-2026920D01*
G01X16595312Y-2026920D01*
G01X16635444Y-2026920D02*
G01X16675322Y-2089912D01*
G01X16751776Y-2009902D02*
G01X16740346Y-2015490D01*
G01X16728916Y-2026920D01*
G01X16723074Y-2044192D01*
G01X16723074Y-2055622D01*
G01X16728916Y-2072640D01*
G01X16740346Y-2084070D01*
G01X16751776Y-2089912D01*
G01X16768794Y-2089912D01*
G01X16780224Y-2084070D01*
G01X16791654Y-2072640D01*
G01X16797496Y-2055622D01*
G01X16797496Y-2044192D01*
G01X16791654Y-2026920D01*
G01X16780224Y-2015490D01*
G01X16768794Y-2009902D01*
G01X16751776Y-2009902D01*
G01X16845248Y-2009902D02*
G01X16845248Y-2067052D01*
G01X16851090Y-2084070D01*
G01X16862520Y-2089912D01*
G01X16879538Y-2089912D01*
G01X16890968Y-2084070D01*
G01X16908240Y-2067052D01*
G01X16908240Y-2009902D02*
G01X16908240Y-2089912D01*
G01X16955992Y-2009902D02*
G01X16955992Y-2089912D01*
G01X16955992Y-2032762D02*
G01X16973264Y-2015490D01*
G01X16984694Y-2009902D01*
G01X17001712Y-2009902D01*
G01X17013142Y-2015490D01*
G01X17018984Y-2032762D01*
G01X17018984Y-2089912D01*
G01X17135316Y-1969770D02*
G01X17135316Y-2089912D01*
G01X17135316Y-2026920D02*
G01X17123886Y-2015490D01*
G01X17112456Y-2009902D01*
G01X17095438Y-2009902D01*
G01X17084008Y-2015490D01*
G01X17072578Y-2026920D01*
G01X17066736Y-2044192D01*
G01X17066736Y-2055622D01*
G01X17072578Y-2072640D01*
G01X17084008Y-2084070D01*
G01X17095438Y-2089912D01*
G01X17112456Y-2089912D01*
G01X17123886Y-2084070D01*
G01X17135316Y-2072640D01*
G01X18026493Y-1969770D02*
G01X18026493Y-2089912D01*
G01X18026493Y-1969770D02*
G01X18078055Y-1969770D01*
G01X18095073Y-1975612D01*
G01X18100915Y-1981200D01*
G01X18106503Y-1992630D01*
G01X18106503Y-2009902D01*
G01X18100915Y-2021332D01*
G01X18095073Y-2026920D01*
G01X18078055Y-2032762D01*
G01X18026493Y-2032762D01*
G01X18222835Y-2009902D02*
G01X18222835Y-2089912D01*
G01X18222835Y-2026920D02*
G01X18211405Y-2015490D01*
G01X18199975Y-2009902D01*
G01X18182957Y-2009902D01*
G01X18171527Y-2015490D01*
G01X18160097Y-2026920D01*
G01X18154255Y-2044192D01*
G01X18154255Y-2055622D01*
G01X18160097Y-2072640D01*
G01X18171527Y-2084070D01*
G01X18182957Y-2089912D01*
G01X18199975Y-2089912D01*
G01X18211405Y-2084070D01*
G01X18222835Y-2072640D01*
G01X18339167Y-1969770D02*
G01X18339167Y-2089912D01*
G01X18339167Y-2026920D02*
G01X18327737Y-2015490D01*
G01X18316307Y-2009902D01*
G01X18299289Y-2009902D01*
G01X18287859Y-2015490D01*
G01X18276429Y-2026920D01*
G01X18270587Y-2044192D01*
G01X18270587Y-2055622D01*
G01X18276429Y-2072640D01*
G01X18287859Y-2084070D01*
G01X18299289Y-2089912D01*
G01X18316307Y-2089912D01*
G01X18327737Y-2084070D01*
G01X18339167Y-2072640D01*
G01X19695672Y-1969770D02*
G01X19695672Y-2089912D01*
G01X19695672Y-1969770D02*
G01X19747234Y-1969770D01*
G01X19764252Y-1975612D01*
G01X19770094Y-1981200D01*
G01X19775682Y-1992630D01*
G01X19775682Y-2004060D01*
G01X19770094Y-2015490D01*
G01X19764252Y-2021332D01*
G01X19747234Y-2026920D01*
G01X19695672Y-2026920D01*
G01X19735804Y-2026920D02*
G01X19775682Y-2089912D01*
G01X19852136Y-2009902D02*
G01X19840706Y-2015490D01*
G01X19829276Y-2026920D01*
G01X19823434Y-2044192D01*
G01X19823434Y-2055622D01*
G01X19829276Y-2072640D01*
G01X19840706Y-2084070D01*
G01X19852136Y-2089912D01*
G01X19869154Y-2089912D01*
G01X19880584Y-2084070D01*
G01X19892014Y-2072640D01*
G01X19897856Y-2055622D01*
G01X19897856Y-2044192D01*
G01X19892014Y-2026920D01*
G01X19880584Y-2015490D01*
G01X19869154Y-2009902D01*
G01X19852136Y-2009902D01*
G01X19945608Y-2009902D02*
G01X19945608Y-2067052D01*
G01X19951450Y-2084070D01*
G01X19962880Y-2089912D01*
G01X19979898Y-2089912D01*
G01X19991328Y-2084070D01*
G01X20008600Y-2067052D01*
G01X20008600Y-2009902D02*
G01X20008600Y-2089912D01*
G01X20056352Y-2009902D02*
G01X20056352Y-2089912D01*
G01X20056352Y-2032762D02*
G01X20073624Y-2015490D01*
G01X20085054Y-2009902D01*
G01X20102072Y-2009902D01*
G01X20113502Y-2015490D01*
G01X20119344Y-2032762D01*
G01X20119344Y-2089912D01*
G01X20235676Y-1969770D02*
G01X20235676Y-2089912D01*
G01X20235676Y-2026920D02*
G01X20224246Y-2015490D01*
G01X20212816Y-2009902D01*
G01X20195798Y-2009902D01*
G01X20184368Y-2015490D01*
G01X20172938Y-2026920D01*
G01X20167096Y-2044192D01*
G01X20167096Y-2055622D01*
G01X20172938Y-2072640D01*
G01X20184368Y-2084070D01*
G01X20195798Y-2089912D01*
G01X20212816Y-2089912D01*
G01X20224246Y-2084070D01*
G01X20235676Y-2072640D01*
G01X21655173Y-1969770D02*
G01X21655173Y-2089912D01*
G01X21615041Y-1969770D02*
G01X21695051Y-1969770D01*
G01X21771505Y-2009902D02*
G01X21760075Y-2015490D01*
G01X21748645Y-2026920D01*
G01X21742803Y-2044192D01*
G01X21742803Y-2055622D01*
G01X21748645Y-2072640D01*
G01X21760075Y-2084070D01*
G01X21771505Y-2089912D01*
G01X21788523Y-2089912D01*
G01X21799953Y-2084070D01*
G01X21811383Y-2072640D01*
G01X21817225Y-2055622D01*
G01X21817225Y-2044192D01*
G01X21811383Y-2026920D01*
G01X21799953Y-2015490D01*
G01X21788523Y-2009902D01*
G01X21771505Y-2009902D01*
G01X21864977Y-2009902D02*
G01X21864977Y-2129790D01*
G01X21864977Y-2026920D02*
G01X21876407Y-2015490D01*
G01X21887837Y-2009902D01*
G01X21905109Y-2009902D01*
G01X21916539Y-2015490D01*
G01X21927969Y-2026920D01*
G01X21933557Y-2044192D01*
G01X21933557Y-2055622D01*
G01X21927969Y-2072640D01*
G01X21916539Y-2084070D01*
G01X21905109Y-2089912D01*
G01X21887837Y-2089912D01*
G01X21876407Y-2084070D01*
G01X21864977Y-2072640D01*
G01X22109325Y-1969770D02*
G01X22109325Y-2089912D01*
G01X22109325Y-2089912D02*
G01X22177905Y-2089912D01*
G01X22294237Y-2009902D02*
G01X22294237Y-2089912D01*
G01X22294237Y-2026920D02*
G01X22282807Y-2015490D01*
G01X22271377Y-2009902D01*
G01X22254359Y-2009902D01*
G01X22242929Y-2015490D01*
G01X22231499Y-2026920D01*
G01X22225657Y-2044192D01*
G01X22225657Y-2055622D01*
G01X22231499Y-2072640D01*
G01X22242929Y-2084070D01*
G01X22254359Y-2089912D01*
G01X22271377Y-2089912D01*
G01X22282807Y-2084070D01*
G01X22294237Y-2072640D01*
G01X22347831Y-2009902D02*
G01X22382121Y-2089912D01*
G01X22416411Y-2009902D02*
G01X22382121Y-2089912D01*
G01X22370691Y-2112772D01*
G01X22359261Y-2124202D01*
G01X22347831Y-2129790D01*
G01X22341989Y-2129790D01*
G01X22464163Y-2044192D02*
G01X22532743Y-2044192D01*
G01X22532743Y-2032762D01*
G01X22527155Y-2021332D01*
G01X22521313Y-2015490D01*
G01X22509883Y-2009902D01*
G01X22492865Y-2009902D01*
G01X22481435Y-2015490D01*
G01X22470005Y-2026920D01*
G01X22464163Y-2044192D01*
G01X22464163Y-2055622D01*
G01X22470005Y-2072640D01*
G01X22481435Y-2084070D01*
G01X22492865Y-2089912D01*
G01X22509883Y-2089912D01*
G01X22521313Y-2084070D01*
G01X22532743Y-2072640D01*
G01X22580495Y-2009902D02*
G01X22580495Y-2089912D01*
G01X22580495Y-2044192D02*
G01X22586337Y-2026920D01*
G01X22597767Y-2015490D01*
G01X22609197Y-2009902D01*
G01X22626215Y-2009902D01*
G01X22673967Y-2038350D02*
G01X22776837Y-2038350D01*
G01X22824589Y-1969770D02*
G01X22824589Y-2089912D01*
G01X22824589Y-1969770D02*
G01X22876151Y-1969770D01*
G01X22893169Y-1975612D01*
G01X22899011Y-1981200D01*
G01X22904599Y-1992630D01*
G01X22904599Y-2004060D01*
G01X22899011Y-2015490D01*
G01X22893169Y-2021332D01*
G01X22876151Y-2026920D01*
G01X22824589Y-2026920D02*
G01X22876151Y-2026920D01*
G01X22893169Y-2032762D01*
G01X22899011Y-2038350D01*
G01X22904599Y-2049780D01*
G01X22904599Y-2067052D01*
G01X22899011Y-2078482D01*
G01X22893169Y-2084070D01*
G01X22876151Y-2089912D01*
G01X22824589Y-2089912D01*
G01X22981053Y-2009902D02*
G01X22969623Y-2015490D01*
G01X22958193Y-2026920D01*
G01X22952351Y-2044192D01*
G01X22952351Y-2055622D01*
G01X22958193Y-2072640D01*
G01X22969623Y-2084070D01*
G01X22981053Y-2089912D01*
G01X22998071Y-2089912D01*
G01X23009501Y-2084070D01*
G01X23020931Y-2072640D01*
G01X23026773Y-2055622D01*
G01X23026773Y-2044192D01*
G01X23020931Y-2026920D01*
G01X23009501Y-2015490D01*
G01X22998071Y-2009902D01*
G01X22981053Y-2009902D01*
G01X23091797Y-1969770D02*
G01X23091797Y-2067052D01*
G01X23097385Y-2084070D01*
G01X23108815Y-2089912D01*
G01X23120245Y-2089912D01*
G01X23074525Y-2009902D02*
G01X23114657Y-2009902D01*
G01X23185269Y-1969770D02*
G01X23185269Y-2067052D01*
G01X23190857Y-2084070D01*
G01X23202287Y-2089912D01*
G01X23213717Y-2089912D01*
G01X23167997Y-2009902D02*
G01X23208129Y-2009902D01*
G01X23290171Y-2009902D02*
G01X23278741Y-2015490D01*
G01X23267311Y-2026920D01*
G01X23261469Y-2044192D01*
G01X23261469Y-2055622D01*
G01X23267311Y-2072640D01*
G01X23278741Y-2084070D01*
G01X23290171Y-2089912D01*
G01X23307189Y-2089912D01*
G01X23318619Y-2084070D01*
G01X23330049Y-2072640D01*
G01X23335891Y-2055622D01*
G01X23335891Y-2044192D01*
G01X23330049Y-2026920D01*
G01X23318619Y-2015490D01*
G01X23307189Y-2009902D01*
G01X23290171Y-2009902D01*
G01X23383643Y-2009902D02*
G01X23383643Y-2089912D01*
G01X23383643Y-2032762D02*
G01X23400915Y-2015490D01*
G01X23412345Y-2009902D01*
G01X23429363Y-2009902D01*
G01X23440793Y-2015490D01*
G01X23446635Y-2032762D01*
G01X23446635Y-2089912D01*
G01X23446635Y-2032762D02*
G01X23463653Y-2015490D01*
G01X23475083Y-2009902D01*
G01X23492355Y-2009902D01*
G01X23503785Y-2015490D01*
G01X23509373Y-2032762D01*
G01X23509373Y-2089912D01*
G01X23685141Y-1969770D02*
G01X23685141Y-2089912D01*
G01X23685141Y-2089912D02*
G01X23753721Y-2089912D01*
G01X23870053Y-2009902D02*
G01X23870053Y-2089912D01*
G01X23870053Y-2026920D02*
G01X23858623Y-2015490D01*
G01X23847193Y-2009902D01*
G01X23830175Y-2009902D01*
G01X23818745Y-2015490D01*
G01X23807315Y-2026920D01*
G01X23801473Y-2044192D01*
G01X23801473Y-2055622D01*
G01X23807315Y-2072640D01*
G01X23818745Y-2084070D01*
G01X23830175Y-2089912D01*
G01X23847193Y-2089912D01*
G01X23858623Y-2084070D01*
G01X23870053Y-2072640D01*
G01X23923647Y-2009902D02*
G01X23957937Y-2089912D01*
G01X23992227Y-2009902D02*
G01X23957937Y-2089912D01*
G01X23946507Y-2112772D01*
G01X23935077Y-2124202D01*
G01X23923647Y-2129790D01*
G01X23917805Y-2129790D01*
G01X24039979Y-2044192D02*
G01X24108559Y-2044192D01*
G01X24108559Y-2032762D01*
G01X24102971Y-2021332D01*
G01X24097129Y-2015490D01*
G01X24085699Y-2009902D01*
G01X24068681Y-2009902D01*
G01X24057251Y-2015490D01*
G01X24045821Y-2026920D01*
G01X24039979Y-2044192D01*
G01X24039979Y-2055622D01*
G01X24045821Y-2072640D01*
G01X24057251Y-2084070D01*
G01X24068681Y-2089912D01*
G01X24085699Y-2089912D01*
G01X24097129Y-2084070D01*
G01X24108559Y-2072640D01*
G01X24156311Y-2009902D02*
G01X24156311Y-2089912D01*
G01X24156311Y-2044192D02*
G01X24162153Y-2026920D01*
G01X24173583Y-2015490D01*
G01X24185013Y-2009902D01*
G01X24202031Y-2009902D01*
G01X9638324Y-2573201D02*
G01X9649754Y-2567613D01*
G01X9667026Y-2550341D01*
G01X9667026Y-2670483D01*
G01X9749068Y-2550341D02*
G01X9732050Y-2556183D01*
G01X9720620Y-2573201D01*
G01X9714778Y-2601903D01*
G01X9714778Y-2618921D01*
G01X9720620Y-2647623D01*
G01X9732050Y-2664641D01*
G01X9749068Y-2670483D01*
G01X9760498Y-2670483D01*
G01X9777770Y-2664641D01*
G01X9789200Y-2647623D01*
G01X9794788Y-2618921D01*
G01X9794788Y-2601903D01*
G01X9789200Y-2573201D01*
G01X9777770Y-2556183D01*
G01X9760498Y-2550341D01*
G01X9749068Y-2550341D01*
G01X11058329Y-2579043D02*
G01X11058329Y-2573201D01*
G01X11063917Y-2561771D01*
G01X11069759Y-2556183D01*
G01X11081189Y-2550341D01*
G01X11104049Y-2550341D01*
G01X11115479Y-2556183D01*
G01X11121067Y-2561771D01*
G01X11126909Y-2573201D01*
G01X11126909Y-2584631D01*
G01X11121067Y-2596061D01*
G01X11109637Y-2613333D01*
G01X11052487Y-2670483D01*
G01X11132497Y-2670483D01*
G01X11260259Y-2550341D02*
G01X11203109Y-2670483D01*
G01X11180249Y-2550341D02*
G01X11260259Y-2550341D01*
G01X11313853Y-2641781D02*
G01X11308011Y-2647623D01*
G01X11313853Y-2653211D01*
G01X11319441Y-2647623D01*
G01X11313853Y-2641781D01*
G01X11435773Y-2567613D02*
G01X11430185Y-2556183D01*
G01X11412913Y-2550341D01*
G01X11401483Y-2550341D01*
G01X11384465Y-2556183D01*
G01X11373035Y-2573201D01*
G01X11367193Y-2601903D01*
G01X11367193Y-2630351D01*
G01X11373035Y-2653211D01*
G01X11384465Y-2664641D01*
G01X11401483Y-2670483D01*
G01X11407325Y-2670483D01*
G01X11424343Y-2664641D01*
G01X11435773Y-2653211D01*
G01X11441615Y-2636193D01*
G01X11441615Y-2630351D01*
G01X11435773Y-2613333D01*
G01X11424343Y-2601903D01*
G01X11407325Y-2596061D01*
G01X11401483Y-2596061D01*
G01X11384465Y-2601903D01*
G01X11373035Y-2613333D01*
G01X11367193Y-2630351D01*
G01X11489367Y-2590473D02*
G01X11552359Y-2670483D01*
G01X11552359Y-2590473D02*
G01X11489367Y-2670483D01*
G01X11605953Y-2579043D02*
G01X11605953Y-2573201D01*
G01X11611541Y-2561771D01*
G01X11617383Y-2556183D01*
G01X11628813Y-2550341D01*
G01X11651673Y-2550341D01*
G01X11663103Y-2556183D01*
G01X11668691Y-2561771D01*
G01X11674533Y-2573201D01*
G01X11674533Y-2584631D01*
G01X11668691Y-2596061D01*
G01X11657261Y-2613333D01*
G01X11600111Y-2670483D01*
G01X11680121Y-2670483D01*
G01X11807883Y-2550341D02*
G01X11750733Y-2670483D01*
G01X11727873Y-2550341D02*
G01X11807883Y-2550341D01*
G01X11861477Y-2641781D02*
G01X11855635Y-2647623D01*
G01X11861477Y-2653211D01*
G01X11867065Y-2647623D01*
G01X11861477Y-2641781D01*
G01X11983397Y-2567613D02*
G01X11977809Y-2556183D01*
G01X11960537Y-2550341D01*
G01X11949107Y-2550341D01*
G01X11932089Y-2556183D01*
G01X11920659Y-2573201D01*
G01X11914817Y-2601903D01*
G01X11914817Y-2630351D01*
G01X11920659Y-2653211D01*
G01X11932089Y-2664641D01*
G01X11949107Y-2670483D01*
G01X11954949Y-2670483D01*
G01X11971967Y-2664641D01*
G01X11983397Y-2653211D01*
G01X11989239Y-2636193D01*
G01X11989239Y-2630351D01*
G01X11983397Y-2613333D01*
G01X11971967Y-2601903D01*
G01X11954949Y-2596061D01*
G01X11949107Y-2596061D01*
G01X11932089Y-2601903D01*
G01X11920659Y-2613333D01*
G01X11914817Y-2630351D01*
G01X12036991Y-2590473D02*
G01X12036991Y-2670483D01*
G01X12036991Y-2613333D02*
G01X12054263Y-2596061D01*
G01X12065693Y-2590473D01*
G01X12082711Y-2590473D01*
G01X12094141Y-2596061D01*
G01X12099983Y-2613333D01*
G01X12099983Y-2670483D01*
G01X12099983Y-2613333D02*
G01X12117001Y-2596061D01*
G01X12128431Y-2590473D01*
G01X12145703Y-2590473D01*
G01X12157133Y-2596061D01*
G01X12162721Y-2613333D01*
G01X12162721Y-2670483D01*
G01X12210473Y-2550341D02*
G01X12216315Y-2556183D01*
G01X12221903Y-2550341D01*
G01X12216315Y-2544753D01*
G01X12210473Y-2550341D01*
G01X12216315Y-2590473D02*
G01X12216315Y-2670483D01*
G01X12269655Y-2550341D02*
G01X12269655Y-2670483D01*
G01X12357539Y-2527481D02*
G01X12346109Y-2538911D01*
G01X12334679Y-2556183D01*
G01X12323249Y-2579043D01*
G01X12317407Y-2607491D01*
G01X12317407Y-2630351D01*
G01X12323249Y-2659053D01*
G01X12334679Y-2681913D01*
G01X12346109Y-2698931D01*
G01X12357539Y-2710361D01*
G01X12439581Y-2550341D02*
G01X12422563Y-2556183D01*
G01X12411133Y-2573201D01*
G01X12405291Y-2601903D01*
G01X12405291Y-2618921D01*
G01X12411133Y-2647623D01*
G01X12422563Y-2664641D01*
G01X12439581Y-2670483D01*
G01X12451011Y-2670483D01*
G01X12468283Y-2664641D01*
G01X12479713Y-2647623D01*
G01X12485301Y-2618921D01*
G01X12485301Y-2601903D01*
G01X12479713Y-2573201D01*
G01X12468283Y-2556183D01*
G01X12451011Y-2550341D01*
G01X12439581Y-2550341D01*
G01X12538895Y-2641781D02*
G01X12533053Y-2647623D01*
G01X12538895Y-2653211D01*
G01X12544483Y-2647623D01*
G01X12538895Y-2641781D01*
G01X12672245Y-2550341D02*
G01X12615095Y-2670483D01*
G01X12592235Y-2550341D02*
G01X12672245Y-2550341D01*
G01X12754287Y-2550341D02*
G01X12737269Y-2556183D01*
G01X12725839Y-2573201D01*
G01X12719997Y-2601903D01*
G01X12719997Y-2618921D01*
G01X12725839Y-2647623D01*
G01X12737269Y-2664641D01*
G01X12754287Y-2670483D01*
G01X12765717Y-2670483D01*
G01X12782989Y-2664641D01*
G01X12794419Y-2647623D01*
G01X12800007Y-2618921D01*
G01X12800007Y-2601903D01*
G01X12794419Y-2573201D01*
G01X12782989Y-2556183D01*
G01X12765717Y-2550341D01*
G01X12754287Y-2550341D01*
G01X12882049Y-2550341D02*
G01X12865031Y-2556183D01*
G01X12853601Y-2573201D01*
G01X12847759Y-2601903D01*
G01X12847759Y-2618921D01*
G01X12853601Y-2647623D01*
G01X12865031Y-2664641D01*
G01X12882049Y-2670483D01*
G01X12893479Y-2670483D01*
G01X12910751Y-2664641D01*
G01X12922181Y-2647623D01*
G01X12927769Y-2618921D01*
G01X12927769Y-2601903D01*
G01X12922181Y-2573201D01*
G01X12910751Y-2556183D01*
G01X12893479Y-2550341D01*
G01X12882049Y-2550341D01*
G01X12975521Y-2590473D02*
G01X13038513Y-2670483D01*
G01X13038513Y-2590473D02*
G01X12975521Y-2670483D01*
G01X13120555Y-2550341D02*
G01X13103537Y-2556183D01*
G01X13092107Y-2573201D01*
G01X13086265Y-2601903D01*
G01X13086265Y-2618921D01*
G01X13092107Y-2647623D01*
G01X13103537Y-2664641D01*
G01X13120555Y-2670483D01*
G01X13131985Y-2670483D01*
G01X13149257Y-2664641D01*
G01X13160687Y-2647623D01*
G01X13166275Y-2618921D01*
G01X13166275Y-2601903D01*
G01X13160687Y-2573201D01*
G01X13149257Y-2556183D01*
G01X13131985Y-2550341D01*
G01X13120555Y-2550341D01*
G01X13219869Y-2641781D02*
G01X13214027Y-2647623D01*
G01X13219869Y-2653211D01*
G01X13225457Y-2647623D01*
G01X13219869Y-2641781D01*
G01X13353219Y-2550341D02*
G01X13296069Y-2670483D01*
G01X13273209Y-2550341D02*
G01X13353219Y-2550341D01*
G01X13435261Y-2550341D02*
G01X13418243Y-2556183D01*
G01X13406813Y-2573201D01*
G01X13400971Y-2601903D01*
G01X13400971Y-2618921D01*
G01X13406813Y-2647623D01*
G01X13418243Y-2664641D01*
G01X13435261Y-2670483D01*
G01X13446691Y-2670483D01*
G01X13463963Y-2664641D01*
G01X13475393Y-2647623D01*
G01X13480981Y-2618921D01*
G01X13480981Y-2601903D01*
G01X13475393Y-2573201D01*
G01X13463963Y-2556183D01*
G01X13446691Y-2550341D01*
G01X13435261Y-2550341D01*
G01X13563023Y-2550341D02*
G01X13546005Y-2556183D01*
G01X13534575Y-2573201D01*
G01X13528733Y-2601903D01*
G01X13528733Y-2618921D01*
G01X13534575Y-2647623D01*
G01X13546005Y-2664641D01*
G01X13563023Y-2670483D01*
G01X13574453Y-2670483D01*
G01X13591725Y-2664641D01*
G01X13603155Y-2647623D01*
G01X13608743Y-2618921D01*
G01X13608743Y-2601903D01*
G01X13603155Y-2573201D01*
G01X13591725Y-2556183D01*
G01X13574453Y-2550341D01*
G01X13563023Y-2550341D01*
G01X13656495Y-2590473D02*
G01X13656495Y-2670483D01*
G01X13656495Y-2613333D02*
G01X13673767Y-2596061D01*
G01X13685197Y-2590473D01*
G01X13702215Y-2590473D01*
G01X13713645Y-2596061D01*
G01X13719487Y-2613333D01*
G01X13719487Y-2670483D01*
G01X13719487Y-2613333D02*
G01X13736505Y-2596061D01*
G01X13747935Y-2590473D01*
G01X13765207Y-2590473D01*
G01X13776637Y-2596061D01*
G01X13782225Y-2613333D01*
G01X13782225Y-2670483D01*
G01X13829977Y-2590473D02*
G01X13829977Y-2670483D01*
G01X13829977Y-2613333D02*
G01X13847249Y-2596061D01*
G01X13858679Y-2590473D01*
G01X13875697Y-2590473D01*
G01X13887127Y-2596061D01*
G01X13892969Y-2613333D01*
G01X13892969Y-2670483D01*
G01X13892969Y-2613333D02*
G01X13909987Y-2596061D01*
G01X13921417Y-2590473D01*
G01X13938689Y-2590473D01*
G01X13950119Y-2596061D01*
G01X13955707Y-2613333D01*
G01X13955707Y-2670483D01*
G01X14003459Y-2527481D02*
G01X14014889Y-2538911D01*
G01X14026319Y-2556183D01*
G01X14037749Y-2579043D01*
G01X14043591Y-2607491D01*
G01X14043591Y-2630351D01*
G01X14037749Y-2659053D01*
G01X14026319Y-2681913D01*
G01X14014889Y-2698931D01*
G01X14003459Y-2710361D01*
G01X15133905Y-2550341D02*
G01X15133905Y-2670483D01*
G01X15133905Y-2550341D02*
G01X15185467Y-2550341D01*
G01X15202485Y-2556183D01*
G01X15208327Y-2561771D01*
G01X15213915Y-2573201D01*
G01X15213915Y-2590473D01*
G01X15208327Y-2601903D01*
G01X15202485Y-2607491D01*
G01X15185467Y-2613333D01*
G01X15133905Y-2613333D01*
G01X15301799Y-2550341D02*
G01X15301799Y-2670483D01*
G01X15261667Y-2550341D02*
G01X15341677Y-2550341D01*
G01X15389429Y-2550341D02*
G01X15389429Y-2670483D01*
G01X15469439Y-2550341D02*
G01X15469439Y-2670483D01*
G01X15389429Y-2607491D02*
G01X15469439Y-2607491D01*
G01X16595312Y-2550341D02*
G01X16595312Y-2670483D01*
G01X16595312Y-2550341D02*
G01X16646874Y-2550341D01*
G01X16663892Y-2556183D01*
G01X16669734Y-2561771D01*
G01X16675322Y-2573201D01*
G01X16675322Y-2584631D01*
G01X16669734Y-2596061D01*
G01X16663892Y-2601903D01*
G01X16646874Y-2607491D01*
G01X16595312Y-2607491D01*
G01X16635444Y-2607491D02*
G01X16675322Y-2670483D01*
G01X16751776Y-2590473D02*
G01X16740346Y-2596061D01*
G01X16728916Y-2607491D01*
G01X16723074Y-2624763D01*
G01X16723074Y-2636193D01*
G01X16728916Y-2653211D01*
G01X16740346Y-2664641D01*
G01X16751776Y-2670483D01*
G01X16768794Y-2670483D01*
G01X16780224Y-2664641D01*
G01X16791654Y-2653211D01*
G01X16797496Y-2636193D01*
G01X16797496Y-2624763D01*
G01X16791654Y-2607491D01*
G01X16780224Y-2596061D01*
G01X16768794Y-2590473D01*
G01X16751776Y-2590473D01*
G01X16845248Y-2590473D02*
G01X16845248Y-2647623D01*
G01X16851090Y-2664641D01*
G01X16862520Y-2670483D01*
G01X16879538Y-2670483D01*
G01X16890968Y-2664641D01*
G01X16908240Y-2647623D01*
G01X16908240Y-2590473D02*
G01X16908240Y-2670483D01*
G01X16955992Y-2590473D02*
G01X16955992Y-2670483D01*
G01X16955992Y-2613333D02*
G01X16973264Y-2596061D01*
G01X16984694Y-2590473D01*
G01X17001712Y-2590473D01*
G01X17013142Y-2596061D01*
G01X17018984Y-2613333D01*
G01X17018984Y-2670483D01*
G01X17135316Y-2550341D02*
G01X17135316Y-2670483D01*
G01X17135316Y-2607491D02*
G01X17123886Y-2596061D01*
G01X17112456Y-2590473D01*
G01X17095438Y-2590473D01*
G01X17084008Y-2596061D01*
G01X17072578Y-2607491D01*
G01X17066736Y-2624763D01*
G01X17066736Y-2636193D01*
G01X17072578Y-2653211D01*
G01X17084008Y-2664641D01*
G01X17095438Y-2670483D01*
G01X17112456Y-2670483D01*
G01X17123886Y-2664641D01*
G01X17135316Y-2653211D01*
G01X18026493Y-2550341D02*
G01X18026493Y-2670483D01*
G01X18026493Y-2550341D02*
G01X18078055Y-2550341D01*
G01X18095073Y-2556183D01*
G01X18100915Y-2561771D01*
G01X18106503Y-2573201D01*
G01X18106503Y-2590473D01*
G01X18100915Y-2601903D01*
G01X18095073Y-2607491D01*
G01X18078055Y-2613333D01*
G01X18026493Y-2613333D01*
G01X18222835Y-2590473D02*
G01X18222835Y-2670483D01*
G01X18222835Y-2607491D02*
G01X18211405Y-2596061D01*
G01X18199975Y-2590473D01*
G01X18182957Y-2590473D01*
G01X18171527Y-2596061D01*
G01X18160097Y-2607491D01*
G01X18154255Y-2624763D01*
G01X18154255Y-2636193D01*
G01X18160097Y-2653211D01*
G01X18171527Y-2664641D01*
G01X18182957Y-2670483D01*
G01X18199975Y-2670483D01*
G01X18211405Y-2664641D01*
G01X18222835Y-2653211D01*
G01X18339167Y-2550341D02*
G01X18339167Y-2670483D01*
G01X18339167Y-2607491D02*
G01X18327737Y-2596061D01*
G01X18316307Y-2590473D01*
G01X18299289Y-2590473D01*
G01X18287859Y-2596061D01*
G01X18276429Y-2607491D01*
G01X18270587Y-2624763D01*
G01X18270587Y-2636193D01*
G01X18276429Y-2653211D01*
G01X18287859Y-2664641D01*
G01X18299289Y-2670483D01*
G01X18316307Y-2670483D01*
G01X18327737Y-2664641D01*
G01X18339167Y-2653211D01*
G01X19695672Y-2550341D02*
G01X19695672Y-2670483D01*
G01X19695672Y-2550341D02*
G01X19747234Y-2550341D01*
G01X19764252Y-2556183D01*
G01X19770094Y-2561771D01*
G01X19775682Y-2573201D01*
G01X19775682Y-2584631D01*
G01X19770094Y-2596061D01*
G01X19764252Y-2601903D01*
G01X19747234Y-2607491D01*
G01X19695672Y-2607491D01*
G01X19735804Y-2607491D02*
G01X19775682Y-2670483D01*
G01X19852136Y-2590473D02*
G01X19840706Y-2596061D01*
G01X19829276Y-2607491D01*
G01X19823434Y-2624763D01*
G01X19823434Y-2636193D01*
G01X19829276Y-2653211D01*
G01X19840706Y-2664641D01*
G01X19852136Y-2670483D01*
G01X19869154Y-2670483D01*
G01X19880584Y-2664641D01*
G01X19892014Y-2653211D01*
G01X19897856Y-2636193D01*
G01X19897856Y-2624763D01*
G01X19892014Y-2607491D01*
G01X19880584Y-2596061D01*
G01X19869154Y-2590473D01*
G01X19852136Y-2590473D01*
G01X19945608Y-2590473D02*
G01X19945608Y-2647623D01*
G01X19951450Y-2664641D01*
G01X19962880Y-2670483D01*
G01X19979898Y-2670483D01*
G01X19991328Y-2664641D01*
G01X20008600Y-2647623D01*
G01X20008600Y-2590473D02*
G01X20008600Y-2670483D01*
G01X20056352Y-2590473D02*
G01X20056352Y-2670483D01*
G01X20056352Y-2613333D02*
G01X20073624Y-2596061D01*
G01X20085054Y-2590473D01*
G01X20102072Y-2590473D01*
G01X20113502Y-2596061D01*
G01X20119344Y-2613333D01*
G01X20119344Y-2670483D01*
G01X20235676Y-2550341D02*
G01X20235676Y-2670483D01*
G01X20235676Y-2607491D02*
G01X20224246Y-2596061D01*
G01X20212816Y-2590473D01*
G01X20195798Y-2590473D01*
G01X20184368Y-2596061D01*
G01X20172938Y-2607491D01*
G01X20167096Y-2624763D01*
G01X20167096Y-2636193D01*
G01X20172938Y-2653211D01*
G01X20184368Y-2664641D01*
G01X20195798Y-2670483D01*
G01X20212816Y-2670483D01*
G01X20224246Y-2664641D01*
G01X20235676Y-2653211D01*
G01X21655173Y-2550341D02*
G01X21655173Y-2670483D01*
G01X21615041Y-2550341D02*
G01X21695051Y-2550341D01*
G01X21771505Y-2590473D02*
G01X21760075Y-2596061D01*
G01X21748645Y-2607491D01*
G01X21742803Y-2624763D01*
G01X21742803Y-2636193D01*
G01X21748645Y-2653211D01*
G01X21760075Y-2664641D01*
G01X21771505Y-2670483D01*
G01X21788523Y-2670483D01*
G01X21799953Y-2664641D01*
G01X21811383Y-2653211D01*
G01X21817225Y-2636193D01*
G01X21817225Y-2624763D01*
G01X21811383Y-2607491D01*
G01X21799953Y-2596061D01*
G01X21788523Y-2590473D01*
G01X21771505Y-2590473D01*
G01X21864977Y-2590473D02*
G01X21864977Y-2710361D01*
G01X21864977Y-2607491D02*
G01X21876407Y-2596061D01*
G01X21887837Y-2590473D01*
G01X21905109Y-2590473D01*
G01X21916539Y-2596061D01*
G01X21927969Y-2607491D01*
G01X21933557Y-2624763D01*
G01X21933557Y-2636193D01*
G01X21927969Y-2653211D01*
G01X21916539Y-2664641D01*
G01X21905109Y-2670483D01*
G01X21887837Y-2670483D01*
G01X21876407Y-2664641D01*
G01X21864977Y-2653211D01*
G01X22109325Y-2550341D02*
G01X22109325Y-2670483D01*
G01X22109325Y-2670483D02*
G01X22177905Y-2670483D01*
G01X22294237Y-2590473D02*
G01X22294237Y-2670483D01*
G01X22294237Y-2607491D02*
G01X22282807Y-2596061D01*
G01X22271377Y-2590473D01*
G01X22254359Y-2590473D01*
G01X22242929Y-2596061D01*
G01X22231499Y-2607491D01*
G01X22225657Y-2624763D01*
G01X22225657Y-2636193D01*
G01X22231499Y-2653211D01*
G01X22242929Y-2664641D01*
G01X22254359Y-2670483D01*
G01X22271377Y-2670483D01*
G01X22282807Y-2664641D01*
G01X22294237Y-2653211D01*
G01X22347831Y-2590473D02*
G01X22382121Y-2670483D01*
G01X22416411Y-2590473D02*
G01X22382121Y-2670483D01*
G01X22370691Y-2693343D01*
G01X22359261Y-2704773D01*
G01X22347831Y-2710361D01*
G01X22341989Y-2710361D01*
G01X22464163Y-2624763D02*
G01X22532743Y-2624763D01*
G01X22532743Y-2613333D01*
G01X22527155Y-2601903D01*
G01X22521313Y-2596061D01*
G01X22509883Y-2590473D01*
G01X22492865Y-2590473D01*
G01X22481435Y-2596061D01*
G01X22470005Y-2607491D01*
G01X22464163Y-2624763D01*
G01X22464163Y-2636193D01*
G01X22470005Y-2653211D01*
G01X22481435Y-2664641D01*
G01X22492865Y-2670483D01*
G01X22509883Y-2670483D01*
G01X22521313Y-2664641D01*
G01X22532743Y-2653211D01*
G01X22580495Y-2590473D02*
G01X22580495Y-2670483D01*
G01X22580495Y-2624763D02*
G01X22586337Y-2607491D01*
G01X22597767Y-2596061D01*
G01X22609197Y-2590473D01*
G01X22626215Y-2590473D01*
G01X22673967Y-2618921D02*
G01X22776837Y-2618921D01*
G01X22824589Y-2550341D02*
G01X22824589Y-2670483D01*
G01X22824589Y-2550341D02*
G01X22876151Y-2550341D01*
G01X22893169Y-2556183D01*
G01X22899011Y-2561771D01*
G01X22904599Y-2573201D01*
G01X22904599Y-2584631D01*
G01X22899011Y-2596061D01*
G01X22893169Y-2601903D01*
G01X22876151Y-2607491D01*
G01X22824589Y-2607491D02*
G01X22876151Y-2607491D01*
G01X22893169Y-2613333D01*
G01X22899011Y-2618921D01*
G01X22904599Y-2630351D01*
G01X22904599Y-2647623D01*
G01X22899011Y-2659053D01*
G01X22893169Y-2664641D01*
G01X22876151Y-2670483D01*
G01X22824589Y-2670483D01*
G01X22981053Y-2590473D02*
G01X22969623Y-2596061D01*
G01X22958193Y-2607491D01*
G01X22952351Y-2624763D01*
G01X22952351Y-2636193D01*
G01X22958193Y-2653211D01*
G01X22969623Y-2664641D01*
G01X22981053Y-2670483D01*
G01X22998071Y-2670483D01*
G01X23009501Y-2664641D01*
G01X23020931Y-2653211D01*
G01X23026773Y-2636193D01*
G01X23026773Y-2624763D01*
G01X23020931Y-2607491D01*
G01X23009501Y-2596061D01*
G01X22998071Y-2590473D01*
G01X22981053Y-2590473D01*
G01X23091797Y-2550341D02*
G01X23091797Y-2647623D01*
G01X23097385Y-2664641D01*
G01X23108815Y-2670483D01*
G01X23120245Y-2670483D01*
G01X23074525Y-2590473D02*
G01X23114657Y-2590473D01*
G01X23185269Y-2550341D02*
G01X23185269Y-2647623D01*
G01X23190857Y-2664641D01*
G01X23202287Y-2670483D01*
G01X23213717Y-2670483D01*
G01X23167997Y-2590473D02*
G01X23208129Y-2590473D01*
G01X23290171Y-2590473D02*
G01X23278741Y-2596061D01*
G01X23267311Y-2607491D01*
G01X23261469Y-2624763D01*
G01X23261469Y-2636193D01*
G01X23267311Y-2653211D01*
G01X23278741Y-2664641D01*
G01X23290171Y-2670483D01*
G01X23307189Y-2670483D01*
G01X23318619Y-2664641D01*
G01X23330049Y-2653211D01*
G01X23335891Y-2636193D01*
G01X23335891Y-2624763D01*
G01X23330049Y-2607491D01*
G01X23318619Y-2596061D01*
G01X23307189Y-2590473D01*
G01X23290171Y-2590473D01*
G01X23383643Y-2590473D02*
G01X23383643Y-2670483D01*
G01X23383643Y-2613333D02*
G01X23400915Y-2596061D01*
G01X23412345Y-2590473D01*
G01X23429363Y-2590473D01*
G01X23440793Y-2596061D01*
G01X23446635Y-2613333D01*
G01X23446635Y-2670483D01*
G01X23446635Y-2613333D02*
G01X23463653Y-2596061D01*
G01X23475083Y-2590473D01*
G01X23492355Y-2590473D01*
G01X23503785Y-2596061D01*
G01X23509373Y-2613333D01*
G01X23509373Y-2670483D01*
G01X23685141Y-2550341D02*
G01X23685141Y-2670483D01*
G01X23685141Y-2670483D02*
G01X23753721Y-2670483D01*
G01X23870053Y-2590473D02*
G01X23870053Y-2670483D01*
G01X23870053Y-2607491D02*
G01X23858623Y-2596061D01*
G01X23847193Y-2590473D01*
G01X23830175Y-2590473D01*
G01X23818745Y-2596061D01*
G01X23807315Y-2607491D01*
G01X23801473Y-2624763D01*
G01X23801473Y-2636193D01*
G01X23807315Y-2653211D01*
G01X23818745Y-2664641D01*
G01X23830175Y-2670483D01*
G01X23847193Y-2670483D01*
G01X23858623Y-2664641D01*
G01X23870053Y-2653211D01*
G01X23923647Y-2590473D02*
G01X23957937Y-2670483D01*
G01X23992227Y-2590473D02*
G01X23957937Y-2670483D01*
G01X23946507Y-2693343D01*
G01X23935077Y-2704773D01*
G01X23923647Y-2710361D01*
G01X23917805Y-2710361D01*
G01X24039979Y-2624763D02*
G01X24108559Y-2624763D01*
G01X24108559Y-2613333D01*
G01X24102971Y-2601903D01*
G01X24097129Y-2596061D01*
G01X24085699Y-2590473D01*
G01X24068681Y-2590473D01*
G01X24057251Y-2596061D01*
G01X24045821Y-2607491D01*
G01X24039979Y-2624763D01*
G01X24039979Y-2636193D01*
G01X24045821Y-2653211D01*
G01X24057251Y-2664641D01*
G01X24068681Y-2670483D01*
G01X24085699Y-2670483D01*
G01X24097129Y-2664641D01*
G01X24108559Y-2653211D01*
G01X24156311Y-2590473D02*
G01X24156311Y-2670483D01*
G01X24156311Y-2624763D02*
G01X24162153Y-2607491D01*
G01X24173583Y-2596061D01*
G01X24185013Y-2590473D01*
G01X24202031Y-2590473D01*
G01X9638324Y-3153773D02*
G01X9649754Y-3148185D01*
G01X9667026Y-3130913D01*
G01X9667026Y-3251055D01*
G01X9771928Y-3130913D02*
G01X9714778Y-3210923D01*
G01X9800630Y-3210923D01*
G01X9771928Y-3130913D02*
G01X9771928Y-3251055D01*
G01X11063917Y-3130913D02*
G01X11126909Y-3130913D01*
G01X11092619Y-3176633D01*
G01X11109637Y-3176633D01*
G01X11121067Y-3182475D01*
G01X11126909Y-3188063D01*
G01X11132497Y-3205335D01*
G01X11132497Y-3216765D01*
G01X11126909Y-3233783D01*
G01X11115479Y-3245213D01*
G01X11098207Y-3251055D01*
G01X11081189Y-3251055D01*
G01X11063917Y-3245213D01*
G01X11058329Y-3239625D01*
G01X11052487Y-3228195D01*
G01X11248829Y-3130913D02*
G01X11191679Y-3130913D01*
G01X11186091Y-3182475D01*
G01X11191679Y-3176633D01*
G01X11208951Y-3171045D01*
G01X11225969Y-3171045D01*
G01X11243241Y-3176633D01*
G01X11254671Y-3188063D01*
G01X11260259Y-3205335D01*
G01X11260259Y-3216765D01*
G01X11254671Y-3233783D01*
G01X11243241Y-3245213D01*
G01X11225969Y-3251055D01*
G01X11208951Y-3251055D01*
G01X11191679Y-3245213D01*
G01X11186091Y-3239625D01*
G01X11180249Y-3228195D01*
G01X11313853Y-3222353D02*
G01X11308011Y-3228195D01*
G01X11313853Y-3233783D01*
G01X11319441Y-3228195D01*
G01X11313853Y-3222353D01*
G01X11424343Y-3130913D02*
G01X11367193Y-3210923D01*
G01X11453045Y-3210923D01*
G01X11424343Y-3130913D02*
G01X11424343Y-3251055D01*
G01X11500797Y-3171045D02*
G01X11563789Y-3251055D01*
G01X11563789Y-3171045D02*
G01X11500797Y-3251055D01*
G01X11622971Y-3130913D02*
G01X11685963Y-3130913D01*
G01X11651673Y-3176633D01*
G01X11668691Y-3176633D01*
G01X11680121Y-3182475D01*
G01X11685963Y-3188063D01*
G01X11691551Y-3205335D01*
G01X11691551Y-3216765D01*
G01X11685963Y-3233783D01*
G01X11674533Y-3245213D01*
G01X11657261Y-3251055D01*
G01X11640243Y-3251055D01*
G01X11622971Y-3245213D01*
G01X11617383Y-3239625D01*
G01X11611541Y-3228195D01*
G01X11807883Y-3130913D02*
G01X11750733Y-3130913D01*
G01X11745145Y-3182475D01*
G01X11750733Y-3176633D01*
G01X11768005Y-3171045D01*
G01X11785023Y-3171045D01*
G01X11802295Y-3176633D01*
G01X11813725Y-3188063D01*
G01X11819313Y-3205335D01*
G01X11819313Y-3216765D01*
G01X11813725Y-3233783D01*
G01X11802295Y-3245213D01*
G01X11785023Y-3251055D01*
G01X11768005Y-3251055D01*
G01X11750733Y-3245213D01*
G01X11745145Y-3239625D01*
G01X11739303Y-3228195D01*
G01X11872907Y-3222353D02*
G01X11867065Y-3228195D01*
G01X11872907Y-3233783D01*
G01X11878495Y-3228195D01*
G01X11872907Y-3222353D01*
G01X11983397Y-3130913D02*
G01X11926247Y-3210923D01*
G01X12012099Y-3210923D01*
G01X11983397Y-3130913D02*
G01X11983397Y-3251055D01*
G01X12059851Y-3171045D02*
G01X12059851Y-3251055D01*
G01X12059851Y-3193905D02*
G01X12077123Y-3176633D01*
G01X12088553Y-3171045D01*
G01X12105571Y-3171045D01*
G01X12117001Y-3176633D01*
G01X12122843Y-3193905D01*
G01X12122843Y-3251055D01*
G01X12122843Y-3193905D02*
G01X12139861Y-3176633D01*
G01X12151291Y-3171045D01*
G01X12168563Y-3171045D01*
G01X12179993Y-3176633D01*
G01X12185581Y-3193905D01*
G01X12185581Y-3251055D01*
G01X12233333Y-3130913D02*
G01X12239175Y-3136755D01*
G01X12244763Y-3130913D01*
G01X12239175Y-3125325D01*
G01X12233333Y-3130913D01*
G01X12239175Y-3171045D02*
G01X12239175Y-3251055D01*
G01X12292515Y-3130913D02*
G01X12292515Y-3251055D01*
G01X12380399Y-3108053D02*
G01X12368969Y-3119483D01*
G01X12357539Y-3136755D01*
G01X12346109Y-3159615D01*
G01X12340267Y-3188063D01*
G01X12340267Y-3210923D01*
G01X12346109Y-3239625D01*
G01X12357539Y-3262485D01*
G01X12368969Y-3279503D01*
G01X12380399Y-3290933D01*
G01X12462441Y-3130913D02*
G01X12445423Y-3136755D01*
G01X12433993Y-3153773D01*
G01X12428151Y-3182475D01*
G01X12428151Y-3199493D01*
G01X12433993Y-3228195D01*
G01X12445423Y-3245213D01*
G01X12462441Y-3251055D01*
G01X12473871Y-3251055D01*
G01X12491143Y-3245213D01*
G01X12502573Y-3228195D01*
G01X12508161Y-3199493D01*
G01X12508161Y-3182475D01*
G01X12502573Y-3153773D01*
G01X12491143Y-3136755D01*
G01X12473871Y-3130913D01*
G01X12462441Y-3130913D01*
G01X12561755Y-3222353D02*
G01X12555913Y-3228195D01*
G01X12561755Y-3233783D01*
G01X12567343Y-3228195D01*
G01X12561755Y-3222353D01*
G01X12689517Y-3171045D02*
G01X12683675Y-3188063D01*
G01X12672245Y-3199493D01*
G01X12655227Y-3205335D01*
G01X12649385Y-3205335D01*
G01X12632367Y-3199493D01*
G01X12620937Y-3188063D01*
G01X12615095Y-3171045D01*
G01X12615095Y-3165203D01*
G01X12620937Y-3148185D01*
G01X12632367Y-3136755D01*
G01X12649385Y-3130913D01*
G01X12655227Y-3130913D01*
G01X12672245Y-3136755D01*
G01X12683675Y-3148185D01*
G01X12689517Y-3171045D01*
G01X12689517Y-3199493D01*
G01X12683675Y-3228195D01*
G01X12672245Y-3245213D01*
G01X12655227Y-3251055D01*
G01X12643797Y-3251055D01*
G01X12626525Y-3245213D01*
G01X12620937Y-3233783D01*
G01X12771559Y-3130913D02*
G01X12754541Y-3136755D01*
G01X12743111Y-3153773D01*
G01X12737269Y-3182475D01*
G01X12737269Y-3199493D01*
G01X12743111Y-3228195D01*
G01X12754541Y-3245213D01*
G01X12771559Y-3251055D01*
G01X12782989Y-3251055D01*
G01X12800261Y-3245213D01*
G01X12811691Y-3228195D01*
G01X12817279Y-3199493D01*
G01X12817279Y-3182475D01*
G01X12811691Y-3153773D01*
G01X12800261Y-3136755D01*
G01X12782989Y-3130913D01*
G01X12771559Y-3130913D01*
G01X12899321Y-3130913D02*
G01X12882303Y-3136755D01*
G01X12870873Y-3153773D01*
G01X12865031Y-3182475D01*
G01X12865031Y-3199493D01*
G01X12870873Y-3228195D01*
G01X12882303Y-3245213D01*
G01X12899321Y-3251055D01*
G01X12910751Y-3251055D01*
G01X12928023Y-3245213D01*
G01X12939453Y-3228195D01*
G01X12945041Y-3199493D01*
G01X12945041Y-3182475D01*
G01X12939453Y-3153773D01*
G01X12928023Y-3136755D01*
G01X12910751Y-3130913D01*
G01X12899321Y-3130913D01*
G01X12992793Y-3171045D02*
G01X13055785Y-3251055D01*
G01X13055785Y-3171045D02*
G01X12992793Y-3251055D01*
G01X13137827Y-3130913D02*
G01X13120809Y-3136755D01*
G01X13109379Y-3153773D01*
G01X13103537Y-3182475D01*
G01X13103537Y-3199493D01*
G01X13109379Y-3228195D01*
G01X13120809Y-3245213D01*
G01X13137827Y-3251055D01*
G01X13149257Y-3251055D01*
G01X13166529Y-3245213D01*
G01X13177959Y-3228195D01*
G01X13183547Y-3199493D01*
G01X13183547Y-3182475D01*
G01X13177959Y-3153773D01*
G01X13166529Y-3136755D01*
G01X13149257Y-3130913D01*
G01X13137827Y-3130913D01*
G01X13237141Y-3222353D02*
G01X13231299Y-3228195D01*
G01X13237141Y-3233783D01*
G01X13242729Y-3228195D01*
G01X13237141Y-3222353D01*
G01X13364903Y-3171045D02*
G01X13359061Y-3188063D01*
G01X13347631Y-3199493D01*
G01X13330613Y-3205335D01*
G01X13324771Y-3205335D01*
G01X13307753Y-3199493D01*
G01X13296323Y-3188063D01*
G01X13290481Y-3171045D01*
G01X13290481Y-3165203D01*
G01X13296323Y-3148185D01*
G01X13307753Y-3136755D01*
G01X13324771Y-3130913D01*
G01X13330613Y-3130913D01*
G01X13347631Y-3136755D01*
G01X13359061Y-3148185D01*
G01X13364903Y-3171045D01*
G01X13364903Y-3199493D01*
G01X13359061Y-3228195D01*
G01X13347631Y-3245213D01*
G01X13330613Y-3251055D01*
G01X13319183Y-3251055D01*
G01X13301911Y-3245213D01*
G01X13296323Y-3233783D01*
G01X13446945Y-3130913D02*
G01X13429927Y-3136755D01*
G01X13418497Y-3153773D01*
G01X13412655Y-3182475D01*
G01X13412655Y-3199493D01*
G01X13418497Y-3228195D01*
G01X13429927Y-3245213D01*
G01X13446945Y-3251055D01*
G01X13458375Y-3251055D01*
G01X13475647Y-3245213D01*
G01X13487077Y-3228195D01*
G01X13492665Y-3199493D01*
G01X13492665Y-3182475D01*
G01X13487077Y-3153773D01*
G01X13475647Y-3136755D01*
G01X13458375Y-3130913D01*
G01X13446945Y-3130913D01*
G01X13574707Y-3130913D02*
G01X13557689Y-3136755D01*
G01X13546259Y-3153773D01*
G01X13540417Y-3182475D01*
G01X13540417Y-3199493D01*
G01X13546259Y-3228195D01*
G01X13557689Y-3245213D01*
G01X13574707Y-3251055D01*
G01X13586137Y-3251055D01*
G01X13603409Y-3245213D01*
G01X13614839Y-3228195D01*
G01X13620427Y-3199493D01*
G01X13620427Y-3182475D01*
G01X13614839Y-3153773D01*
G01X13603409Y-3136755D01*
G01X13586137Y-3130913D01*
G01X13574707Y-3130913D01*
G01X13668179Y-3171045D02*
G01X13668179Y-3251055D01*
G01X13668179Y-3193905D02*
G01X13685451Y-3176633D01*
G01X13696881Y-3171045D01*
G01X13713899Y-3171045D01*
G01X13725329Y-3176633D01*
G01X13731171Y-3193905D01*
G01X13731171Y-3251055D01*
G01X13731171Y-3193905D02*
G01X13748189Y-3176633D01*
G01X13759619Y-3171045D01*
G01X13776891Y-3171045D01*
G01X13788321Y-3176633D01*
G01X13793909Y-3193905D01*
G01X13793909Y-3251055D01*
G01X13841661Y-3171045D02*
G01X13841661Y-3251055D01*
G01X13841661Y-3193905D02*
G01X13858933Y-3176633D01*
G01X13870363Y-3171045D01*
G01X13887381Y-3171045D01*
G01X13898811Y-3176633D01*
G01X13904653Y-3193905D01*
G01X13904653Y-3251055D01*
G01X13904653Y-3193905D02*
G01X13921671Y-3176633D01*
G01X13933101Y-3171045D01*
G01X13950373Y-3171045D01*
G01X13961803Y-3176633D01*
G01X13967391Y-3193905D01*
G01X13967391Y-3251055D01*
G01X14015143Y-3108053D02*
G01X14026573Y-3119483D01*
G01X14038003Y-3136755D01*
G01X14049433Y-3159615D01*
G01X14055275Y-3188063D01*
G01X14055275Y-3210923D01*
G01X14049433Y-3239625D01*
G01X14038003Y-3262485D01*
G01X14026573Y-3279503D01*
G01X14015143Y-3290933D01*
G01X15133905Y-3130913D02*
G01X15133905Y-3251055D01*
G01X15133905Y-3130913D02*
G01X15185467Y-3130913D01*
G01X15202485Y-3136755D01*
G01X15208327Y-3142343D01*
G01X15213915Y-3153773D01*
G01X15213915Y-3171045D01*
G01X15208327Y-3182475D01*
G01X15202485Y-3188063D01*
G01X15185467Y-3193905D01*
G01X15133905Y-3193905D01*
G01X15301799Y-3130913D02*
G01X15301799Y-3251055D01*
G01X15261667Y-3130913D02*
G01X15341677Y-3130913D01*
G01X15389429Y-3130913D02*
G01X15389429Y-3251055D01*
G01X15469439Y-3130913D02*
G01X15469439Y-3251055D01*
G01X15389429Y-3188063D02*
G01X15469439Y-3188063D01*
G01X16595312Y-3130913D02*
G01X16595312Y-3251055D01*
G01X16595312Y-3130913D02*
G01X16646874Y-3130913D01*
G01X16663892Y-3136755D01*
G01X16669734Y-3142343D01*
G01X16675322Y-3153773D01*
G01X16675322Y-3165203D01*
G01X16669734Y-3176633D01*
G01X16663892Y-3182475D01*
G01X16646874Y-3188063D01*
G01X16595312Y-3188063D01*
G01X16635444Y-3188063D02*
G01X16675322Y-3251055D01*
G01X16751776Y-3171045D02*
G01X16740346Y-3176633D01*
G01X16728916Y-3188063D01*
G01X16723074Y-3205335D01*
G01X16723074Y-3216765D01*
G01X16728916Y-3233783D01*
G01X16740346Y-3245213D01*
G01X16751776Y-3251055D01*
G01X16768794Y-3251055D01*
G01X16780224Y-3245213D01*
G01X16791654Y-3233783D01*
G01X16797496Y-3216765D01*
G01X16797496Y-3205335D01*
G01X16791654Y-3188063D01*
G01X16780224Y-3176633D01*
G01X16768794Y-3171045D01*
G01X16751776Y-3171045D01*
G01X16845248Y-3171045D02*
G01X16845248Y-3228195D01*
G01X16851090Y-3245213D01*
G01X16862520Y-3251055D01*
G01X16879538Y-3251055D01*
G01X16890968Y-3245213D01*
G01X16908240Y-3228195D01*
G01X16908240Y-3171045D02*
G01X16908240Y-3251055D01*
G01X16955992Y-3171045D02*
G01X16955992Y-3251055D01*
G01X16955992Y-3193905D02*
G01X16973264Y-3176633D01*
G01X16984694Y-3171045D01*
G01X17001712Y-3171045D01*
G01X17013142Y-3176633D01*
G01X17018984Y-3193905D01*
G01X17018984Y-3251055D01*
G01X17135316Y-3130913D02*
G01X17135316Y-3251055D01*
G01X17135316Y-3188063D02*
G01X17123886Y-3176633D01*
G01X17112456Y-3171045D01*
G01X17095438Y-3171045D01*
G01X17084008Y-3176633D01*
G01X17072578Y-3188063D01*
G01X17066736Y-3205335D01*
G01X17066736Y-3216765D01*
G01X17072578Y-3233783D01*
G01X17084008Y-3245213D01*
G01X17095438Y-3251055D01*
G01X17112456Y-3251055D01*
G01X17123886Y-3245213D01*
G01X17135316Y-3233783D01*
G01X18026493Y-3130913D02*
G01X18026493Y-3251055D01*
G01X18026493Y-3130913D02*
G01X18078055Y-3130913D01*
G01X18095073Y-3136755D01*
G01X18100915Y-3142343D01*
G01X18106503Y-3153773D01*
G01X18106503Y-3171045D01*
G01X18100915Y-3182475D01*
G01X18095073Y-3188063D01*
G01X18078055Y-3193905D01*
G01X18026493Y-3193905D01*
G01X18222835Y-3171045D02*
G01X18222835Y-3251055D01*
G01X18222835Y-3188063D02*
G01X18211405Y-3176633D01*
G01X18199975Y-3171045D01*
G01X18182957Y-3171045D01*
G01X18171527Y-3176633D01*
G01X18160097Y-3188063D01*
G01X18154255Y-3205335D01*
G01X18154255Y-3216765D01*
G01X18160097Y-3233783D01*
G01X18171527Y-3245213D01*
G01X18182957Y-3251055D01*
G01X18199975Y-3251055D01*
G01X18211405Y-3245213D01*
G01X18222835Y-3233783D01*
G01X18339167Y-3130913D02*
G01X18339167Y-3251055D01*
G01X18339167Y-3188063D02*
G01X18327737Y-3176633D01*
G01X18316307Y-3171045D01*
G01X18299289Y-3171045D01*
G01X18287859Y-3176633D01*
G01X18276429Y-3188063D01*
G01X18270587Y-3205335D01*
G01X18270587Y-3216765D01*
G01X18276429Y-3233783D01*
G01X18287859Y-3245213D01*
G01X18299289Y-3251055D01*
G01X18316307Y-3251055D01*
G01X18327737Y-3245213D01*
G01X18339167Y-3233783D01*
G01X19735804Y-3108053D02*
G01X19724374Y-3119483D01*
G01X19712944Y-3136755D01*
G01X19701514Y-3159615D01*
G01X19695672Y-3188063D01*
G01X19695672Y-3210923D01*
G01X19701514Y-3239625D01*
G01X19712944Y-3262485D01*
G01X19724374Y-3279503D01*
G01X19735804Y-3290933D01*
G01X19783556Y-3130913D02*
G01X19783556Y-3251055D01*
G01X19783556Y-3130913D02*
G01X19829276Y-3251055D01*
G01X19874996Y-3130913D02*
G01X19829276Y-3251055D01*
G01X19874996Y-3130913D02*
G01X19874996Y-3251055D01*
G01X19922748Y-3130913D02*
G01X19928590Y-3136755D01*
G01X19934178Y-3130913D01*
G01X19928590Y-3125325D01*
G01X19922748Y-3130913D01*
G01X19928590Y-3171045D02*
G01X19928590Y-3251055D01*
G01X19981930Y-3171045D02*
G01X20044922Y-3251055D01*
G01X20044922Y-3171045D02*
G01X19981930Y-3251055D01*
G01X20092674Y-3205335D02*
G01X20161254Y-3205335D01*
G01X20161254Y-3193905D01*
G01X20155666Y-3182475D01*
G01X20149824Y-3176633D01*
G01X20138394Y-3171045D01*
G01X20121376Y-3171045D01*
G01X20109946Y-3176633D01*
G01X20098516Y-3188063D01*
G01X20092674Y-3205335D01*
G01X20092674Y-3216765D01*
G01X20098516Y-3233783D01*
G01X20109946Y-3245213D01*
G01X20121376Y-3251055D01*
G01X20138394Y-3251055D01*
G01X20149824Y-3245213D01*
G01X20161254Y-3233783D01*
G01X20277586Y-3130913D02*
G01X20277586Y-3251055D01*
G01X20277586Y-3188063D02*
G01X20266156Y-3176633D01*
G01X20254726Y-3171045D01*
G01X20237708Y-3171045D01*
G01X20226278Y-3176633D01*
G01X20214848Y-3188063D01*
G01X20209006Y-3205335D01*
G01X20209006Y-3216765D01*
G01X20214848Y-3233783D01*
G01X20226278Y-3245213D01*
G01X20237708Y-3251055D01*
G01X20254726Y-3251055D01*
G01X20266156Y-3245213D01*
G01X20277586Y-3233783D01*
G01X20325338Y-3108053D02*
G01X20336768Y-3119483D01*
G01X20348198Y-3136755D01*
G01X20359628Y-3159615D01*
G01X20365470Y-3188063D01*
G01X20365470Y-3210923D01*
G01X20359628Y-3239625D01*
G01X20348198Y-3262485D01*
G01X20336768Y-3279503D01*
G01X20325338Y-3290933D01*
G01X21655173Y-3130913D02*
G01X21655173Y-3251055D01*
G01X21615041Y-3130913D02*
G01X21695051Y-3130913D01*
G01X21771505Y-3171045D02*
G01X21760075Y-3176633D01*
G01X21748645Y-3188063D01*
G01X21742803Y-3205335D01*
G01X21742803Y-3216765D01*
G01X21748645Y-3233783D01*
G01X21760075Y-3245213D01*
G01X21771505Y-3251055D01*
G01X21788523Y-3251055D01*
G01X21799953Y-3245213D01*
G01X21811383Y-3233783D01*
G01X21817225Y-3216765D01*
G01X21817225Y-3205335D01*
G01X21811383Y-3188063D01*
G01X21799953Y-3176633D01*
G01X21788523Y-3171045D01*
G01X21771505Y-3171045D01*
G01X21864977Y-3171045D02*
G01X21864977Y-3290933D01*
G01X21864977Y-3188063D02*
G01X21876407Y-3176633D01*
G01X21887837Y-3171045D01*
G01X21905109Y-3171045D01*
G01X21916539Y-3176633D01*
G01X21927969Y-3188063D01*
G01X21933557Y-3205335D01*
G01X21933557Y-3216765D01*
G01X21927969Y-3233783D01*
G01X21916539Y-3245213D01*
G01X21905109Y-3251055D01*
G01X21887837Y-3251055D01*
G01X21876407Y-3245213D01*
G01X21864977Y-3233783D01*
G01X22109325Y-3130913D02*
G01X22109325Y-3251055D01*
G01X22109325Y-3251055D02*
G01X22177905Y-3251055D01*
G01X22294237Y-3171045D02*
G01X22294237Y-3251055D01*
G01X22294237Y-3188063D02*
G01X22282807Y-3176633D01*
G01X22271377Y-3171045D01*
G01X22254359Y-3171045D01*
G01X22242929Y-3176633D01*
G01X22231499Y-3188063D01*
G01X22225657Y-3205335D01*
G01X22225657Y-3216765D01*
G01X22231499Y-3233783D01*
G01X22242929Y-3245213D01*
G01X22254359Y-3251055D01*
G01X22271377Y-3251055D01*
G01X22282807Y-3245213D01*
G01X22294237Y-3233783D01*
G01X22347831Y-3171045D02*
G01X22382121Y-3251055D01*
G01X22416411Y-3171045D02*
G01X22382121Y-3251055D01*
G01X22370691Y-3273915D01*
G01X22359261Y-3285345D01*
G01X22347831Y-3290933D01*
G01X22341989Y-3290933D01*
G01X22464163Y-3205335D02*
G01X22532743Y-3205335D01*
G01X22532743Y-3193905D01*
G01X22527155Y-3182475D01*
G01X22521313Y-3176633D01*
G01X22509883Y-3171045D01*
G01X22492865Y-3171045D01*
G01X22481435Y-3176633D01*
G01X22470005Y-3188063D01*
G01X22464163Y-3205335D01*
G01X22464163Y-3216765D01*
G01X22470005Y-3233783D01*
G01X22481435Y-3245213D01*
G01X22492865Y-3251055D01*
G01X22509883Y-3251055D01*
G01X22521313Y-3245213D01*
G01X22532743Y-3233783D01*
G01X22580495Y-3171045D02*
G01X22580495Y-3251055D01*
G01X22580495Y-3205335D02*
G01X22586337Y-3188063D01*
G01X22597767Y-3176633D01*
G01X22609197Y-3171045D01*
G01X22626215Y-3171045D01*
G01X22673967Y-3199493D02*
G01X22776837Y-3199493D01*
G01X22824589Y-3130913D02*
G01X22824589Y-3251055D01*
G01X22824589Y-3130913D02*
G01X22876151Y-3130913D01*
G01X22893169Y-3136755D01*
G01X22899011Y-3142343D01*
G01X22904599Y-3153773D01*
G01X22904599Y-3165203D01*
G01X22899011Y-3176633D01*
G01X22893169Y-3182475D01*
G01X22876151Y-3188063D01*
G01X22824589Y-3188063D02*
G01X22876151Y-3188063D01*
G01X22893169Y-3193905D01*
G01X22899011Y-3199493D01*
G01X22904599Y-3210923D01*
G01X22904599Y-3228195D01*
G01X22899011Y-3239625D01*
G01X22893169Y-3245213D01*
G01X22876151Y-3251055D01*
G01X22824589Y-3251055D01*
G01X22981053Y-3171045D02*
G01X22969623Y-3176633D01*
G01X22958193Y-3188063D01*
G01X22952351Y-3205335D01*
G01X22952351Y-3216765D01*
G01X22958193Y-3233783D01*
G01X22969623Y-3245213D01*
G01X22981053Y-3251055D01*
G01X22998071Y-3251055D01*
G01X23009501Y-3245213D01*
G01X23020931Y-3233783D01*
G01X23026773Y-3216765D01*
G01X23026773Y-3205335D01*
G01X23020931Y-3188063D01*
G01X23009501Y-3176633D01*
G01X22998071Y-3171045D01*
G01X22981053Y-3171045D01*
G01X23091797Y-3130913D02*
G01X23091797Y-3228195D01*
G01X23097385Y-3245213D01*
G01X23108815Y-3251055D01*
G01X23120245Y-3251055D01*
G01X23074525Y-3171045D02*
G01X23114657Y-3171045D01*
G01X23185269Y-3130913D02*
G01X23185269Y-3228195D01*
G01X23190857Y-3245213D01*
G01X23202287Y-3251055D01*
G01X23213717Y-3251055D01*
G01X23167997Y-3171045D02*
G01X23208129Y-3171045D01*
G01X23290171Y-3171045D02*
G01X23278741Y-3176633D01*
G01X23267311Y-3188063D01*
G01X23261469Y-3205335D01*
G01X23261469Y-3216765D01*
G01X23267311Y-3233783D01*
G01X23278741Y-3245213D01*
G01X23290171Y-3251055D01*
G01X23307189Y-3251055D01*
G01X23318619Y-3245213D01*
G01X23330049Y-3233783D01*
G01X23335891Y-3216765D01*
G01X23335891Y-3205335D01*
G01X23330049Y-3188063D01*
G01X23318619Y-3176633D01*
G01X23307189Y-3171045D01*
G01X23290171Y-3171045D01*
G01X23383643Y-3171045D02*
G01X23383643Y-3251055D01*
G01X23383643Y-3193905D02*
G01X23400915Y-3176633D01*
G01X23412345Y-3171045D01*
G01X23429363Y-3171045D01*
G01X23440793Y-3176633D01*
G01X23446635Y-3193905D01*
G01X23446635Y-3251055D01*
G01X23446635Y-3193905D02*
G01X23463653Y-3176633D01*
G01X23475083Y-3171045D01*
G01X23492355Y-3171045D01*
G01X23503785Y-3176633D01*
G01X23509373Y-3193905D01*
G01X23509373Y-3251055D01*
G01X23685141Y-3130913D02*
G01X23685141Y-3251055D01*
G01X23685141Y-3251055D02*
G01X23753721Y-3251055D01*
G01X23870053Y-3171045D02*
G01X23870053Y-3251055D01*
G01X23870053Y-3188063D02*
G01X23858623Y-3176633D01*
G01X23847193Y-3171045D01*
G01X23830175Y-3171045D01*
G01X23818745Y-3176633D01*
G01X23807315Y-3188063D01*
G01X23801473Y-3205335D01*
G01X23801473Y-3216765D01*
G01X23807315Y-3233783D01*
G01X23818745Y-3245213D01*
G01X23830175Y-3251055D01*
G01X23847193Y-3251055D01*
G01X23858623Y-3245213D01*
G01X23870053Y-3233783D01*
G01X23923647Y-3171045D02*
G01X23957937Y-3251055D01*
G01X23992227Y-3171045D02*
G01X23957937Y-3251055D01*
G01X23946507Y-3273915D01*
G01X23935077Y-3285345D01*
G01X23923647Y-3290933D01*
G01X23917805Y-3290933D01*
G01X24039979Y-3205335D02*
G01X24108559Y-3205335D01*
G01X24108559Y-3193905D01*
G01X24102971Y-3182475D01*
G01X24097129Y-3176633D01*
G01X24085699Y-3171045D01*
G01X24068681Y-3171045D01*
G01X24057251Y-3176633D01*
G01X24045821Y-3188063D01*
G01X24039979Y-3205335D01*
G01X24039979Y-3216765D01*
G01X24045821Y-3233783D01*
G01X24057251Y-3245213D01*
G01X24068681Y-3251055D01*
G01X24085699Y-3251055D01*
G01X24097129Y-3245213D01*
G01X24108559Y-3233783D01*
G01X24156311Y-3171045D02*
G01X24156311Y-3251055D01*
G01X24156311Y-3205335D02*
G01X24162153Y-3188063D01*
G01X24173583Y-3176633D01*
G01X24185013Y-3171045D01*
G01X24202031Y-3171045D01*
G01X9644166Y-3740186D02*
G01X9644166Y-3734344D01*
G01X9649754Y-3722914D01*
G01X9655596Y-3717326D01*
G01X9667026Y-3711484D01*
G01X9689886Y-3711484D01*
G01X9701316Y-3717326D01*
G01X9706904Y-3722914D01*
G01X9712746Y-3734344D01*
G01X9712746Y-3745774D01*
G01X9706904Y-3757204D01*
G01X9695474Y-3774476D01*
G01X9638324Y-3831626D01*
G01X9718334Y-3831626D01*
G01X9766086Y-3734344D02*
G01X9777516Y-3728756D01*
G01X9794788Y-3711484D01*
G01X9794788Y-3831626D01*
G01X11063917Y-3711484D02*
G01X11126909Y-3711484D01*
G01X11092619Y-3757204D01*
G01X11109637Y-3757204D01*
G01X11121067Y-3763046D01*
G01X11126909Y-3768634D01*
G01X11132497Y-3785906D01*
G01X11132497Y-3797336D01*
G01X11126909Y-3814354D01*
G01X11115479Y-3825784D01*
G01X11098207Y-3831626D01*
G01X11081189Y-3831626D01*
G01X11063917Y-3825784D01*
G01X11058329Y-3820196D01*
G01X11052487Y-3808766D01*
G01X11248829Y-3728756D02*
G01X11243241Y-3717326D01*
G01X11225969Y-3711484D01*
G01X11214539Y-3711484D01*
G01X11197521Y-3717326D01*
G01X11186091Y-3734344D01*
G01X11180249Y-3763046D01*
G01X11180249Y-3791494D01*
G01X11186091Y-3814354D01*
G01X11197521Y-3825784D01*
G01X11214539Y-3831626D01*
G01X11220381Y-3831626D01*
G01X11237399Y-3825784D01*
G01X11248829Y-3814354D01*
G01X11254671Y-3797336D01*
G01X11254671Y-3791494D01*
G01X11248829Y-3774476D01*
G01X11237399Y-3763046D01*
G01X11220381Y-3757204D01*
G01X11214539Y-3757204D01*
G01X11197521Y-3763046D01*
G01X11186091Y-3774476D01*
G01X11180249Y-3791494D01*
G01X11308265Y-3802924D02*
G01X11302423Y-3808766D01*
G01X11308265Y-3814354D01*
G01X11313853Y-3808766D01*
G01X11308265Y-3802924D01*
G01X11395895Y-3711484D02*
G01X11378877Y-3717326D01*
G01X11367447Y-3734344D01*
G01X11361605Y-3763046D01*
G01X11361605Y-3780064D01*
G01X11367447Y-3808766D01*
G01X11378877Y-3825784D01*
G01X11395895Y-3831626D01*
G01X11407325Y-3831626D01*
G01X11424597Y-3825784D01*
G01X11436027Y-3808766D01*
G01X11441615Y-3780064D01*
G01X11441615Y-3763046D01*
G01X11436027Y-3734344D01*
G01X11424597Y-3717326D01*
G01X11407325Y-3711484D01*
G01X11395895Y-3711484D01*
G01X11489367Y-3751616D02*
G01X11552359Y-3831626D01*
G01X11552359Y-3751616D02*
G01X11489367Y-3831626D01*
G01X11611541Y-3711484D02*
G01X11674533Y-3711484D01*
G01X11640243Y-3757204D01*
G01X11657261Y-3757204D01*
G01X11668691Y-3763046D01*
G01X11674533Y-3768634D01*
G01X11680121Y-3785906D01*
G01X11680121Y-3797336D01*
G01X11674533Y-3814354D01*
G01X11663103Y-3825784D01*
G01X11645831Y-3831626D01*
G01X11628813Y-3831626D01*
G01X11611541Y-3825784D01*
G01X11605953Y-3820196D01*
G01X11600111Y-3808766D01*
G01X11796453Y-3728756D02*
G01X11790865Y-3717326D01*
G01X11773593Y-3711484D01*
G01X11762163Y-3711484D01*
G01X11745145Y-3717326D01*
G01X11733715Y-3734344D01*
G01X11727873Y-3763046D01*
G01X11727873Y-3791494D01*
G01X11733715Y-3814354D01*
G01X11745145Y-3825784D01*
G01X11762163Y-3831626D01*
G01X11768005Y-3831626D01*
G01X11785023Y-3825784D01*
G01X11796453Y-3814354D01*
G01X11802295Y-3797336D01*
G01X11802295Y-3791494D01*
G01X11796453Y-3774476D01*
G01X11785023Y-3763046D01*
G01X11768005Y-3757204D01*
G01X11762163Y-3757204D01*
G01X11745145Y-3763046D01*
G01X11733715Y-3774476D01*
G01X11727873Y-3791494D01*
G01X11855889Y-3802924D02*
G01X11850047Y-3808766D01*
G01X11855889Y-3814354D01*
G01X11861477Y-3808766D01*
G01X11855889Y-3802924D01*
G01X11943519Y-3711484D02*
G01X11926501Y-3717326D01*
G01X11915071Y-3734344D01*
G01X11909229Y-3763046D01*
G01X11909229Y-3780064D01*
G01X11915071Y-3808766D01*
G01X11926501Y-3825784D01*
G01X11943519Y-3831626D01*
G01X11954949Y-3831626D01*
G01X11972221Y-3825784D01*
G01X11983651Y-3808766D01*
G01X11989239Y-3780064D01*
G01X11989239Y-3763046D01*
G01X11983651Y-3734344D01*
G01X11972221Y-3717326D01*
G01X11954949Y-3711484D01*
G01X11943519Y-3711484D01*
G01X12036991Y-3751616D02*
G01X12036991Y-3831626D01*
G01X12036991Y-3774476D02*
G01X12054263Y-3757204D01*
G01X12065693Y-3751616D01*
G01X12082711Y-3751616D01*
G01X12094141Y-3757204D01*
G01X12099983Y-3774476D01*
G01X12099983Y-3831626D01*
G01X12099983Y-3774476D02*
G01X12117001Y-3757204D01*
G01X12128431Y-3751616D01*
G01X12145703Y-3751616D01*
G01X12157133Y-3757204D01*
G01X12162721Y-3774476D01*
G01X12162721Y-3831626D01*
G01X12210473Y-3711484D02*
G01X12216315Y-3717326D01*
G01X12221903Y-3711484D01*
G01X12216315Y-3705896D01*
G01X12210473Y-3711484D01*
G01X12216315Y-3751616D02*
G01X12216315Y-3831626D01*
G01X12269655Y-3711484D02*
G01X12269655Y-3831626D01*
G01X12357539Y-3688624D02*
G01X12346109Y-3700054D01*
G01X12334679Y-3717326D01*
G01X12323249Y-3740186D01*
G01X12317407Y-3768634D01*
G01X12317407Y-3791494D01*
G01X12323249Y-3820196D01*
G01X12334679Y-3843056D01*
G01X12346109Y-3860074D01*
G01X12357539Y-3871504D01*
G01X12439581Y-3711484D02*
G01X12422563Y-3717326D01*
G01X12411133Y-3734344D01*
G01X12405291Y-3763046D01*
G01X12405291Y-3780064D01*
G01X12411133Y-3808766D01*
G01X12422563Y-3825784D01*
G01X12439581Y-3831626D01*
G01X12451011Y-3831626D01*
G01X12468283Y-3825784D01*
G01X12479713Y-3808766D01*
G01X12485301Y-3780064D01*
G01X12485301Y-3763046D01*
G01X12479713Y-3734344D01*
G01X12468283Y-3717326D01*
G01X12451011Y-3711484D01*
G01X12439581Y-3711484D01*
G01X12538895Y-3802924D02*
G01X12533053Y-3808766D01*
G01X12538895Y-3814354D01*
G01X12544483Y-3808766D01*
G01X12538895Y-3802924D01*
G01X12666657Y-3751616D02*
G01X12660815Y-3768634D01*
G01X12649385Y-3780064D01*
G01X12632367Y-3785906D01*
G01X12626525Y-3785906D01*
G01X12609507Y-3780064D01*
G01X12598077Y-3768634D01*
G01X12592235Y-3751616D01*
G01X12592235Y-3745774D01*
G01X12598077Y-3728756D01*
G01X12609507Y-3717326D01*
G01X12626525Y-3711484D01*
G01X12632367Y-3711484D01*
G01X12649385Y-3717326D01*
G01X12660815Y-3728756D01*
G01X12666657Y-3751616D01*
G01X12666657Y-3780064D01*
G01X12660815Y-3808766D01*
G01X12649385Y-3825784D01*
G01X12632367Y-3831626D01*
G01X12620937Y-3831626D01*
G01X12603665Y-3825784D01*
G01X12598077Y-3814354D01*
G01X12714409Y-3734344D02*
G01X12725839Y-3728756D01*
G01X12743111Y-3711484D01*
G01X12743111Y-3831626D01*
G01X12848013Y-3711484D02*
G01X12790863Y-3791494D01*
G01X12876715Y-3791494D01*
G01X12848013Y-3711484D02*
G01X12848013Y-3831626D01*
G01X12924467Y-3751616D02*
G01X12987459Y-3831626D01*
G01X12987459Y-3751616D02*
G01X12924467Y-3831626D01*
G01X13069501Y-3711484D02*
G01X13052483Y-3717326D01*
G01X13041053Y-3734344D01*
G01X13035211Y-3763046D01*
G01X13035211Y-3780064D01*
G01X13041053Y-3808766D01*
G01X13052483Y-3825784D01*
G01X13069501Y-3831626D01*
G01X13080931Y-3831626D01*
G01X13098203Y-3825784D01*
G01X13109633Y-3808766D01*
G01X13115221Y-3780064D01*
G01X13115221Y-3763046D01*
G01X13109633Y-3734344D01*
G01X13098203Y-3717326D01*
G01X13080931Y-3711484D01*
G01X13069501Y-3711484D01*
G01X13168815Y-3802924D02*
G01X13162973Y-3808766D01*
G01X13168815Y-3814354D01*
G01X13174403Y-3808766D01*
G01X13168815Y-3802924D01*
G01X13296577Y-3751616D02*
G01X13290735Y-3768634D01*
G01X13279305Y-3780064D01*
G01X13262287Y-3785906D01*
G01X13256445Y-3785906D01*
G01X13239427Y-3780064D01*
G01X13227997Y-3768634D01*
G01X13222155Y-3751616D01*
G01X13222155Y-3745774D01*
G01X13227997Y-3728756D01*
G01X13239427Y-3717326D01*
G01X13256445Y-3711484D01*
G01X13262287Y-3711484D01*
G01X13279305Y-3717326D01*
G01X13290735Y-3728756D01*
G01X13296577Y-3751616D01*
G01X13296577Y-3780064D01*
G01X13290735Y-3808766D01*
G01X13279305Y-3825784D01*
G01X13262287Y-3831626D01*
G01X13250857Y-3831626D01*
G01X13233585Y-3825784D01*
G01X13227997Y-3814354D01*
G01X13344329Y-3734344D02*
G01X13355759Y-3728756D01*
G01X13373031Y-3711484D01*
G01X13373031Y-3831626D01*
G01X13477933Y-3711484D02*
G01X13420783Y-3791494D01*
G01X13506635Y-3791494D01*
G01X13477933Y-3711484D02*
G01X13477933Y-3831626D01*
G01X13554387Y-3751616D02*
G01X13554387Y-3831626D01*
G01X13554387Y-3774476D02*
G01X13571659Y-3757204D01*
G01X13583089Y-3751616D01*
G01X13600107Y-3751616D01*
G01X13611537Y-3757204D01*
G01X13617379Y-3774476D01*
G01X13617379Y-3831626D01*
G01X13617379Y-3774476D02*
G01X13634397Y-3757204D01*
G01X13645827Y-3751616D01*
G01X13663099Y-3751616D01*
G01X13674529Y-3757204D01*
G01X13680117Y-3774476D01*
G01X13680117Y-3831626D01*
G01X13727869Y-3751616D02*
G01X13727869Y-3831626D01*
G01X13727869Y-3774476D02*
G01X13745141Y-3757204D01*
G01X13756571Y-3751616D01*
G01X13773589Y-3751616D01*
G01X13785019Y-3757204D01*
G01X13790861Y-3774476D01*
G01X13790861Y-3831626D01*
G01X13790861Y-3774476D02*
G01X13807879Y-3757204D01*
G01X13819309Y-3751616D01*
G01X13836581Y-3751616D01*
G01X13848011Y-3757204D01*
G01X13853599Y-3774476D01*
G01X13853599Y-3831626D01*
G01X13901351Y-3688624D02*
G01X13912781Y-3700054D01*
G01X13924211Y-3717326D01*
G01X13935641Y-3740186D01*
G01X13941483Y-3768634D01*
G01X13941483Y-3791494D01*
G01X13935641Y-3820196D01*
G01X13924211Y-3843056D01*
G01X13912781Y-3860074D01*
G01X13901351Y-3871504D01*
G01X15133905Y-3711484D02*
G01X15133905Y-3831626D01*
G01X15133905Y-3711484D02*
G01X15185467Y-3711484D01*
G01X15202485Y-3717326D01*
G01X15208327Y-3722914D01*
G01X15213915Y-3734344D01*
G01X15213915Y-3751616D01*
G01X15208327Y-3763046D01*
G01X15202485Y-3768634D01*
G01X15185467Y-3774476D01*
G01X15133905Y-3774476D01*
G01X15301799Y-3711484D02*
G01X15301799Y-3831626D01*
G01X15261667Y-3711484D02*
G01X15341677Y-3711484D01*
G01X15389429Y-3711484D02*
G01X15389429Y-3831626D01*
G01X15469439Y-3711484D02*
G01X15469439Y-3831626D01*
G01X15389429Y-3768634D02*
G01X15469439Y-3768634D01*
G01X16595312Y-3711484D02*
G01X16595312Y-3831626D01*
G01X16595312Y-3711484D02*
G01X16646874Y-3711484D01*
G01X16663892Y-3717326D01*
G01X16669734Y-3722914D01*
G01X16675322Y-3734344D01*
G01X16675322Y-3745774D01*
G01X16669734Y-3757204D01*
G01X16663892Y-3763046D01*
G01X16646874Y-3768634D01*
G01X16595312Y-3768634D01*
G01X16635444Y-3768634D02*
G01X16675322Y-3831626D01*
G01X16751776Y-3751616D02*
G01X16740346Y-3757204D01*
G01X16728916Y-3768634D01*
G01X16723074Y-3785906D01*
G01X16723074Y-3797336D01*
G01X16728916Y-3814354D01*
G01X16740346Y-3825784D01*
G01X16751776Y-3831626D01*
G01X16768794Y-3831626D01*
G01X16780224Y-3825784D01*
G01X16791654Y-3814354D01*
G01X16797496Y-3797336D01*
G01X16797496Y-3785906D01*
G01X16791654Y-3768634D01*
G01X16780224Y-3757204D01*
G01X16768794Y-3751616D01*
G01X16751776Y-3751616D01*
G01X16845248Y-3751616D02*
G01X16845248Y-3808766D01*
G01X16851090Y-3825784D01*
G01X16862520Y-3831626D01*
G01X16879538Y-3831626D01*
G01X16890968Y-3825784D01*
G01X16908240Y-3808766D01*
G01X16908240Y-3751616D02*
G01X16908240Y-3831626D01*
G01X16955992Y-3751616D02*
G01X16955992Y-3831626D01*
G01X16955992Y-3774476D02*
G01X16973264Y-3757204D01*
G01X16984694Y-3751616D01*
G01X17001712Y-3751616D01*
G01X17013142Y-3757204D01*
G01X17018984Y-3774476D01*
G01X17018984Y-3831626D01*
G01X17135316Y-3711484D02*
G01X17135316Y-3831626D01*
G01X17135316Y-3768634D02*
G01X17123886Y-3757204D01*
G01X17112456Y-3751616D01*
G01X17095438Y-3751616D01*
G01X17084008Y-3757204D01*
G01X17072578Y-3768634D01*
G01X17066736Y-3785906D01*
G01X17066736Y-3797336D01*
G01X17072578Y-3814354D01*
G01X17084008Y-3825784D01*
G01X17095438Y-3831626D01*
G01X17112456Y-3831626D01*
G01X17123886Y-3825784D01*
G01X17135316Y-3814354D01*
G01X18026493Y-3711484D02*
G01X18026493Y-3831626D01*
G01X18026493Y-3711484D02*
G01X18078055Y-3711484D01*
G01X18095073Y-3717326D01*
G01X18100915Y-3722914D01*
G01X18106503Y-3734344D01*
G01X18106503Y-3751616D01*
G01X18100915Y-3763046D01*
G01X18095073Y-3768634D01*
G01X18078055Y-3774476D01*
G01X18026493Y-3774476D01*
G01X18222835Y-3751616D02*
G01X18222835Y-3831626D01*
G01X18222835Y-3768634D02*
G01X18211405Y-3757204D01*
G01X18199975Y-3751616D01*
G01X18182957Y-3751616D01*
G01X18171527Y-3757204D01*
G01X18160097Y-3768634D01*
G01X18154255Y-3785906D01*
G01X18154255Y-3797336D01*
G01X18160097Y-3814354D01*
G01X18171527Y-3825784D01*
G01X18182957Y-3831626D01*
G01X18199975Y-3831626D01*
G01X18211405Y-3825784D01*
G01X18222835Y-3814354D01*
G01X18339167Y-3711484D02*
G01X18339167Y-3831626D01*
G01X18339167Y-3768634D02*
G01X18327737Y-3757204D01*
G01X18316307Y-3751616D01*
G01X18299289Y-3751616D01*
G01X18287859Y-3757204D01*
G01X18276429Y-3768634D01*
G01X18270587Y-3785906D01*
G01X18270587Y-3797336D01*
G01X18276429Y-3814354D01*
G01X18287859Y-3825784D01*
G01X18299289Y-3831626D01*
G01X18316307Y-3831626D01*
G01X18327737Y-3825784D01*
G01X18339167Y-3814354D01*
G01X19735804Y-3688624D02*
G01X19724374Y-3700054D01*
G01X19712944Y-3717326D01*
G01X19701514Y-3740186D01*
G01X19695672Y-3768634D01*
G01X19695672Y-3791494D01*
G01X19701514Y-3820196D01*
G01X19712944Y-3843056D01*
G01X19724374Y-3860074D01*
G01X19735804Y-3871504D01*
G01X19783556Y-3711484D02*
G01X19783556Y-3831626D01*
G01X19783556Y-3711484D02*
G01X19829276Y-3831626D01*
G01X19874996Y-3711484D02*
G01X19829276Y-3831626D01*
G01X19874996Y-3711484D02*
G01X19874996Y-3831626D01*
G01X19922748Y-3711484D02*
G01X19928590Y-3717326D01*
G01X19934178Y-3711484D01*
G01X19928590Y-3705896D01*
G01X19922748Y-3711484D01*
G01X19928590Y-3751616D02*
G01X19928590Y-3831626D01*
G01X19981930Y-3751616D02*
G01X20044922Y-3831626D01*
G01X20044922Y-3751616D02*
G01X19981930Y-3831626D01*
G01X20092674Y-3785906D02*
G01X20161254Y-3785906D01*
G01X20161254Y-3774476D01*
G01X20155666Y-3763046D01*
G01X20149824Y-3757204D01*
G01X20138394Y-3751616D01*
G01X20121376Y-3751616D01*
G01X20109946Y-3757204D01*
G01X20098516Y-3768634D01*
G01X20092674Y-3785906D01*
G01X20092674Y-3797336D01*
G01X20098516Y-3814354D01*
G01X20109946Y-3825784D01*
G01X20121376Y-3831626D01*
G01X20138394Y-3831626D01*
G01X20149824Y-3825784D01*
G01X20161254Y-3814354D01*
G01X20277586Y-3711484D02*
G01X20277586Y-3831626D01*
G01X20277586Y-3768634D02*
G01X20266156Y-3757204D01*
G01X20254726Y-3751616D01*
G01X20237708Y-3751616D01*
G01X20226278Y-3757204D01*
G01X20214848Y-3768634D01*
G01X20209006Y-3785906D01*
G01X20209006Y-3797336D01*
G01X20214848Y-3814354D01*
G01X20226278Y-3825784D01*
G01X20237708Y-3831626D01*
G01X20254726Y-3831626D01*
G01X20266156Y-3825784D01*
G01X20277586Y-3814354D01*
G01X20325338Y-3688624D02*
G01X20336768Y-3700054D01*
G01X20348198Y-3717326D01*
G01X20359628Y-3740186D01*
G01X20365470Y-3768634D01*
G01X20365470Y-3791494D01*
G01X20359628Y-3820196D01*
G01X20348198Y-3843056D01*
G01X20336768Y-3860074D01*
G01X20325338Y-3871504D01*
G01X21655173Y-3711484D02*
G01X21655173Y-3831626D01*
G01X21615041Y-3711484D02*
G01X21695051Y-3711484D01*
G01X21771505Y-3751616D02*
G01X21760075Y-3757204D01*
G01X21748645Y-3768634D01*
G01X21742803Y-3785906D01*
G01X21742803Y-3797336D01*
G01X21748645Y-3814354D01*
G01X21760075Y-3825784D01*
G01X21771505Y-3831626D01*
G01X21788523Y-3831626D01*
G01X21799953Y-3825784D01*
G01X21811383Y-3814354D01*
G01X21817225Y-3797336D01*
G01X21817225Y-3785906D01*
G01X21811383Y-3768634D01*
G01X21799953Y-3757204D01*
G01X21788523Y-3751616D01*
G01X21771505Y-3751616D01*
G01X21864977Y-3751616D02*
G01X21864977Y-3871504D01*
G01X21864977Y-3768634D02*
G01X21876407Y-3757204D01*
G01X21887837Y-3751616D01*
G01X21905109Y-3751616D01*
G01X21916539Y-3757204D01*
G01X21927969Y-3768634D01*
G01X21933557Y-3785906D01*
G01X21933557Y-3797336D01*
G01X21927969Y-3814354D01*
G01X21916539Y-3825784D01*
G01X21905109Y-3831626D01*
G01X21887837Y-3831626D01*
G01X21876407Y-3825784D01*
G01X21864977Y-3814354D01*
G01X22109325Y-3711484D02*
G01X22109325Y-3831626D01*
G01X22109325Y-3831626D02*
G01X22177905Y-3831626D01*
G01X22294237Y-3751616D02*
G01X22294237Y-3831626D01*
G01X22294237Y-3768634D02*
G01X22282807Y-3757204D01*
G01X22271377Y-3751616D01*
G01X22254359Y-3751616D01*
G01X22242929Y-3757204D01*
G01X22231499Y-3768634D01*
G01X22225657Y-3785906D01*
G01X22225657Y-3797336D01*
G01X22231499Y-3814354D01*
G01X22242929Y-3825784D01*
G01X22254359Y-3831626D01*
G01X22271377Y-3831626D01*
G01X22282807Y-3825784D01*
G01X22294237Y-3814354D01*
G01X22347831Y-3751616D02*
G01X22382121Y-3831626D01*
G01X22416411Y-3751616D02*
G01X22382121Y-3831626D01*
G01X22370691Y-3854486D01*
G01X22359261Y-3865916D01*
G01X22347831Y-3871504D01*
G01X22341989Y-3871504D01*
G01X22464163Y-3785906D02*
G01X22532743Y-3785906D01*
G01X22532743Y-3774476D01*
G01X22527155Y-3763046D01*
G01X22521313Y-3757204D01*
G01X22509883Y-3751616D01*
G01X22492865Y-3751616D01*
G01X22481435Y-3757204D01*
G01X22470005Y-3768634D01*
G01X22464163Y-3785906D01*
G01X22464163Y-3797336D01*
G01X22470005Y-3814354D01*
G01X22481435Y-3825784D01*
G01X22492865Y-3831626D01*
G01X22509883Y-3831626D01*
G01X22521313Y-3825784D01*
G01X22532743Y-3814354D01*
G01X22580495Y-3751616D02*
G01X22580495Y-3831626D01*
G01X22580495Y-3785906D02*
G01X22586337Y-3768634D01*
G01X22597767Y-3757204D01*
G01X22609197Y-3751616D01*
G01X22626215Y-3751616D01*
G01X22673967Y-3780064D02*
G01X22776837Y-3780064D01*
G01X22824589Y-3711484D02*
G01X22824589Y-3831626D01*
G01X22824589Y-3711484D02*
G01X22876151Y-3711484D01*
G01X22893169Y-3717326D01*
G01X22899011Y-3722914D01*
G01X22904599Y-3734344D01*
G01X22904599Y-3745774D01*
G01X22899011Y-3757204D01*
G01X22893169Y-3763046D01*
G01X22876151Y-3768634D01*
G01X22824589Y-3768634D02*
G01X22876151Y-3768634D01*
G01X22893169Y-3774476D01*
G01X22899011Y-3780064D01*
G01X22904599Y-3791494D01*
G01X22904599Y-3808766D01*
G01X22899011Y-3820196D01*
G01X22893169Y-3825784D01*
G01X22876151Y-3831626D01*
G01X22824589Y-3831626D01*
G01X22981053Y-3751616D02*
G01X22969623Y-3757204D01*
G01X22958193Y-3768634D01*
G01X22952351Y-3785906D01*
G01X22952351Y-3797336D01*
G01X22958193Y-3814354D01*
G01X22969623Y-3825784D01*
G01X22981053Y-3831626D01*
G01X22998071Y-3831626D01*
G01X23009501Y-3825784D01*
G01X23020931Y-3814354D01*
G01X23026773Y-3797336D01*
G01X23026773Y-3785906D01*
G01X23020931Y-3768634D01*
G01X23009501Y-3757204D01*
G01X22998071Y-3751616D01*
G01X22981053Y-3751616D01*
G01X23091797Y-3711484D02*
G01X23091797Y-3808766D01*
G01X23097385Y-3825784D01*
G01X23108815Y-3831626D01*
G01X23120245Y-3831626D01*
G01X23074525Y-3751616D02*
G01X23114657Y-3751616D01*
G01X23185269Y-3711484D02*
G01X23185269Y-3808766D01*
G01X23190857Y-3825784D01*
G01X23202287Y-3831626D01*
G01X23213717Y-3831626D01*
G01X23167997Y-3751616D02*
G01X23208129Y-3751616D01*
G01X23290171Y-3751616D02*
G01X23278741Y-3757204D01*
G01X23267311Y-3768634D01*
G01X23261469Y-3785906D01*
G01X23261469Y-3797336D01*
G01X23267311Y-3814354D01*
G01X23278741Y-3825784D01*
G01X23290171Y-3831626D01*
G01X23307189Y-3831626D01*
G01X23318619Y-3825784D01*
G01X23330049Y-3814354D01*
G01X23335891Y-3797336D01*
G01X23335891Y-3785906D01*
G01X23330049Y-3768634D01*
G01X23318619Y-3757204D01*
G01X23307189Y-3751616D01*
G01X23290171Y-3751616D01*
G01X23383643Y-3751616D02*
G01X23383643Y-3831626D01*
G01X23383643Y-3774476D02*
G01X23400915Y-3757204D01*
G01X23412345Y-3751616D01*
G01X23429363Y-3751616D01*
G01X23440793Y-3757204D01*
G01X23446635Y-3774476D01*
G01X23446635Y-3831626D01*
G01X23446635Y-3774476D02*
G01X23463653Y-3757204D01*
G01X23475083Y-3751616D01*
G01X23492355Y-3751616D01*
G01X23503785Y-3757204D01*
G01X23509373Y-3774476D01*
G01X23509373Y-3831626D01*
G01X23685141Y-3711484D02*
G01X23685141Y-3831626D01*
G01X23685141Y-3831626D02*
G01X23753721Y-3831626D01*
G01X23870053Y-3751616D02*
G01X23870053Y-3831626D01*
G01X23870053Y-3768634D02*
G01X23858623Y-3757204D01*
G01X23847193Y-3751616D01*
G01X23830175Y-3751616D01*
G01X23818745Y-3757204D01*
G01X23807315Y-3768634D01*
G01X23801473Y-3785906D01*
G01X23801473Y-3797336D01*
G01X23807315Y-3814354D01*
G01X23818745Y-3825784D01*
G01X23830175Y-3831626D01*
G01X23847193Y-3831626D01*
G01X23858623Y-3825784D01*
G01X23870053Y-3814354D01*
G01X23923647Y-3751616D02*
G01X23957937Y-3831626D01*
G01X23992227Y-3751616D02*
G01X23957937Y-3831626D01*
G01X23946507Y-3854486D01*
G01X23935077Y-3865916D01*
G01X23923647Y-3871504D01*
G01X23917805Y-3871504D01*
G01X24039979Y-3785906D02*
G01X24108559Y-3785906D01*
G01X24108559Y-3774476D01*
G01X24102971Y-3763046D01*
G01X24097129Y-3757204D01*
G01X24085699Y-3751616D01*
G01X24068681Y-3751616D01*
G01X24057251Y-3757204D01*
G01X24045821Y-3768634D01*
G01X24039979Y-3785906D01*
G01X24039979Y-3797336D01*
G01X24045821Y-3814354D01*
G01X24057251Y-3825784D01*
G01X24068681Y-3831626D01*
G01X24085699Y-3831626D01*
G01X24097129Y-3825784D01*
G01X24108559Y-3814354D01*
G01X24156311Y-3751616D02*
G01X24156311Y-3831626D01*
G01X24156311Y-3785906D02*
G01X24162153Y-3768634D01*
G01X24173583Y-3757204D01*
G01X24185013Y-3751616D01*
G01X24202031Y-3751616D01*

G04 Image Start*
G36*
G01X8473713Y-2730954D02*
G01X8368099Y-2719473D01*
G01X8325224Y-2816679D01*
G01X8282349Y-2719473D01*
G01X8176736Y-2730954D01*
G01X8239499Y-2645229D01*
G01X8199777Y-2590974D01*
G01X8231270Y-2590974D01*
G01X8270970Y-2645229D01*
G01X8231270Y-2699483D01*
G01X8298097Y-2692219D01*
G01X8298097Y-2692219D01*
G01X8325224Y-2753712D01*
G01X8352351Y-2692219D01*
G01X8419179Y-2699483D01*
G01X8379479Y-2645229D01*
G01X8419153Y-2591000D01*
G01X8352326Y-2598264D01*
G01X8325224Y-2536745D01*
G01X8298097Y-2598239D01*
G01X8231270Y-2590974D01*
G01X8199777Y-2590974D01*
G01X8176736Y-2559504D01*
G01X8282374Y-2570984D01*
G01X8325224Y-2473779D01*
G01X8368099Y-2570984D01*
G01X8473713Y-2559504D01*
G01X8410949Y-2645229D01*
G01X8473713Y-2730954D01*
G37*
G36*
G01X8344719Y-1616649D02*
G01X8336979Y-1617237D01*
G01X8329136Y-1617436D01*
G01X8321293Y-1617237D01*
G01X8313552Y-1616649D01*
G01X8305925Y-1615680D01*
G01X8298420Y-1614340D01*
G01X8283814Y-1610585D01*
G01X8269812Y-1605460D01*
G01X8256490Y-1599043D01*
G01X8243924Y-1591410D01*
G01X8232192Y-1582637D01*
G01X8221370Y-1572802D01*
G01X8211534Y-1561979D01*
G01X8202761Y-1550247D01*
G01X8195128Y-1537682D01*
G01X8188711Y-1524360D01*
G01X8183587Y-1510358D01*
G01X8179832Y-1495752D01*
G01X8178492Y-1488246D01*
G01X8177522Y-1480619D01*
G01X8176934Y-1472879D01*
G01X8176736Y-1465036D01*
G01X8202136Y-1465036D01*
G01X8202793Y-1478002D01*
G01X8204720Y-1490598D01*
G01X8207855Y-1502760D01*
G01X8212132Y-1514422D01*
G01X8217487Y-1525522D01*
G01X8223855Y-1535993D01*
G01X8231173Y-1545773D01*
G01X8239375Y-1554796D01*
G01X8248399Y-1562999D01*
G01X8258178Y-1570316D01*
G01X8268650Y-1576685D01*
G01X8279749Y-1582040D01*
G01X8291412Y-1586316D01*
G01X8303573Y-1589451D01*
G01X8303573Y-1589451D01*
G01X8316169Y-1591379D01*
G01X8329136Y-1592036D01*
G01X8342102Y-1591379D01*
G01X8354698Y-1589451D01*
G01X8366860Y-1586316D01*
G01X8378522Y-1582040D01*
G01X8389622Y-1576685D01*
G01X8400093Y-1570316D01*
G01X8409873Y-1562999D01*
G01X8418896Y-1554796D01*
G01X8427099Y-1545773D01*
G01X8434416Y-1535993D01*
G01X8440785Y-1525522D01*
G01X8446140Y-1514422D01*
G01X8450416Y-1502760D01*
G01X8453551Y-1490598D01*
G01X8455479Y-1478002D01*
G01X8456136Y-1465036D01*
G01X8455479Y-1452069D01*
G01X8453551Y-1439473D01*
G01X8450416Y-1427312D01*
G01X8446140Y-1415649D01*
G01X8440785Y-1404550D01*
G01X8434416Y-1394078D01*
G01X8427099Y-1384299D01*
G01X8418896Y-1375275D01*
G01X8409873Y-1367073D01*
G01X8400093Y-1359755D01*
G01X8389622Y-1353387D01*
G01X8378522Y-1348032D01*
G01X8366860Y-1343755D01*
G01X8354698Y-1340621D01*
G01X8342102Y-1338693D01*
G01X8329136Y-1338036D01*
G01X8316169Y-1338693D01*
G01X8303573Y-1340621D01*
G01X8291412Y-1343755D01*
G01X8279749Y-1348032D01*
G01X8268650Y-1353387D01*
G01X8258178Y-1359755D01*
G01X8248399Y-1367073D01*
G01X8239375Y-1375275D01*
G01X8231173Y-1384299D01*
G01X8223855Y-1394078D01*
G01X8217487Y-1404550D01*
G01X8212132Y-1415649D01*
G01X8207855Y-1427312D01*
G01X8204720Y-1439473D01*
G01X8202793Y-1452069D01*
G01X8202136Y-1465036D01*
G01X8176736Y-1465036D01*
G01X8176934Y-1457193D01*
G01X8177522Y-1449452D01*
G01X8178492Y-1441825D01*
G01X8179832Y-1434320D01*
G01X8183587Y-1419714D01*
G01X8188711Y-1405712D01*
G01X8195128Y-1392390D01*
G01X8202761Y-1379824D01*
G01X8211534Y-1368092D01*
G01X8221370Y-1357270D01*
G01X8232192Y-1347434D01*
G01X8243924Y-1338661D01*
G01X8256490Y-1331028D01*
G01X8269812Y-1324611D01*
G01X8283814Y-1319487D01*
G01X8298420Y-1315732D01*
G01X8305925Y-1314392D01*
G01X8313552Y-1313422D01*
G01X8321293Y-1312834D01*
G01X8329136Y-1312636D01*
G01X8336979Y-1312834D01*
G01X8344719Y-1313422D01*
G01X8352346Y-1314392D01*
G01X8359852Y-1315732D01*
G01X8374458Y-1319487D01*
G01X8388460Y-1324611D01*
G01X8401782Y-1331028D01*
G01X8414347Y-1338661D01*
G01X8426079Y-1347434D01*
G01X8436902Y-1357270D01*
G01X8446737Y-1368092D01*
G01X8455510Y-1379824D01*
G01X8463143Y-1392390D01*
G01X8469560Y-1405712D01*
G01X8474685Y-1419714D01*
G01X8478440Y-1434320D01*
G01X8479780Y-1441825D01*
G01X8480749Y-1449452D01*
G01X8481337Y-1457193D01*
G01X8481536Y-1465036D01*
G01X8481337Y-1472879D01*
G01X8480749Y-1480619D01*
G01X8479780Y-1488246D01*
G01X8478440Y-1495752D01*
G01X8474685Y-1510358D01*
G01X8469560Y-1524360D01*
G01X8463143Y-1537682D01*
G01X8455510Y-1550247D01*
G01X8446737Y-1561979D01*
G01X8436902Y-1572802D01*
G01X8426079Y-1582637D01*
G01X8414347Y-1591410D01*
G01X8401782Y-1599043D01*
G01X8388460Y-1605460D01*
G01X8374458Y-1610585D01*
G01X8359852Y-1614340D01*
G01X8352346Y-1615680D01*
G01X8344719Y-1616649D01*
G37*
G36*
G01X8481536Y-3856587D02*
G01X8398427Y-3856587D01*
G01X8398427Y-3939721D01*
G01X8259870Y-3939721D01*
G01X8259870Y-3856613D01*
G01X8176736Y-3856613D01*
G01X8176736Y-3743456D01*
G01X8202136Y-3743456D01*
G01X8202136Y-3831187D01*
G01X8285270Y-3831187D01*
G01X8285270Y-3914321D01*
G01X8285270Y-3914321D01*
G01X8373002Y-3914321D01*
G01X8373002Y-3831213D01*
G01X8456136Y-3831213D01*
G01X8456136Y-3743456D01*
G01X8373002Y-3743456D01*
G01X8373002Y-3660321D01*
G01X8285270Y-3660321D01*
G01X8285270Y-3743456D01*
G01X8202136Y-3743456D01*
G01X8176736Y-3743456D01*
G01X8176736Y-3718056D01*
G01X8259870Y-3718056D01*
G01X8259870Y-3634921D01*
G01X8398402Y-3634921D01*
G01X8398402Y-3718056D01*
G01X8481536Y-3718056D01*
G01X8481536Y-3856587D01*
G37*
G36*
G01X8481536Y-3054350D02*
G01X8411508Y-3206750D01*
G01X8481536Y-3359150D01*
G01X8329136Y-3289122D01*
G01X8176736Y-3359150D01*
G01X8200498Y-3307436D01*
G01X8228450Y-3307436D01*
G01X8318519Y-3266034D01*
G01X8329136Y-3261157D01*
G01X8339753Y-3266034D01*
G01X8429821Y-3307436D01*
G01X8388419Y-3217367D01*
G01X8383543Y-3206750D01*
G01X8388419Y-3196133D01*
G01X8429821Y-3106064D01*
G01X8339753Y-3147466D01*
G01X8329136Y-3152343D01*
G01X8318519Y-3147466D01*
G01X8228450Y-3106064D01*
G01X8269852Y-3196133D01*
G01X8274729Y-3206750D01*
G01X8274729Y-3206750D01*
G01X8269852Y-3217367D01*
G01X8228450Y-3307436D01*
G01X8200498Y-3307436D01*
G01X8246764Y-3206750D01*
G01X8176736Y-3054350D01*
G01X8329136Y-3124378D01*
G01X8481536Y-3054350D01*
G37*
G36*
G01X8176736Y-1893207D02*
G01X8481536Y-1893207D01*
G01X8329136Y-2157164D01*
G01X8191401Y-1918607D01*
G01X8220729Y-1918607D01*
G01X8329136Y-2106364D01*
G01X8437543Y-1918607D01*
G01X8437543Y-1918607D01*
G01X8220729Y-1918607D01*
G01X8191401Y-1918607D01*
G01X8176736Y-1893207D01*
G37*
G36*
G01X8176736Y-732064D02*
G01X8456136Y-732064D01*
G01X8456136Y-1011464D01*
G01X8176736Y-1011464D01*
G01X8176736Y-757464D01*
G01X8202136Y-757464D01*
G01X8202136Y-986064D01*
G01X8430736Y-986064D01*
G01X8430736Y-757464D01*
G01X8430736Y-757464D01*
G01X8202136Y-757464D01*
G01X8176736Y-757464D01*
G01X8176736Y-732064D01*
G37*

G04 PolygonModel Start*
G54D17*
G01X7886450Y-4070350D02*
G01X24792763Y-4070350D01*
G01X7886450Y-3489779D02*
G01X24792763Y-3489779D01*
G01X7886450Y-2909207D02*
G01X24792763Y-2909207D01*
G01X7886450Y-2328636D02*
G01X24792763Y-2328636D01*
G01X7886450Y-1748064D02*
G01X24792763Y-1748064D01*
G01X7886450Y-1167493D02*
G01X24792763Y-1167493D01*
G01X7886450Y-586921D02*
G01X24792763Y-586921D01*
G01X7886450Y-6350D02*
G01X24792763Y-6350D01*
G01X7886450Y-6350D02*
G01X7886450Y-4044950D01*
G01X9337879Y-6350D02*
G01X9337879Y-4044950D01*
G01X10752042Y-6350D02*
G01X10752042Y-4044950D01*
G01X14833459Y-6350D02*
G01X14833459Y-4044950D01*
G01X16294866Y-6350D02*
G01X16294866Y-4044950D01*
G01X17726047Y-6350D02*
G01X17726047Y-4044950D01*
G01X19395226Y-6350D02*
G01X19395226Y-4044950D01*
G01X21314595Y-6350D02*
G01X21314595Y-4044950D01*
G01X24792763Y-6350D02*
G01X24792763Y-4044950D01*

M02*

